solid OpenSCAD_Model
  facet normal 0.998796 0.0490615 0
    outer loop
      vertex 7.5 0 6
      vertex 7.46389 0.735128 0
      vertex 7.46389 0.735128 6
    endloop
  endfacet
  facet normal 0.998796 0.0490615 0
    outer loop
      vertex 7.46389 0.735128 0
      vertex 7.5 0 6
      vertex 7.5 0 0
    endloop
  endfacet
  facet normal -0.998796 0.0490615 0
    outer loop
      vertex -7.5 0 0
      vertex -7.46389 0.735128 6
      vertex -7.46389 0.735128 0
    endloop
  endfacet
  facet normal -0.998796 0.0490615 0
    outer loop
      vertex -7.46389 0.735128 6
      vertex -7.5 0 0
      vertex -7.5 0 6
    endloop
  endfacet
  facet normal 0.0490615 0.998796 -0
    outer loop
      vertex 0.735128 7.46389 0
      vertex 0 7.5 6
      vertex 0.735128 7.46389 6
    endloop
  endfacet
  facet normal 0.0490615 0.998796 0
    outer loop
      vertex 0 7.5 6
      vertex 0.735128 7.46389 0
      vertex 0 7.5 0
    endloop
  endfacet
  facet normal 0.740949 0.671562 0
    outer loop
      vertex 5.79758 4.75795 6
      vertex 5.3033 5.3033 0
      vertex 5.3033 5.3033 6
    endloop
  endfacet
  facet normal 0.740949 0.671562 0
    outer loop
      vertex 5.3033 5.3033 0
      vertex 5.79758 4.75795 6
      vertex 5.79758 4.75795 0
    endloop
  endfacet
  facet normal -0.671562 0.740949 0
    outer loop
      vertex -4.75795 5.79758 0
      vertex -5.3033 5.3033 6
      vertex -4.75795 5.79758 6
    endloop
  endfacet
  facet normal -0.671562 0.740949 0
    outer loop
      vertex -5.3033 5.3033 6
      vertex -4.75795 5.79758 0
      vertex -5.3033 5.3033 0
    endloop
  endfacet
  facet normal -0.336883 0.941547 0
    outer loop
      vertex -2.17713 7.17705 0
      vertex -2.87012 6.9291 6
      vertex -2.17713 7.17705 6
    endloop
  endfacet
  facet normal -0.336883 0.941547 0
    outer loop
      vertex -2.87012 6.9291 6
      vertex -2.17713 7.17705 0
      vertex -2.87012 6.9291 0
    endloop
  endfacet
  facet normal 0.903988 0.427558 0
    outer loop
      vertex 6.9291 2.87012 6
      vertex 6.61441 3.53547 0
      vertex 6.61441 3.53547 6
    endloop
  endfacet
  facet normal 0.903988 0.427558 0
    outer loop
      vertex 6.61441 3.53547 0
      vertex 6.9291 2.87012 6
      vertex 6.9291 2.87012 0
    endloop
  endfacet
  facet normal 0.85773 0.5141 0
    outer loop
      vertex 6.61441 3.53547 6
      vertex 6.23602 4.16678 0
      vertex 6.23602 4.16678 6
    endloop
  endfacet
  facet normal 0.85773 0.5141 0
    outer loop
      vertex 6.23602 4.16678 0
      vertex 6.61441 3.53547 6
      vertex 6.61441 3.53547 0
    endloop
  endfacet
  facet normal 0.427558 0.903988 -0
    outer loop
      vertex 3.53547 6.61441 0
      vertex 2.87012 6.9291 6
      vertex 3.53547 6.61441 6
    endloop
  endfacet
  facet normal 0.427558 0.903988 0
    outer loop
      vertex 2.87012 6.9291 6
      vertex 3.53547 6.61441 0
      vertex 2.87012 6.9291 0
    endloop
  endfacet
  facet normal 0.595698 0.803209 -0
    outer loop
      vertex 4.75795 5.79758 0
      vertex 4.16678 6.23602 6
      vertex 4.75795 5.79758 6
    endloop
  endfacet
  facet normal 0.595698 0.803209 0
    outer loop
      vertex 4.16678 6.23602 6
      vertex 4.75795 5.79758 0
      vertex 4.16678 6.23602 0
    endloop
  endfacet
  facet normal -0.903988 0.427558 0
    outer loop
      vertex -6.9291 2.87012 0
      vertex -6.61441 3.53547 6
      vertex -6.61441 3.53547 0
    endloop
  endfacet
  facet normal -0.903988 0.427558 0
    outer loop
      vertex -6.61441 3.53547 6
      vertex -6.9291 2.87012 0
      vertex -6.9291 2.87012 6
    endloop
  endfacet
  facet normal -0.146735 0.989176 0
    outer loop
      vertex -0.735128 7.46389 0
      vertex -1.46318 7.35589 6
      vertex -0.735128 7.46389 6
    endloop
  endfacet
  facet normal -0.146735 0.989176 0
    outer loop
      vertex -1.46318 7.35589 6
      vertex -0.735128 7.46389 0
      vertex -1.46318 7.35589 0
    endloop
  endfacet
  facet normal 0 0 -1
    outer loop
      vertex 6 0 0
      vertex 7.5 0 0
      vertex 7.46389 -0.735128 0
    endloop
  endfacet
  facet normal 0 0 -1
    outer loop
      vertex 5.97111 -0.588102 0
      vertex 7.46389 -0.735128 0
      vertex 7.35589 -1.46318 0
    endloop
  endfacet
  facet normal 0 0 -1
    outer loop
      vertex 7.5 0 0
      vertex 6 0 0
      vertex 7.46389 0.735128 0
    endloop
  endfacet
  facet normal 0 0 -1
    outer loop
      vertex 5.88471 -1.17054 0
      vertex 7.35589 -1.46318 0
      vertex 7.17705 -2.17713 0
    endloop
  endfacet
  facet normal 0 0 -1
    outer loop
      vertex 5.97111 0.588102 0
      vertex 7.46389 0.735128 0
      vertex 6 0 0
    endloop
  endfacet
  facet normal 0 0 -1
    outer loop
      vertex 5.74164 -1.74171 0
      vertex 7.17705 -2.17713 0
      vertex 6.9291 -2.87012 0
    endloop
  endfacet
  facet normal -0 0 -1
    outer loop
      vertex 7.46389 0.735128 0
      vertex 5.97111 0.588102 0
      vertex 7.35589 1.46318 0
    endloop
  endfacet
  facet normal 0 0 -1
    outer loop
      vertex 5.54328 -2.2961 0
      vertex 6.9291 -2.87012 0
      vertex 6.61441 -3.53547 0
    endloop
  endfacet
  facet normal 0 0 -1
    outer loop
      vertex 5.88471 1.17054 0
      vertex 7.35589 1.46318 0
      vertex 5.97111 0.588102 0
    endloop
  endfacet
  facet normal 0 0 -1
    outer loop
      vertex 5.29153 -2.82838 0
      vertex 6.61441 -3.53547 0
      vertex 6.23602 -4.16678 0
    endloop
  endfacet
  facet normal -0 0 -1
    outer loop
      vertex 7.35589 1.46318 0
      vertex 5.88471 1.17054 0
      vertex 7.17705 2.17713 0
    endloop
  endfacet
  facet normal 0 0 -1
    outer loop
      vertex 5.74164 1.74171 0
      vertex 7.17705 2.17713 0
      vertex 5.88471 1.17054 0
    endloop
  endfacet
  facet normal 0 0 -1
    outer loop
      vertex 7.46389 -0.735128 0
      vertex 5.97111 -0.588102 0
      vertex 6 0 0
    endloop
  endfacet
  facet normal 0 0 -1
    outer loop
      vertex 7.35589 -1.46318 0
      vertex 5.88471 -1.17054 0
      vertex 5.97111 -0.588102 0
    endloop
  endfacet
  facet normal 0 0 -1
    outer loop
      vertex 4.98882 -3.33342 0
      vertex 6.23602 -4.16678 0
      vertex 5.79758 -4.75795 0
    endloop
  endfacet
  facet normal 0 0 -1
    outer loop
      vertex 7.17705 -2.17713 0
      vertex 5.74164 -1.74171 0
      vertex 5.88471 -1.17054 0
    endloop
  endfacet
  facet normal 0 0 -1
    outer loop
      vertex 6.9291 -2.87012 0
      vertex 5.54328 -2.2961 0
      vertex 5.74164 -1.74171 0
    endloop
  endfacet
  facet normal 0 0 -1
    outer loop
      vertex 4.63806 -3.80636 0
      vertex 5.79758 -4.75795 0
      vertex 5.3033 -5.3033 0
    endloop
  endfacet
  facet normal 0 0 -1
    outer loop
      vertex 6.61441 -3.53547 0
      vertex 5.29153 -2.82838 0
      vertex 5.54328 -2.2961 0
    endloop
  endfacet
  facet normal 0 0 -1
    outer loop
      vertex 6.23602 -4.16678 0
      vertex 4.98882 -3.33342 0
      vertex 5.29153 -2.82838 0
    endloop
  endfacet
  facet normal 0 0 -1
    outer loop
      vertex 4.24264 -4.24264 0
      vertex 5.3033 -5.3033 0
      vertex 4.75795 -5.79758 0
    endloop
  endfacet
  facet normal 0 0 -1
    outer loop
      vertex 5.79758 -4.75795 0
      vertex 4.63806 -3.80636 0
      vertex 4.98882 -3.33342 0
    endloop
  endfacet
  facet normal 0 0 -1
    outer loop
      vertex 5.3033 -5.3033 0
      vertex 4.24264 -4.24264 0
      vertex 4.63806 -3.80636 0
    endloop
  endfacet
  facet normal 0 0 -1
    outer loop
      vertex 3.80636 -4.63806 0
      vertex 4.75795 -5.79758 0
      vertex 4.16678 -6.23602 0
    endloop
  endfacet
  facet normal 0 0 -1
    outer loop
      vertex 4.75795 -5.79758 0
      vertex 3.80636 -4.63806 0
      vertex 4.24264 -4.24264 0
    endloop
  endfacet
  facet normal 0 0 -1
    outer loop
      vertex 3.33342 -4.98882 0
      vertex 4.16678 -6.23602 0
      vertex 3.53547 -6.61441 0
    endloop
  endfacet
  facet normal 0 0 -1
    outer loop
      vertex 4.16678 -6.23602 0
      vertex 3.33342 -4.98882 0
      vertex 3.80636 -4.63806 0
    endloop
  endfacet
  facet normal 0 0 -1
    outer loop
      vertex 2.82838 -5.29153 0
      vertex 3.53547 -6.61441 0
      vertex 2.87012 -6.9291 0
    endloop
  endfacet
  facet normal 0 0 -1
    outer loop
      vertex 3.53547 -6.61441 0
      vertex 2.82838 -5.29153 0
      vertex 3.33342 -4.98882 0
    endloop
  endfacet
  facet normal 0 0 -1
    outer loop
      vertex 2.87012 -6.9291 0
      vertex 2.2961 -5.54328 0
      vertex 2.82838 -5.29153 0
    endloop
  endfacet
  facet normal 0 0 -1
    outer loop
      vertex 2.17713 -7.17705 0
      vertex 2.2961 -5.54328 0
      vertex 2.87012 -6.9291 0
    endloop
  endfacet
  facet normal 0 0 -1
    outer loop
      vertex 2.17713 -7.17705 0
      vertex 1.74171 -5.74164 0
      vertex 2.2961 -5.54328 0
    endloop
  endfacet
  facet normal 0 0 -1
    outer loop
      vertex 1.46318 -7.35589 0
      vertex 1.74171 -5.74164 0
      vertex 2.17713 -7.17705 0
    endloop
  endfacet
  facet normal 0 0 -1
    outer loop
      vertex 1.46318 -7.35589 0
      vertex 1.17054 -5.88471 0
      vertex 1.74171 -5.74164 0
    endloop
  endfacet
  facet normal 0 0 -1
    outer loop
      vertex 0.735128 -7.46389 0
      vertex 1.17054 -5.88471 0
      vertex 1.46318 -7.35589 0
    endloop
  endfacet
  facet normal 0 0 -1
    outer loop
      vertex 0.735128 -7.46389 0
      vertex 0.588102 -5.97111 0
      vertex 1.17054 -5.88471 0
    endloop
  endfacet
  facet normal 0 0 -1
    outer loop
      vertex 0 -7.5 0
      vertex 0.588102 -5.97111 0
      vertex 0.735128 -7.46389 0
    endloop
  endfacet
  facet normal 0 0 -1
    outer loop
      vertex 0 -7.5 0
      vertex 0 -6 0
      vertex 0.588102 -5.97111 0
    endloop
  endfacet
  facet normal 0 0 -1
    outer loop
      vertex 0 -7.5 0
      vertex -0.588102 -5.97111 0
      vertex 0 -6 0
    endloop
  endfacet
  facet normal 0 0 -1
    outer loop
      vertex -0.735128 -7.46389 0
      vertex -0.588102 -5.97111 0
      vertex 0 -7.5 0
    endloop
  endfacet
  facet normal 0 0 -1
    outer loop
      vertex -0.735128 -7.46389 0
      vertex -1.17054 -5.88471 0
      vertex -0.588102 -5.97111 0
    endloop
  endfacet
  facet normal 0 0 -1
    outer loop
      vertex -1.46318 -7.35589 0
      vertex -1.17054 -5.88471 0
      vertex -0.735128 -7.46389 0
    endloop
  endfacet
  facet normal 0 0 -1
    outer loop
      vertex -1.46318 -7.35589 0
      vertex -1.74171 -5.74164 0
      vertex -1.17054 -5.88471 0
    endloop
  endfacet
  facet normal 0 0 -1
    outer loop
      vertex -2.17713 -7.17705 0
      vertex -1.74171 -5.74164 0
      vertex -1.46318 -7.35589 0
    endloop
  endfacet
  facet normal 0 0 -1
    outer loop
      vertex -2.17713 -7.17705 0
      vertex -2.2961 -5.54328 0
      vertex -1.74171 -5.74164 0
    endloop
  endfacet
  facet normal 0 0 -1
    outer loop
      vertex -2.87012 -6.9291 0
      vertex -2.2961 -5.54328 0
      vertex -2.17713 -7.17705 0
    endloop
  endfacet
  facet normal -0 0 -1
    outer loop
      vertex -2.2961 -5.54328 0
      vertex -2.87012 -6.9291 0
      vertex -2.82838 -5.29153 0
    endloop
  endfacet
  facet normal 0 0 -1
    outer loop
      vertex -3.53547 -6.61441 0
      vertex -2.82838 -5.29153 0
      vertex -2.87012 -6.9291 0
    endloop
  endfacet
  facet normal -0 0 -1
    outer loop
      vertex -2.82838 -5.29153 0
      vertex -3.53547 -6.61441 0
      vertex -3.33342 -4.98882 0
    endloop
  endfacet
  facet normal 0 0 -1
    outer loop
      vertex -4.16678 -6.23602 0
      vertex -3.33342 -4.98882 0
      vertex -3.53547 -6.61441 0
    endloop
  endfacet
  facet normal -0 0 -1
    outer loop
      vertex -3.33342 -4.98882 0
      vertex -4.16678 -6.23602 0
      vertex -3.80636 -4.63806 0
    endloop
  endfacet
  facet normal 0 0 -1
    outer loop
      vertex -4.75795 -5.79758 0
      vertex -3.80636 -4.63806 0
      vertex -4.16678 -6.23602 0
    endloop
  endfacet
  facet normal -0 0 -1
    outer loop
      vertex -3.80636 -4.63806 0
      vertex -4.75795 -5.79758 0
      vertex -4.24264 -4.24264 0
    endloop
  endfacet
  facet normal 0 0 -1
    outer loop
      vertex -5.3033 -5.3033 0
      vertex -4.24264 -4.24264 0
      vertex -4.75795 -5.79758 0
    endloop
  endfacet
  facet normal -0 0 -1
    outer loop
      vertex -4.24264 -4.24264 0
      vertex -5.3033 -5.3033 0
      vertex -4.63806 -3.80636 0
    endloop
  endfacet
  facet normal 0 0 -1
    outer loop
      vertex -5.79758 -4.75795 0
      vertex -4.63806 -3.80636 0
      vertex -5.3033 -5.3033 0
    endloop
  endfacet
  facet normal -0 0 -1
    outer loop
      vertex -4.63806 -3.80636 0
      vertex -5.79758 -4.75795 0
      vertex -4.98882 -3.33342 0
    endloop
  endfacet
  facet normal 0 0 -1
    outer loop
      vertex -6.23602 -4.16678 0
      vertex -4.98882 -3.33342 0
      vertex -5.79758 -4.75795 0
    endloop
  endfacet
  facet normal -0 0 -1
    outer loop
      vertex -4.98882 -3.33342 0
      vertex -6.23602 -4.16678 0
      vertex -5.29153 -2.82838 0
    endloop
  endfacet
  facet normal 0 0 -1
    outer loop
      vertex -6.61441 -3.53547 0
      vertex -5.29153 -2.82838 0
      vertex -6.23602 -4.16678 0
    endloop
  endfacet
  facet normal -0 0 -1
    outer loop
      vertex -5.29153 -2.82838 0
      vertex -6.61441 -3.53547 0
      vertex -5.54328 -2.2961 0
    endloop
  endfacet
  facet normal 0 0 -1
    outer loop
      vertex -6.9291 -2.87012 0
      vertex -5.54328 -2.2961 0
      vertex -6.61441 -3.53547 0
    endloop
  endfacet
  facet normal -0 0 -1
    outer loop
      vertex -5.54328 -2.2961 0
      vertex -6.9291 -2.87012 0
      vertex -5.74164 -1.74171 0
    endloop
  endfacet
  facet normal 0 0 -1
    outer loop
      vertex -7.17705 -2.17713 0
      vertex -5.74164 -1.74171 0
      vertex -6.9291 -2.87012 0
    endloop
  endfacet
  facet normal -0 0 -1
    outer loop
      vertex 7.17705 2.17713 0
      vertex 5.74164 1.74171 0
      vertex 6.9291 2.87012 0
    endloop
  endfacet
  facet normal 0 0 -1
    outer loop
      vertex 5.54328 2.2961 0
      vertex 6.9291 2.87012 0
      vertex 5.74164 1.74171 0
    endloop
  endfacet
  facet normal -0 0 -1
    outer loop
      vertex 6.9291 2.87012 0
      vertex 5.54328 2.2961 0
      vertex 6.61441 3.53547 0
    endloop
  endfacet
  facet normal 0 0 -1
    outer loop
      vertex 5.29153 2.82838 0
      vertex 6.61441 3.53547 0
      vertex 5.54328 2.2961 0
    endloop
  endfacet
  facet normal -0 0 -1
    outer loop
      vertex 6.61441 3.53547 0
      vertex 5.29153 2.82838 0
      vertex 6.23602 4.16678 0
    endloop
  endfacet
  facet normal 0 0 -1
    outer loop
      vertex 4.98882 3.33342 0
      vertex 6.23602 4.16678 0
      vertex 5.29153 2.82838 0
    endloop
  endfacet
  facet normal -0 0 -1
    outer loop
      vertex 6.23602 4.16678 0
      vertex 4.98882 3.33342 0
      vertex 5.79758 4.75795 0
    endloop
  endfacet
  facet normal 0 0 -1
    outer loop
      vertex 4.63806 3.80636 0
      vertex 5.79758 4.75795 0
      vertex 4.98882 3.33342 0
    endloop
  endfacet
  facet normal -0 0 -1
    outer loop
      vertex 5.79758 4.75795 0
      vertex 4.63806 3.80636 0
      vertex 5.3033 5.3033 0
    endloop
  endfacet
  facet normal 0 0 -1
    outer loop
      vertex 4.24264 4.24264 0
      vertex 5.3033 5.3033 0
      vertex 4.63806 3.80636 0
    endloop
  endfacet
  facet normal -0 0 -1
    outer loop
      vertex 5.3033 5.3033 0
      vertex 4.24264 4.24264 0
      vertex 4.75795 5.79758 0
    endloop
  endfacet
  facet normal 0 0 -1
    outer loop
      vertex 3.80636 4.63806 0
      vertex 4.75795 5.79758 0
      vertex 4.24264 4.24264 0
    endloop
  endfacet
  facet normal -0 0 -1
    outer loop
      vertex 4.75795 5.79758 0
      vertex 3.80636 4.63806 0
      vertex 4.16678 6.23602 0
    endloop
  endfacet
  facet normal 0 0 -1
    outer loop
      vertex 3.33342 4.98882 0
      vertex 4.16678 6.23602 0
      vertex 3.80636 4.63806 0
    endloop
  endfacet
  facet normal -0 0 -1
    outer loop
      vertex 4.16678 6.23602 0
      vertex 3.33342 4.98882 0
      vertex 3.53547 6.61441 0
    endloop
  endfacet
  facet normal 0 0 -1
    outer loop
      vertex 2.82838 5.29153 0
      vertex 3.53547 6.61441 0
      vertex 3.33342 4.98882 0
    endloop
  endfacet
  facet normal -0 0 -1
    outer loop
      vertex 3.53547 6.61441 0
      vertex 2.82838 5.29153 0
      vertex 2.87012 6.9291 0
    endloop
  endfacet
  facet normal 0 0 -1
    outer loop
      vertex 2.2961 5.54328 0
      vertex 2.87012 6.9291 0
      vertex 2.82838 5.29153 0
    endloop
  endfacet
  facet normal 0 0 -1
    outer loop
      vertex 2.2961 5.54328 0
      vertex 2.17713 7.17705 0
      vertex 2.87012 6.9291 0
    endloop
  endfacet
  facet normal 0 0 -1
    outer loop
      vertex 1.74171 5.74164 0
      vertex 2.17713 7.17705 0
      vertex 2.2961 5.54328 0
    endloop
  endfacet
  facet normal 0 0 -1
    outer loop
      vertex 1.74171 5.74164 0
      vertex 1.46318 7.35589 0
      vertex 2.17713 7.17705 0
    endloop
  endfacet
  facet normal 0 0 -1
    outer loop
      vertex 1.17054 5.88471 0
      vertex 1.46318 7.35589 0
      vertex 1.74171 5.74164 0
    endloop
  endfacet
  facet normal 0 0 -1
    outer loop
      vertex 1.17054 5.88471 0
      vertex 0.735128 7.46389 0
      vertex 1.46318 7.35589 0
    endloop
  endfacet
  facet normal 0 0 -1
    outer loop
      vertex 0.588102 5.97111 0
      vertex 0.735128 7.46389 0
      vertex 1.17054 5.88471 0
    endloop
  endfacet
  facet normal 0 0 -1
    outer loop
      vertex 0 6 0
      vertex 0.735128 7.46389 0
      vertex 0.588102 5.97111 0
    endloop
  endfacet
  facet normal 0 0 -1
    outer loop
      vertex 0 6 0
      vertex 0 7.5 0
      vertex 0.735128 7.46389 0
    endloop
  endfacet
  facet normal 0 0 -1
    outer loop
      vertex -0.588102 5.97111 0
      vertex 0 7.5 0
      vertex 0 6 0
    endloop
  endfacet
  facet normal 0 0 -1
    outer loop
      vertex -0.588102 5.97111 0
      vertex -0.735128 7.46389 0
      vertex 0 7.5 0
    endloop
  endfacet
  facet normal 0 0 -1
    outer loop
      vertex -1.17054 5.88471 0
      vertex -0.735128 7.46389 0
      vertex -0.588102 5.97111 0
    endloop
  endfacet
  facet normal 0 0 -1
    outer loop
      vertex -1.17054 5.88471 0
      vertex -1.46318 7.35589 0
      vertex -0.735128 7.46389 0
    endloop
  endfacet
  facet normal 0 0 -1
    outer loop
      vertex -1.74171 5.74164 0
      vertex -1.46318 7.35589 0
      vertex -1.17054 5.88471 0
    endloop
  endfacet
  facet normal 0 0 -1
    outer loop
      vertex -1.74171 5.74164 0
      vertex -2.17713 7.17705 0
      vertex -1.46318 7.35589 0
    endloop
  endfacet
  facet normal 0 0 -1
    outer loop
      vertex -2.2961 5.54328 0
      vertex -2.17713 7.17705 0
      vertex -1.74171 5.74164 0
    endloop
  endfacet
  facet normal 0 0 -1
    outer loop
      vertex -2.87012 6.9291 0
      vertex -2.2961 5.54328 0
      vertex -2.82838 5.29153 0
    endloop
  endfacet
  facet normal 0 0 -1
    outer loop
      vertex -2.2961 5.54328 0
      vertex -2.87012 6.9291 0
      vertex -2.17713 7.17705 0
    endloop
  endfacet
  facet normal 0 0 -1
    outer loop
      vertex -3.53547 6.61441 0
      vertex -2.82838 5.29153 0
      vertex -3.33342 4.98882 0
    endloop
  endfacet
  facet normal 0 0 -1
    outer loop
      vertex -2.82838 5.29153 0
      vertex -3.53547 6.61441 0
      vertex -2.87012 6.9291 0
    endloop
  endfacet
  facet normal 0 0 -1
    outer loop
      vertex -4.16678 6.23602 0
      vertex -3.33342 4.98882 0
      vertex -3.80636 4.63806 0
    endloop
  endfacet
  facet normal 0 0 -1
    outer loop
      vertex -3.33342 4.98882 0
      vertex -4.16678 6.23602 0
      vertex -3.53547 6.61441 0
    endloop
  endfacet
  facet normal 0 0 -1
    outer loop
      vertex -4.75795 5.79758 0
      vertex -3.80636 4.63806 0
      vertex -4.24264 4.24264 0
    endloop
  endfacet
  facet normal 0 0 -1
    outer loop
      vertex -5.3033 5.3033 0
      vertex -4.24264 4.24264 0
      vertex -4.63806 3.80636 0
    endloop
  endfacet
  facet normal 0 0 -1
    outer loop
      vertex -3.80636 4.63806 0
      vertex -4.75795 5.79758 0
      vertex -4.16678 6.23602 0
    endloop
  endfacet
  facet normal 0 0 -1
    outer loop
      vertex -5.79758 4.75795 0
      vertex -4.63806 3.80636 0
      vertex -4.98882 3.33342 0
    endloop
  endfacet
  facet normal 0 0 -1
    outer loop
      vertex -6.23602 4.16678 0
      vertex -4.98882 3.33342 0
      vertex -5.29153 2.82838 0
    endloop
  endfacet
  facet normal 0 0 -1
    outer loop
      vertex -4.24264 4.24264 0
      vertex -5.3033 5.3033 0
      vertex -4.75795 5.79758 0
    endloop
  endfacet
  facet normal 0 0 -1
    outer loop
      vertex -6.61441 3.53547 0
      vertex -5.29153 2.82838 0
      vertex -5.54328 2.2961 0
    endloop
  endfacet
  facet normal 0 0 -1
    outer loop
      vertex -6.9291 2.87012 0
      vertex -5.54328 2.2961 0
      vertex -5.74164 1.74171 0
    endloop
  endfacet
  facet normal 0 0 -1
    outer loop
      vertex -4.63806 3.80636 0
      vertex -5.79758 4.75795 0
      vertex -5.3033 5.3033 0
    endloop
  endfacet
  facet normal 0 0 -1
    outer loop
      vertex -7.17705 2.17713 0
      vertex -5.74164 1.74171 0
      vertex -5.88471 1.17054 0
    endloop
  endfacet
  facet normal 0 0 -1
    outer loop
      vertex -7.35589 1.46318 0
      vertex -5.88471 1.17054 0
      vertex -5.97111 0.588102 0
    endloop
  endfacet
  facet normal 0 0 -1
    outer loop
      vertex -7.46389 0.735128 0
      vertex -5.97111 0.588102 0
      vertex -6 0 0
    endloop
  endfacet
  facet normal -0 0 -1
    outer loop
      vertex -5.74164 -1.74171 0
      vertex -7.17705 -2.17713 0
      vertex -5.88471 -1.17054 0
    endloop
  endfacet
  facet normal 0 0 -1
    outer loop
      vertex -4.98882 3.33342 0
      vertex -6.23602 4.16678 0
      vertex -5.79758 4.75795 0
    endloop
  endfacet
  facet normal 0 0 -1
    outer loop
      vertex -7.35589 -1.46318 0
      vertex -5.88471 -1.17054 0
      vertex -7.17705 -2.17713 0
    endloop
  endfacet
  facet normal 0 0 -1
    outer loop
      vertex -5.29153 2.82838 0
      vertex -6.61441 3.53547 0
      vertex -6.23602 4.16678 0
    endloop
  endfacet
  facet normal -0 0 -1
    outer loop
      vertex -5.88471 -1.17054 0
      vertex -7.35589 -1.46318 0
      vertex -5.97111 -0.588102 0
    endloop
  endfacet
  facet normal 0 0 -1
    outer loop
      vertex -5.54328 2.2961 0
      vertex -6.9291 2.87012 0
      vertex -6.61441 3.53547 0
    endloop
  endfacet
  facet normal 0 0 -1
    outer loop
      vertex -7.46389 -0.735128 0
      vertex -5.97111 -0.588102 0
      vertex -7.35589 -1.46318 0
    endloop
  endfacet
  facet normal 0 0 -1
    outer loop
      vertex -5.74164 1.74171 0
      vertex -7.17705 2.17713 0
      vertex -6.9291 2.87012 0
    endloop
  endfacet
  facet normal -0 0 -1
    outer loop
      vertex -5.97111 -0.588102 0
      vertex -7.46389 -0.735128 0
      vertex -6 0 0
    endloop
  endfacet
  facet normal 0 0 -1
    outer loop
      vertex -5.88471 1.17054 0
      vertex -7.35589 1.46318 0
      vertex -7.17705 2.17713 0
    endloop
  endfacet
  facet normal 0 0 -1
    outer loop
      vertex -7.5 0 0
      vertex -6 0 0
      vertex -7.46389 -0.735128 0
    endloop
  endfacet
  facet normal 0 0 -1
    outer loop
      vertex -5.97111 0.588102 0
      vertex -7.46389 0.735128 0
      vertex -7.35589 1.46318 0
    endloop
  endfacet
  facet normal 0 0 -1
    outer loop
      vertex -6 0 0
      vertex -7.5 0 0
      vertex -7.46389 0.735128 0
    endloop
  endfacet
  facet normal 0.97003 0.242986 0
    outer loop
      vertex 7.35589 1.46318 6
      vertex 7.17705 2.17713 0
      vertex 7.17705 2.17713 6
    endloop
  endfacet
  facet normal 0.97003 0.242986 0
    outer loop
      vertex 7.17705 2.17713 0
      vertex 7.35589 1.46318 6
      vertex 7.35589 1.46318 0
    endloop
  endfacet
  facet normal 0.989176 0.146735 0
    outer loop
      vertex 7.46389 0.735128 6
      vertex 7.35589 1.46318 0
      vertex 7.35589 1.46318 6
    endloop
  endfacet
  facet normal 0.989176 0.146735 0
    outer loop
      vertex 7.35589 1.46318 0
      vertex 7.46389 0.735128 6
      vertex 7.46389 0.735128 0
    endloop
  endfacet
  facet normal 0.941547 0.336883 0
    outer loop
      vertex 7.17705 2.17713 6
      vertex 6.9291 2.87012 0
      vertex 6.9291 2.87012 6
    endloop
  endfacet
  facet normal 0.941547 0.336883 0
    outer loop
      vertex 6.9291 2.87012 0
      vertex 7.17705 2.17713 6
      vertex 7.17705 2.17713 0
    endloop
  endfacet
  facet normal 0.803209 0.595698 0
    outer loop
      vertex 6.23602 4.16678 6
      vertex 5.79758 4.75795 0
      vertex 5.79758 4.75795 6
    endloop
  endfacet
  facet normal 0.803209 0.595698 0
    outer loop
      vertex 5.79758 4.75795 0
      vertex 6.23602 4.16678 6
      vertex 6.23602 4.16678 0
    endloop
  endfacet
  facet normal 0.242986 0.97003 -0
    outer loop
      vertex 2.17713 7.17705 0
      vertex 1.46318 7.35589 6
      vertex 2.17713 7.17705 6
    endloop
  endfacet
  facet normal 0.242986 0.97003 0
    outer loop
      vertex 1.46318 7.35589 6
      vertex 2.17713 7.17705 0
      vertex 1.46318 7.35589 0
    endloop
  endfacet
  facet normal 0.336883 0.941547 -0
    outer loop
      vertex 2.87012 6.9291 0
      vertex 2.17713 7.17705 6
      vertex 2.87012 6.9291 6
    endloop
  endfacet
  facet normal 0.336883 0.941547 0
    outer loop
      vertex 2.17713 7.17705 6
      vertex 2.87012 6.9291 0
      vertex 2.17713 7.17705 0
    endloop
  endfacet
  facet normal 0.146735 0.989176 -0
    outer loop
      vertex 1.46318 7.35589 0
      vertex 0.735128 7.46389 6
      vertex 1.46318 7.35589 6
    endloop
  endfacet
  facet normal 0.146735 0.989176 0
    outer loop
      vertex 0.735128 7.46389 6
      vertex 1.46318 7.35589 0
      vertex 0.735128 7.46389 0
    endloop
  endfacet
  facet normal 0.5141 0.85773 -0
    outer loop
      vertex 4.16678 6.23602 0
      vertex 3.53547 6.61441 6
      vertex 4.16678 6.23602 6
    endloop
  endfacet
  facet normal 0.5141 0.85773 0
    outer loop
      vertex 3.53547 6.61441 6
      vertex 4.16678 6.23602 0
      vertex 3.53547 6.61441 0
    endloop
  endfacet
  facet normal 0.671562 0.740949 -0
    outer loop
      vertex 5.3033 5.3033 0
      vertex 4.75795 5.79758 6
      vertex 5.3033 5.3033 6
    endloop
  endfacet
  facet normal 0.671562 0.740949 0
    outer loop
      vertex 4.75795 5.79758 6
      vertex 5.3033 5.3033 0
      vertex 4.75795 5.79758 0
    endloop
  endfacet
  facet normal -0.97003 0.242986 0
    outer loop
      vertex -7.35589 1.46318 0
      vertex -7.17705 2.17713 6
      vertex -7.17705 2.17713 0
    endloop
  endfacet
  facet normal -0.97003 0.242986 0
    outer loop
      vertex -7.17705 2.17713 6
      vertex -7.35589 1.46318 0
      vertex -7.35589 1.46318 6
    endloop
  endfacet
  facet normal -0.803209 0.595698 0
    outer loop
      vertex -6.23602 4.16678 0
      vertex -5.79758 4.75795 6
      vertex -5.79758 4.75795 0
    endloop
  endfacet
  facet normal -0.803209 0.595698 0
    outer loop
      vertex -5.79758 4.75795 6
      vertex -6.23602 4.16678 0
      vertex -6.23602 4.16678 6
    endloop
  endfacet
  facet normal -0.740949 0.671562 0
    outer loop
      vertex -5.79758 4.75795 0
      vertex -5.3033 5.3033 6
      vertex -5.3033 5.3033 0
    endloop
  endfacet
  facet normal -0.740949 0.671562 0
    outer loop
      vertex -5.3033 5.3033 6
      vertex -5.79758 4.75795 0
      vertex -5.79758 4.75795 6
    endloop
  endfacet
  facet normal -0.85773 0.5141 0
    outer loop
      vertex -6.61441 3.53547 0
      vertex -6.23602 4.16678 6
      vertex -6.23602 4.16678 0
    endloop
  endfacet
  facet normal -0.85773 0.5141 0
    outer loop
      vertex -6.23602 4.16678 6
      vertex -6.61441 3.53547 0
      vertex -6.61441 3.53547 6
    endloop
  endfacet
  facet normal -0.941547 0.336883 0
    outer loop
      vertex -7.17705 2.17713 0
      vertex -6.9291 2.87012 6
      vertex -6.9291 2.87012 0
    endloop
  endfacet
  facet normal -0.941547 0.336883 0
    outer loop
      vertex -6.9291 2.87012 6
      vertex -7.17705 2.17713 0
      vertex -7.17705 2.17713 6
    endloop
  endfacet
  facet normal -0.989176 0.146735 0
    outer loop
      vertex -7.46389 0.735128 0
      vertex -7.35589 1.46318 6
      vertex -7.35589 1.46318 0
    endloop
  endfacet
  facet normal -0.989176 0.146735 0
    outer loop
      vertex -7.35589 1.46318 6
      vertex -7.46389 0.735128 0
      vertex -7.46389 0.735128 6
    endloop
  endfacet
  facet normal 0 0 1
    outer loop
      vertex 6 0 6
      vertex 7.5 0 6
      vertex 7.46389 0.735128 6
    endloop
  endfacet
  facet normal 0 0 1
    outer loop
      vertex 5.97111 0.588102 6
      vertex 7.46389 0.735128 6
      vertex 7.35589 1.46318 6
    endloop
  endfacet
  facet normal 0 0 1
    outer loop
      vertex 7.5 0 6
      vertex 6 0 6
      vertex 7.46389 -0.735128 6
    endloop
  endfacet
  facet normal 0 0 1
    outer loop
      vertex 5.88471 1.17054 6
      vertex 7.35589 1.46318 6
      vertex 7.17705 2.17713 6
    endloop
  endfacet
  facet normal -0 0 1
    outer loop
      vertex 5.97111 -0.588102 6
      vertex 7.46389 -0.735128 6
      vertex 6 0 6
    endloop
  endfacet
  facet normal 0 0 1
    outer loop
      vertex 5.74164 1.74171 6
      vertex 7.17705 2.17713 6
      vertex 6.9291 2.87012 6
    endloop
  endfacet
  facet normal 0 0 1
    outer loop
      vertex 7.46389 -0.735128 6
      vertex 5.97111 -0.588102 6
      vertex 7.35589 -1.46318 6
    endloop
  endfacet
  facet normal 0 0 1
    outer loop
      vertex 5.54328 2.2961 6
      vertex 6.9291 2.87012 6
      vertex 6.61441 3.53547 6
    endloop
  endfacet
  facet normal -0 0 1
    outer loop
      vertex 5.88471 -1.17054 6
      vertex 7.35589 -1.46318 6
      vertex 5.97111 -0.588102 6
    endloop
  endfacet
  facet normal 0 0 1
    outer loop
      vertex 5.29153 2.82838 6
      vertex 6.61441 3.53547 6
      vertex 6.23602 4.16678 6
    endloop
  endfacet
  facet normal 0 0 1
    outer loop
      vertex 7.35589 -1.46318 6
      vertex 5.88471 -1.17054 6
      vertex 7.17705 -2.17713 6
    endloop
  endfacet
  facet normal -0 0 1
    outer loop
      vertex 5.74164 -1.74171 6
      vertex 7.17705 -2.17713 6
      vertex 5.88471 -1.17054 6
    endloop
  endfacet
  facet normal 0 0 1
    outer loop
      vertex 7.46389 0.735128 6
      vertex 5.97111 0.588102 6
      vertex 6 0 6
    endloop
  endfacet
  facet normal 0 0 1
    outer loop
      vertex 7.35589 1.46318 6
      vertex 5.88471 1.17054 6
      vertex 5.97111 0.588102 6
    endloop
  endfacet
  facet normal 0 0 1
    outer loop
      vertex 4.98882 3.33342 6
      vertex 6.23602 4.16678 6
      vertex 5.79758 4.75795 6
    endloop
  endfacet
  facet normal 0 0 1
    outer loop
      vertex 7.17705 2.17713 6
      vertex 5.74164 1.74171 6
      vertex 5.88471 1.17054 6
    endloop
  endfacet
  facet normal 0 0 1
    outer loop
      vertex 6.9291 2.87012 6
      vertex 5.54328 2.2961 6
      vertex 5.74164 1.74171 6
    endloop
  endfacet
  facet normal 0 0 1
    outer loop
      vertex 4.63806 3.80636 6
      vertex 5.79758 4.75795 6
      vertex 5.3033 5.3033 6
    endloop
  endfacet
  facet normal 0 0 1
    outer loop
      vertex 6.61441 3.53547 6
      vertex 5.29153 2.82838 6
      vertex 5.54328 2.2961 6
    endloop
  endfacet
  facet normal 0 0 1
    outer loop
      vertex 6.23602 4.16678 6
      vertex 4.98882 3.33342 6
      vertex 5.29153 2.82838 6
    endloop
  endfacet
  facet normal 0 0 1
    outer loop
      vertex 4.24264 4.24264 6
      vertex 5.3033 5.3033 6
      vertex 4.75795 5.79758 6
    endloop
  endfacet
  facet normal 0 0 1
    outer loop
      vertex 5.79758 4.75795 6
      vertex 4.63806 3.80636 6
      vertex 4.98882 3.33342 6
    endloop
  endfacet
  facet normal 0 0 1
    outer loop
      vertex 5.3033 5.3033 6
      vertex 4.24264 4.24264 6
      vertex 4.63806 3.80636 6
    endloop
  endfacet
  facet normal 0 0 1
    outer loop
      vertex 3.80636 4.63806 6
      vertex 4.75795 5.79758 6
      vertex 4.16678 6.23602 6
    endloop
  endfacet
  facet normal 0 0 1
    outer loop
      vertex 4.75795 5.79758 6
      vertex 3.80636 4.63806 6
      vertex 4.24264 4.24264 6
    endloop
  endfacet
  facet normal 0 0 1
    outer loop
      vertex 3.33342 4.98882 6
      vertex 4.16678 6.23602 6
      vertex 3.53547 6.61441 6
    endloop
  endfacet
  facet normal 0 0 1
    outer loop
      vertex 4.16678 6.23602 6
      vertex 3.33342 4.98882 6
      vertex 3.80636 4.63806 6
    endloop
  endfacet
  facet normal 0 0 1
    outer loop
      vertex 2.82838 5.29153 6
      vertex 3.53547 6.61441 6
      vertex 2.87012 6.9291 6
    endloop
  endfacet
  facet normal 0 0 1
    outer loop
      vertex 3.53547 6.61441 6
      vertex 2.82838 5.29153 6
      vertex 3.33342 4.98882 6
    endloop
  endfacet
  facet normal 0 0 1
    outer loop
      vertex 2.87012 6.9291 6
      vertex 2.2961 5.54328 6
      vertex 2.82838 5.29153 6
    endloop
  endfacet
  facet normal 0 0 1
    outer loop
      vertex 2.17713 7.17705 6
      vertex 2.2961 5.54328 6
      vertex 2.87012 6.9291 6
    endloop
  endfacet
  facet normal 0 0 1
    outer loop
      vertex 2.17713 7.17705 6
      vertex 1.74171 5.74164 6
      vertex 2.2961 5.54328 6
    endloop
  endfacet
  facet normal 0 0 1
    outer loop
      vertex 1.46318 7.35589 6
      vertex 1.74171 5.74164 6
      vertex 2.17713 7.17705 6
    endloop
  endfacet
  facet normal 0 0 1
    outer loop
      vertex 1.46318 7.35589 6
      vertex 1.17054 5.88471 6
      vertex 1.74171 5.74164 6
    endloop
  endfacet
  facet normal 0 0 1
    outer loop
      vertex 0.735128 7.46389 6
      vertex 1.17054 5.88471 6
      vertex 1.46318 7.35589 6
    endloop
  endfacet
  facet normal 0 0 1
    outer loop
      vertex 0.735128 7.46389 6
      vertex 0.588102 5.97111 6
      vertex 1.17054 5.88471 6
    endloop
  endfacet
  facet normal 0 0 1
    outer loop
      vertex 0 7.5 6
      vertex 0.588102 5.97111 6
      vertex 0.735128 7.46389 6
    endloop
  endfacet
  facet normal 0 0 1
    outer loop
      vertex 0 7.5 6
      vertex 0 6 6
      vertex 0.588102 5.97111 6
    endloop
  endfacet
  facet normal 0 0 1
    outer loop
      vertex 0 7.5 6
      vertex -0.588102 5.97111 6
      vertex 0 6 6
    endloop
  endfacet
  facet normal -0 0 1
    outer loop
      vertex -0.735128 7.46389 6
      vertex -0.588102 5.97111 6
      vertex 0 7.5 6
    endloop
  endfacet
  facet normal 0 0 1
    outer loop
      vertex -0.735128 7.46389 6
      vertex -1.17054 5.88471 6
      vertex -0.588102 5.97111 6
    endloop
  endfacet
  facet normal -0 0 1
    outer loop
      vertex -1.46318 7.35589 6
      vertex -1.17054 5.88471 6
      vertex -0.735128 7.46389 6
    endloop
  endfacet
  facet normal 0 0 1
    outer loop
      vertex -1.46318 7.35589 6
      vertex -1.74171 5.74164 6
      vertex -1.17054 5.88471 6
    endloop
  endfacet
  facet normal -0 0 1
    outer loop
      vertex -2.17713 7.17705 6
      vertex -1.74171 5.74164 6
      vertex -1.46318 7.35589 6
    endloop
  endfacet
  facet normal 0 0 1
    outer loop
      vertex -2.17713 7.17705 6
      vertex -2.2961 5.54328 6
      vertex -1.74171 5.74164 6
    endloop
  endfacet
  facet normal -0 0 1
    outer loop
      vertex -2.87012 6.9291 6
      vertex -2.2961 5.54328 6
      vertex -2.17713 7.17705 6
    endloop
  endfacet
  facet normal 0 0 1
    outer loop
      vertex -2.2961 5.54328 6
      vertex -2.87012 6.9291 6
      vertex -2.82838 5.29153 6
    endloop
  endfacet
  facet normal -0 0 1
    outer loop
      vertex -3.53547 6.61441 6
      vertex -2.82838 5.29153 6
      vertex -2.87012 6.9291 6
    endloop
  endfacet
  facet normal 0 0 1
    outer loop
      vertex -2.82838 5.29153 6
      vertex -3.53547 6.61441 6
      vertex -3.33342 4.98882 6
    endloop
  endfacet
  facet normal -0 0 1
    outer loop
      vertex -4.16678 6.23602 6
      vertex -3.33342 4.98882 6
      vertex -3.53547 6.61441 6
    endloop
  endfacet
  facet normal 0 0 1
    outer loop
      vertex -3.33342 4.98882 6
      vertex -4.16678 6.23602 6
      vertex -3.80636 4.63806 6
    endloop
  endfacet
  facet normal -0 0 1
    outer loop
      vertex -4.75795 5.79758 6
      vertex -3.80636 4.63806 6
      vertex -4.16678 6.23602 6
    endloop
  endfacet
  facet normal 0 0 1
    outer loop
      vertex -3.80636 4.63806 6
      vertex -4.75795 5.79758 6
      vertex -4.24264 4.24264 6
    endloop
  endfacet
  facet normal -0 0 1
    outer loop
      vertex -5.3033 5.3033 6
      vertex -4.24264 4.24264 6
      vertex -4.75795 5.79758 6
    endloop
  endfacet
  facet normal 0 0 1
    outer loop
      vertex -4.24264 4.24264 6
      vertex -5.3033 5.3033 6
      vertex -4.63806 3.80636 6
    endloop
  endfacet
  facet normal -0 0 1
    outer loop
      vertex -5.79758 4.75795 6
      vertex -4.63806 3.80636 6
      vertex -5.3033 5.3033 6
    endloop
  endfacet
  facet normal 0 0 1
    outer loop
      vertex -4.63806 3.80636 6
      vertex -5.79758 4.75795 6
      vertex -4.98882 3.33342 6
    endloop
  endfacet
  facet normal -0 0 1
    outer loop
      vertex -6.23602 4.16678 6
      vertex -4.98882 3.33342 6
      vertex -5.79758 4.75795 6
    endloop
  endfacet
  facet normal 0 0 1
    outer loop
      vertex -4.98882 3.33342 6
      vertex -6.23602 4.16678 6
      vertex -5.29153 2.82838 6
    endloop
  endfacet
  facet normal -0 0 1
    outer loop
      vertex -6.61441 3.53547 6
      vertex -5.29153 2.82838 6
      vertex -6.23602 4.16678 6
    endloop
  endfacet
  facet normal 0 0 1
    outer loop
      vertex -5.29153 2.82838 6
      vertex -6.61441 3.53547 6
      vertex -5.54328 2.2961 6
    endloop
  endfacet
  facet normal -0 0 1
    outer loop
      vertex -6.9291 2.87012 6
      vertex -5.54328 2.2961 6
      vertex -6.61441 3.53547 6
    endloop
  endfacet
  facet normal 0 0 1
    outer loop
      vertex -5.54328 2.2961 6
      vertex -6.9291 2.87012 6
      vertex -5.74164 1.74171 6
    endloop
  endfacet
  facet normal -0 0 1
    outer loop
      vertex -7.17705 2.17713 6
      vertex -5.74164 1.74171 6
      vertex -6.9291 2.87012 6
    endloop
  endfacet
  facet normal 0 0 1
    outer loop
      vertex 7.17705 -2.17713 6
      vertex 5.74164 -1.74171 6
      vertex 6.9291 -2.87012 6
    endloop
  endfacet
  facet normal -0 0 1
    outer loop
      vertex 5.54328 -2.2961 6
      vertex 6.9291 -2.87012 6
      vertex 5.74164 -1.74171 6
    endloop
  endfacet
  facet normal 0 0 1
    outer loop
      vertex 6.9291 -2.87012 6
      vertex 5.54328 -2.2961 6
      vertex 6.61441 -3.53547 6
    endloop
  endfacet
  facet normal -0 0 1
    outer loop
      vertex 5.29153 -2.82838 6
      vertex 6.61441 -3.53547 6
      vertex 5.54328 -2.2961 6
    endloop
  endfacet
  facet normal 0 0 1
    outer loop
      vertex 6.61441 -3.53547 6
      vertex 5.29153 -2.82838 6
      vertex 6.23602 -4.16678 6
    endloop
  endfacet
  facet normal -0 0 1
    outer loop
      vertex 4.98882 -3.33342 6
      vertex 6.23602 -4.16678 6
      vertex 5.29153 -2.82838 6
    endloop
  endfacet
  facet normal 0 0 1
    outer loop
      vertex 6.23602 -4.16678 6
      vertex 4.98882 -3.33342 6
      vertex 5.79758 -4.75795 6
    endloop
  endfacet
  facet normal -0 0 1
    outer loop
      vertex 4.63806 -3.80636 6
      vertex 5.79758 -4.75795 6
      vertex 4.98882 -3.33342 6
    endloop
  endfacet
  facet normal 0 0 1
    outer loop
      vertex 5.79758 -4.75795 6
      vertex 4.63806 -3.80636 6
      vertex 5.3033 -5.3033 6
    endloop
  endfacet
  facet normal -0 0 1
    outer loop
      vertex 4.24264 -4.24264 6
      vertex 5.3033 -5.3033 6
      vertex 4.63806 -3.80636 6
    endloop
  endfacet
  facet normal 0 0 1
    outer loop
      vertex 5.3033 -5.3033 6
      vertex 4.24264 -4.24264 6
      vertex 4.75795 -5.79758 6
    endloop
  endfacet
  facet normal -0 0 1
    outer loop
      vertex 3.80636 -4.63806 6
      vertex 4.75795 -5.79758 6
      vertex 4.24264 -4.24264 6
    endloop
  endfacet
  facet normal 0 0 1
    outer loop
      vertex 4.75795 -5.79758 6
      vertex 3.80636 -4.63806 6
      vertex 4.16678 -6.23602 6
    endloop
  endfacet
  facet normal -0 0 1
    outer loop
      vertex 3.33342 -4.98882 6
      vertex 4.16678 -6.23602 6
      vertex 3.80636 -4.63806 6
    endloop
  endfacet
  facet normal 0 0 1
    outer loop
      vertex 4.16678 -6.23602 6
      vertex 3.33342 -4.98882 6
      vertex 3.53547 -6.61441 6
    endloop
  endfacet
  facet normal -0 0 1
    outer loop
      vertex 2.82838 -5.29153 6
      vertex 3.53547 -6.61441 6
      vertex 3.33342 -4.98882 6
    endloop
  endfacet
  facet normal 0 0 1
    outer loop
      vertex 3.53547 -6.61441 6
      vertex 2.82838 -5.29153 6
      vertex 2.87012 -6.9291 6
    endloop
  endfacet
  facet normal -0 0 1
    outer loop
      vertex 2.2961 -5.54328 6
      vertex 2.87012 -6.9291 6
      vertex 2.82838 -5.29153 6
    endloop
  endfacet
  facet normal 0 0 1
    outer loop
      vertex 2.2961 -5.54328 6
      vertex 2.17713 -7.17705 6
      vertex 2.87012 -6.9291 6
    endloop
  endfacet
  facet normal -0 0 1
    outer loop
      vertex 1.74171 -5.74164 6
      vertex 2.17713 -7.17705 6
      vertex 2.2961 -5.54328 6
    endloop
  endfacet
  facet normal 0 0 1
    outer loop
      vertex 1.74171 -5.74164 6
      vertex 1.46318 -7.35589 6
      vertex 2.17713 -7.17705 6
    endloop
  endfacet
  facet normal -0 0 1
    outer loop
      vertex 1.17054 -5.88471 6
      vertex 1.46318 -7.35589 6
      vertex 1.74171 -5.74164 6
    endloop
  endfacet
  facet normal 0 0 1
    outer loop
      vertex 1.17054 -5.88471 6
      vertex 0.735128 -7.46389 6
      vertex 1.46318 -7.35589 6
    endloop
  endfacet
  facet normal -0 0 1
    outer loop
      vertex 0.588102 -5.97111 6
      vertex 0.735128 -7.46389 6
      vertex 1.17054 -5.88471 6
    endloop
  endfacet
  facet normal -0 0 1
    outer loop
      vertex 0 -6 6
      vertex 0.735128 -7.46389 6
      vertex 0.588102 -5.97111 6
    endloop
  endfacet
  facet normal 0 0 1
    outer loop
      vertex 0 -6 6
      vertex 0 -7.5 6
      vertex 0.735128 -7.46389 6
    endloop
  endfacet
  facet normal 0 0 1
    outer loop
      vertex -0.588102 -5.97111 6
      vertex 0 -7.5 6
      vertex 0 -6 6
    endloop
  endfacet
  facet normal 0 0 1
    outer loop
      vertex -0.588102 -5.97111 6
      vertex -0.735128 -7.46389 6
      vertex 0 -7.5 6
    endloop
  endfacet
  facet normal 0 0 1
    outer loop
      vertex -1.17054 -5.88471 6
      vertex -0.735128 -7.46389 6
      vertex -0.588102 -5.97111 6
    endloop
  endfacet
  facet normal 0 0 1
    outer loop
      vertex -1.17054 -5.88471 6
      vertex -1.46318 -7.35589 6
      vertex -0.735128 -7.46389 6
    endloop
  endfacet
  facet normal 0 0 1
    outer loop
      vertex -1.74171 -5.74164 6
      vertex -1.46318 -7.35589 6
      vertex -1.17054 -5.88471 6
    endloop
  endfacet
  facet normal 0 0 1
    outer loop
      vertex -1.74171 -5.74164 6
      vertex -2.17713 -7.17705 6
      vertex -1.46318 -7.35589 6
    endloop
  endfacet
  facet normal 0 0 1
    outer loop
      vertex -2.2961 -5.54328 6
      vertex -2.17713 -7.17705 6
      vertex -1.74171 -5.74164 6
    endloop
  endfacet
  facet normal 0 0 1
    outer loop
      vertex -2.87012 -6.9291 6
      vertex -2.2961 -5.54328 6
      vertex -2.82838 -5.29153 6
    endloop
  endfacet
  facet normal 0 0 1
    outer loop
      vertex -2.2961 -5.54328 6
      vertex -2.87012 -6.9291 6
      vertex -2.17713 -7.17705 6
    endloop
  endfacet
  facet normal 0 0 1
    outer loop
      vertex -3.53547 -6.61441 6
      vertex -2.82838 -5.29153 6
      vertex -3.33342 -4.98882 6
    endloop
  endfacet
  facet normal 0 0 1
    outer loop
      vertex -2.82838 -5.29153 6
      vertex -3.53547 -6.61441 6
      vertex -2.87012 -6.9291 6
    endloop
  endfacet
  facet normal 0 0 1
    outer loop
      vertex -4.16678 -6.23602 6
      vertex -3.33342 -4.98882 6
      vertex -3.80636 -4.63806 6
    endloop
  endfacet
  facet normal 0 0 1
    outer loop
      vertex -3.33342 -4.98882 6
      vertex -4.16678 -6.23602 6
      vertex -3.53547 -6.61441 6
    endloop
  endfacet
  facet normal 0 0 1
    outer loop
      vertex -4.75795 -5.79758 6
      vertex -3.80636 -4.63806 6
      vertex -4.24264 -4.24264 6
    endloop
  endfacet
  facet normal 0 0 1
    outer loop
      vertex -5.3033 -5.3033 6
      vertex -4.24264 -4.24264 6
      vertex -4.63806 -3.80636 6
    endloop
  endfacet
  facet normal 0 0 1
    outer loop
      vertex -3.80636 -4.63806 6
      vertex -4.75795 -5.79758 6
      vertex -4.16678 -6.23602 6
    endloop
  endfacet
  facet normal 0 0 1
    outer loop
      vertex -5.79758 -4.75795 6
      vertex -4.63806 -3.80636 6
      vertex -4.98882 -3.33342 6
    endloop
  endfacet
  facet normal 0 0 1
    outer loop
      vertex -6.23602 -4.16678 6
      vertex -4.98882 -3.33342 6
      vertex -5.29153 -2.82838 6
    endloop
  endfacet
  facet normal 0 0 1
    outer loop
      vertex -4.24264 -4.24264 6
      vertex -5.3033 -5.3033 6
      vertex -4.75795 -5.79758 6
    endloop
  endfacet
  facet normal 0 0 1
    outer loop
      vertex -6.61441 -3.53547 6
      vertex -5.29153 -2.82838 6
      vertex -5.54328 -2.2961 6
    endloop
  endfacet
  facet normal 0 0 1
    outer loop
      vertex -6.9291 -2.87012 6
      vertex -5.54328 -2.2961 6
      vertex -5.74164 -1.74171 6
    endloop
  endfacet
  facet normal 0 0 1
    outer loop
      vertex -4.63806 -3.80636 6
      vertex -5.79758 -4.75795 6
      vertex -5.3033 -5.3033 6
    endloop
  endfacet
  facet normal 0 0 1
    outer loop
      vertex -7.17705 -2.17713 6
      vertex -5.74164 -1.74171 6
      vertex -5.88471 -1.17054 6
    endloop
  endfacet
  facet normal 0 0 1
    outer loop
      vertex -7.35589 -1.46318 6
      vertex -5.88471 -1.17054 6
      vertex -5.97111 -0.588102 6
    endloop
  endfacet
  facet normal 0 0 1
    outer loop
      vertex -7.46389 -0.735128 6
      vertex -5.97111 -0.588102 6
      vertex -6 0 6
    endloop
  endfacet
  facet normal 0 0 1
    outer loop
      vertex -5.74164 1.74171 6
      vertex -7.17705 2.17713 6
      vertex -5.88471 1.17054 6
    endloop
  endfacet
  facet normal 0 0 1
    outer loop
      vertex -4.98882 -3.33342 6
      vertex -6.23602 -4.16678 6
      vertex -5.79758 -4.75795 6
    endloop
  endfacet
  facet normal -0 0 1
    outer loop
      vertex -7.35589 1.46318 6
      vertex -5.88471 1.17054 6
      vertex -7.17705 2.17713 6
    endloop
  endfacet
  facet normal 0 0 1
    outer loop
      vertex -5.29153 -2.82838 6
      vertex -6.61441 -3.53547 6
      vertex -6.23602 -4.16678 6
    endloop
  endfacet
  facet normal 0 0 1
    outer loop
      vertex -5.88471 1.17054 6
      vertex -7.35589 1.46318 6
      vertex -5.97111 0.588102 6
    endloop
  endfacet
  facet normal 0 0 1
    outer loop
      vertex -5.54328 -2.2961 6
      vertex -6.9291 -2.87012 6
      vertex -6.61441 -3.53547 6
    endloop
  endfacet
  facet normal -0 0 1
    outer loop
      vertex -7.46389 0.735128 6
      vertex -5.97111 0.588102 6
      vertex -7.35589 1.46318 6
    endloop
  endfacet
  facet normal 0 0 1
    outer loop
      vertex -5.74164 -1.74171 6
      vertex -7.17705 -2.17713 6
      vertex -6.9291 -2.87012 6
    endloop
  endfacet
  facet normal 0 0 1
    outer loop
      vertex -5.97111 0.588102 6
      vertex -7.46389 0.735128 6
      vertex -6 0 6
    endloop
  endfacet
  facet normal 0 0 1
    outer loop
      vertex -5.88471 -1.17054 6
      vertex -7.35589 -1.46318 6
      vertex -7.17705 -2.17713 6
    endloop
  endfacet
  facet normal 0 0 1
    outer loop
      vertex -7.5 0 6
      vertex -6 0 6
      vertex -7.46389 0.735128 6
    endloop
  endfacet
  facet normal 0 0 1
    outer loop
      vertex -5.97111 -0.588102 6
      vertex -7.46389 -0.735128 6
      vertex -7.35589 -1.46318 6
    endloop
  endfacet
  facet normal 0 0 1
    outer loop
      vertex -6 0 6
      vertex -7.5 0 6
      vertex -7.46389 -0.735128 6
    endloop
  endfacet
  facet normal -0.5141 0.85773 0
    outer loop
      vertex -3.53547 6.61441 0
      vertex -4.16678 6.23602 6
      vertex -3.53547 6.61441 6
    endloop
  endfacet
  facet normal -0.5141 0.85773 0
    outer loop
      vertex -4.16678 6.23602 6
      vertex -3.53547 6.61441 0
      vertex -4.16678 6.23602 0
    endloop
  endfacet
  facet normal -0.427558 0.903988 0
    outer loop
      vertex -2.87012 6.9291 0
      vertex -3.53547 6.61441 6
      vertex -2.87012 6.9291 6
    endloop
  endfacet
  facet normal -0.427558 0.903988 0
    outer loop
      vertex -3.53547 6.61441 6
      vertex -2.87012 6.9291 0
      vertex -3.53547 6.61441 0
    endloop
  endfacet
  facet normal -0.595698 0.803209 0
    outer loop
      vertex -4.16678 6.23602 0
      vertex -4.75795 5.79758 6
      vertex -4.16678 6.23602 6
    endloop
  endfacet
  facet normal -0.595698 0.803209 0
    outer loop
      vertex -4.75795 5.79758 6
      vertex -4.16678 6.23602 0
      vertex -4.75795 5.79758 0
    endloop
  endfacet
  facet normal -0.242986 0.97003 0
    outer loop
      vertex -1.46318 7.35589 0
      vertex -2.17713 7.17705 6
      vertex -1.46318 7.35589 6
    endloop
  endfacet
  facet normal -0.242986 0.97003 0
    outer loop
      vertex -2.17713 7.17705 6
      vertex -1.46318 7.35589 0
      vertex -2.17713 7.17705 0
    endloop
  endfacet
  facet normal -0.0490615 0.998796 0
    outer loop
      vertex 0 7.5 0
      vertex -0.735128 7.46389 6
      vertex 0 7.5 6
    endloop
  endfacet
  facet normal -0.0490615 0.998796 0
    outer loop
      vertex -0.735128 7.46389 6
      vertex 0 7.5 0
      vertex -0.735128 7.46389 0
    endloop
  endfacet
  facet normal 0.998796 -0.0490615 0
    outer loop
      vertex 7.46389 -0.735128 6
      vertex 7.5 0 0
      vertex 7.5 0 6
    endloop
  endfacet
  facet normal 0.998796 -0.0490615 0
    outer loop
      vertex 7.5 0 0
      vertex 7.46389 -0.735128 6
      vertex 7.46389 -0.735128 0
    endloop
  endfacet
  facet normal 0.0490615 -0.998796 0
    outer loop
      vertex 0 -7.5 0
      vertex 0.735128 -7.46389 6
      vertex 0 -7.5 6
    endloop
  endfacet
  facet normal 0.0490615 -0.998796 0
    outer loop
      vertex 0.735128 -7.46389 6
      vertex 0 -7.5 0
      vertex 0.735128 -7.46389 0
    endloop
  endfacet
  facet normal 0.242986 -0.97003 0
    outer loop
      vertex 1.46318 -7.35589 0
      vertex 2.17713 -7.17705 6
      vertex 1.46318 -7.35589 6
    endloop
  endfacet
  facet normal 0.242986 -0.97003 0
    outer loop
      vertex 2.17713 -7.17705 6
      vertex 1.46318 -7.35589 0
      vertex 2.17713 -7.17705 0
    endloop
  endfacet
  facet normal 0.595698 -0.803209 0
    outer loop
      vertex 4.16678 -6.23602 0
      vertex 4.75795 -5.79758 6
      vertex 4.16678 -6.23602 6
    endloop
  endfacet
  facet normal 0.595698 -0.803209 0
    outer loop
      vertex 4.75795 -5.79758 6
      vertex 4.16678 -6.23602 0
      vertex 4.75795 -5.79758 0
    endloop
  endfacet
  facet normal 0.427558 -0.903988 0
    outer loop
      vertex 2.87012 -6.9291 0
      vertex 3.53547 -6.61441 6
      vertex 2.87012 -6.9291 6
    endloop
  endfacet
  facet normal 0.427558 -0.903988 0
    outer loop
      vertex 3.53547 -6.61441 6
      vertex 2.87012 -6.9291 0
      vertex 3.53547 -6.61441 0
    endloop
  endfacet
  facet normal 0.740949 -0.671562 0
    outer loop
      vertex 5.3033 -5.3033 6
      vertex 5.79758 -4.75795 0
      vertex 5.79758 -4.75795 6
    endloop
  endfacet
  facet normal 0.740949 -0.671562 0
    outer loop
      vertex 5.79758 -4.75795 0
      vertex 5.3033 -5.3033 6
      vertex 5.3033 -5.3033 0
    endloop
  endfacet
  facet normal 0.85773 -0.5141 0
    outer loop
      vertex 6.23602 -4.16678 6
      vertex 6.61441 -3.53547 0
      vertex 6.61441 -3.53547 6
    endloop
  endfacet
  facet normal 0.85773 -0.5141 0
    outer loop
      vertex 6.61441 -3.53547 0
      vertex 6.23602 -4.16678 6
      vertex 6.23602 -4.16678 0
    endloop
  endfacet
  facet normal -0.671562 -0.740949 0
    outer loop
      vertex -5.3033 -5.3033 0
      vertex -4.75795 -5.79758 6
      vertex -5.3033 -5.3033 6
    endloop
  endfacet
  facet normal -0.671562 -0.740949 -0
    outer loop
      vertex -4.75795 -5.79758 6
      vertex -5.3033 -5.3033 0
      vertex -4.75795 -5.79758 0
    endloop
  endfacet
  facet normal -0.5141 -0.85773 0
    outer loop
      vertex -4.16678 -6.23602 0
      vertex -3.53547 -6.61441 6
      vertex -4.16678 -6.23602 6
    endloop
  endfacet
  facet normal -0.5141 -0.85773 -0
    outer loop
      vertex -3.53547 -6.61441 6
      vertex -4.16678 -6.23602 0
      vertex -3.53547 -6.61441 0
    endloop
  endfacet
  facet normal -0.336883 -0.941547 0
    outer loop
      vertex -2.87012 -6.9291 0
      vertex -2.17713 -7.17705 6
      vertex -2.87012 -6.9291 6
    endloop
  endfacet
  facet normal -0.336883 -0.941547 -0
    outer loop
      vertex -2.17713 -7.17705 6
      vertex -2.87012 -6.9291 0
      vertex -2.17713 -7.17705 0
    endloop
  endfacet
  facet normal -0.146735 -0.989176 0
    outer loop
      vertex -1.46318 -7.35589 0
      vertex -0.735128 -7.46389 6
      vertex -1.46318 -7.35589 6
    endloop
  endfacet
  facet normal -0.146735 -0.989176 -0
    outer loop
      vertex -0.735128 -7.46389 6
      vertex -1.46318 -7.35589 0
      vertex -0.735128 -7.46389 0
    endloop
  endfacet
  facet normal -0.903988 -0.427558 0
    outer loop
      vertex -6.61441 -3.53547 0
      vertex -6.9291 -2.87012 6
      vertex -6.9291 -2.87012 0
    endloop
  endfacet
  facet normal -0.903988 -0.427558 0
    outer loop
      vertex -6.9291 -2.87012 6
      vertex -6.61441 -3.53547 0
      vertex -6.61441 -3.53547 6
    endloop
  endfacet
  facet normal -0.803209 -0.595698 0
    outer loop
      vertex -5.79758 -4.75795 0
      vertex -6.23602 -4.16678 6
      vertex -6.23602 -4.16678 0
    endloop
  endfacet
  facet normal -0.803209 -0.595698 0
    outer loop
      vertex -6.23602 -4.16678 6
      vertex -5.79758 -4.75795 0
      vertex -5.79758 -4.75795 6
    endloop
  endfacet
  facet normal -0.97003 -0.242986 0
    outer loop
      vertex -7.17705 -2.17713 0
      vertex -7.35589 -1.46318 6
      vertex -7.35589 -1.46318 0
    endloop
  endfacet
  facet normal -0.97003 -0.242986 0
    outer loop
      vertex -7.35589 -1.46318 6
      vertex -7.17705 -2.17713 0
      vertex -7.17705 -2.17713 6
    endloop
  endfacet
  facet normal -0.998796 -0.0490615 0
    outer loop
      vertex -7.46389 -0.735128 0
      vertex -7.5 0 6
      vertex -7.5 0 0
    endloop
  endfacet
  facet normal -0.998796 -0.0490615 0
    outer loop
      vertex -7.5 0 6
      vertex -7.46389 -0.735128 0
      vertex -7.46389 -0.735128 6
    endloop
  endfacet
  facet normal 0.146735 -0.989176 0
    outer loop
      vertex 0.735128 -7.46389 0
      vertex 1.46318 -7.35589 6
      vertex 0.735128 -7.46389 6
    endloop
  endfacet
  facet normal 0.146735 -0.989176 0
    outer loop
      vertex 1.46318 -7.35589 6
      vertex 0.735128 -7.46389 0
      vertex 1.46318 -7.35589 0
    endloop
  endfacet
  facet normal 0.336883 -0.941547 0
    outer loop
      vertex 2.17713 -7.17705 0
      vertex 2.87012 -6.9291 6
      vertex 2.17713 -7.17705 6
    endloop
  endfacet
  facet normal 0.336883 -0.941547 0
    outer loop
      vertex 2.87012 -6.9291 6
      vertex 2.17713 -7.17705 0
      vertex 2.87012 -6.9291 0
    endloop
  endfacet
  facet normal 0.671562 -0.740949 0
    outer loop
      vertex 4.75795 -5.79758 0
      vertex 5.3033 -5.3033 6
      vertex 4.75795 -5.79758 6
    endloop
  endfacet
  facet normal 0.671562 -0.740949 0
    outer loop
      vertex 5.3033 -5.3033 6
      vertex 4.75795 -5.79758 0
      vertex 5.3033 -5.3033 0
    endloop
  endfacet
  facet normal 0.5141 -0.85773 0
    outer loop
      vertex 3.53547 -6.61441 0
      vertex 4.16678 -6.23602 6
      vertex 3.53547 -6.61441 6
    endloop
  endfacet
  facet normal 0.5141 -0.85773 0
    outer loop
      vertex 4.16678 -6.23602 6
      vertex 3.53547 -6.61441 0
      vertex 4.16678 -6.23602 0
    endloop
  endfacet
  facet normal 0.803209 -0.595698 0
    outer loop
      vertex 5.79758 -4.75795 6
      vertex 6.23602 -4.16678 0
      vertex 6.23602 -4.16678 6
    endloop
  endfacet
  facet normal 0.803209 -0.595698 0
    outer loop
      vertex 6.23602 -4.16678 0
      vertex 5.79758 -4.75795 6
      vertex 5.79758 -4.75795 0
    endloop
  endfacet
  facet normal 0.903988 -0.427558 0
    outer loop
      vertex 6.61441 -3.53547 6
      vertex 6.9291 -2.87012 0
      vertex 6.9291 -2.87012 6
    endloop
  endfacet
  facet normal 0.903988 -0.427558 0
    outer loop
      vertex 6.9291 -2.87012 0
      vertex 6.61441 -3.53547 6
      vertex 6.61441 -3.53547 0
    endloop
  endfacet
  facet normal 0.989176 -0.146735 0
    outer loop
      vertex 7.35589 -1.46318 6
      vertex 7.46389 -0.735128 0
      vertex 7.46389 -0.735128 6
    endloop
  endfacet
  facet normal 0.989176 -0.146735 0
    outer loop
      vertex 7.46389 -0.735128 0
      vertex 7.35589 -1.46318 6
      vertex 7.35589 -1.46318 0
    endloop
  endfacet
  facet normal 0.97003 -0.242986 0
    outer loop
      vertex 7.17705 -2.17713 6
      vertex 7.35589 -1.46318 0
      vertex 7.35589 -1.46318 6
    endloop
  endfacet
  facet normal 0.97003 -0.242986 0
    outer loop
      vertex 7.35589 -1.46318 0
      vertex 7.17705 -2.17713 6
      vertex 7.17705 -2.17713 0
    endloop
  endfacet
  facet normal -0.595698 -0.803209 0
    outer loop
      vertex -4.75795 -5.79758 0
      vertex -4.16678 -6.23602 6
      vertex -4.75795 -5.79758 6
    endloop
  endfacet
  facet normal -0.595698 -0.803209 -0
    outer loop
      vertex -4.16678 -6.23602 6
      vertex -4.75795 -5.79758 0
      vertex -4.16678 -6.23602 0
    endloop
  endfacet
  facet normal -0.427558 -0.903988 0
    outer loop
      vertex -3.53547 -6.61441 0
      vertex -2.87012 -6.9291 6
      vertex -3.53547 -6.61441 6
    endloop
  endfacet
  facet normal -0.427558 -0.903988 -0
    outer loop
      vertex -2.87012 -6.9291 6
      vertex -3.53547 -6.61441 0
      vertex -2.87012 -6.9291 0
    endloop
  endfacet
  facet normal -0.242986 -0.97003 0
    outer loop
      vertex -2.17713 -7.17705 0
      vertex -1.46318 -7.35589 6
      vertex -2.17713 -7.17705 6
    endloop
  endfacet
  facet normal -0.242986 -0.97003 -0
    outer loop
      vertex -1.46318 -7.35589 6
      vertex -2.17713 -7.17705 0
      vertex -1.46318 -7.35589 0
    endloop
  endfacet
  facet normal -0.0490615 -0.998796 0
    outer loop
      vertex -0.735128 -7.46389 0
      vertex 0 -7.5 6
      vertex -0.735128 -7.46389 6
    endloop
  endfacet
  facet normal -0.0490615 -0.998796 -0
    outer loop
      vertex 0 -7.5 6
      vertex -0.735128 -7.46389 0
      vertex 0 -7.5 0
    endloop
  endfacet
  facet normal -0.85773 -0.5141 0
    outer loop
      vertex -6.23602 -4.16678 0
      vertex -6.61441 -3.53547 6
      vertex -6.61441 -3.53547 0
    endloop
  endfacet
  facet normal -0.85773 -0.5141 0
    outer loop
      vertex -6.61441 -3.53547 6
      vertex -6.23602 -4.16678 0
      vertex -6.23602 -4.16678 6
    endloop
  endfacet
  facet normal -0.740949 -0.671562 0
    outer loop
      vertex -5.3033 -5.3033 0
      vertex -5.79758 -4.75795 6
      vertex -5.79758 -4.75795 0
    endloop
  endfacet
  facet normal -0.740949 -0.671562 0
    outer loop
      vertex -5.79758 -4.75795 6
      vertex -5.3033 -5.3033 0
      vertex -5.3033 -5.3033 6
    endloop
  endfacet
  facet normal -0.941547 -0.336883 0
    outer loop
      vertex -6.9291 -2.87012 0
      vertex -7.17705 -2.17713 6
      vertex -7.17705 -2.17713 0
    endloop
  endfacet
  facet normal -0.941547 -0.336883 0
    outer loop
      vertex -7.17705 -2.17713 6
      vertex -6.9291 -2.87012 0
      vertex -6.9291 -2.87012 6
    endloop
  endfacet
  facet normal -0.989176 -0.146735 0
    outer loop
      vertex -7.35589 -1.46318 0
      vertex -7.46389 -0.735128 6
      vertex -7.46389 -0.735128 0
    endloop
  endfacet
  facet normal -0.989176 -0.146735 0
    outer loop
      vertex -7.46389 -0.735128 6
      vertex -7.35589 -1.46318 0
      vertex -7.35589 -1.46318 6
    endloop
  endfacet
  facet normal 0.941547 -0.336883 0
    outer loop
      vertex 6.9291 -2.87012 6
      vertex 7.17705 -2.17713 0
      vertex 7.17705 -2.17713 6
    endloop
  endfacet
  facet normal 0.941547 -0.336883 0
    outer loop
      vertex 7.17705 -2.17713 0
      vertex 6.9291 -2.87012 6
      vertex 6.9291 -2.87012 0
    endloop
  endfacet
  facet normal -0.998796 -0.049065 0
    outer loop
      vertex 6 0 0
      vertex 5.97111 0.588102 6
      vertex 5.97111 0.588102 0
    endloop
  endfacet
  facet normal -0.998796 -0.049065 0
    outer loop
      vertex 5.97111 0.588102 6
      vertex 6 0 0
      vertex 6 0 6
    endloop
  endfacet
  facet normal 0.998796 -0.049065 0
    outer loop
      vertex -6 0 6
      vertex -5.97111 0.588102 0
      vertex -5.97111 0.588102 6
    endloop
  endfacet
  facet normal 0.998796 -0.049065 0
    outer loop
      vertex -5.97111 0.588102 0
      vertex -6 0 6
      vertex -6 0 0
    endloop
  endfacet
  facet normal -0.049065 -0.998796 0
    outer loop
      vertex 0 6 0
      vertex 0.588102 5.97111 6
      vertex 0 6 6
    endloop
  endfacet
  facet normal -0.049065 -0.998796 -0
    outer loop
      vertex 0.588102 5.97111 6
      vertex 0 6 0
      vertex 0.588102 5.97111 0
    endloop
  endfacet
  facet normal 0.049065 0.998796 -0
    outer loop
      vertex 0 -6 0
      vertex -0.588102 -5.97111 6
      vertex 0 -6 6
    endloop
  endfacet
  facet normal 0.049065 0.998796 0
    outer loop
      vertex -0.588102 -5.97111 6
      vertex 0 -6 0
      vertex -0.588102 -5.97111 0
    endloop
  endfacet
  facet normal 0.740952 0.671558 0
    outer loop
      vertex -4.24264 -4.24264 6
      vertex -4.63806 -3.80636 0
      vertex -4.63806 -3.80636 6
    endloop
  endfacet
  facet normal 0.740952 0.671558 0
    outer loop
      vertex -4.63806 -3.80636 0
      vertex -4.24264 -4.24264 6
      vertex -4.24264 -4.24264 0
    endloop
  endfacet
  facet normal -0.740952 -0.671558 0
    outer loop
      vertex 4.63806 3.80636 0
      vertex 4.24264 4.24264 6
      vertex 4.24264 4.24264 0
    endloop
  endfacet
  facet normal -0.740952 -0.671558 0
    outer loop
      vertex 4.24264 4.24264 6
      vertex 4.63806 3.80636 0
      vertex 4.63806 3.80636 6
    endloop
  endfacet
  facet normal 0.671558 -0.740952 0
    outer loop
      vertex -4.24264 4.24264 0
      vertex -3.80636 4.63806 6
      vertex -4.24264 4.24264 6
    endloop
  endfacet
  facet normal 0.671558 -0.740952 0
    outer loop
      vertex -3.80636 4.63806 6
      vertex -4.24264 4.24264 0
      vertex -3.80636 4.63806 0
    endloop
  endfacet
  facet normal 0.336884 -0.941546 0
    outer loop
      vertex -2.2961 5.54328 0
      vertex -1.74171 5.74164 6
      vertex -2.2961 5.54328 6
    endloop
  endfacet
  facet normal 0.336884 -0.941546 0
    outer loop
      vertex -1.74171 5.74164 6
      vertex -2.2961 5.54328 0
      vertex -1.74171 5.74164 0
    endloop
  endfacet
  facet normal -0.941546 -0.336884 0
    outer loop
      vertex 5.74164 1.74171 0
      vertex 5.54328 2.2961 6
      vertex 5.54328 2.2961 0
    endloop
  endfacet
  facet normal -0.941546 -0.336884 0
    outer loop
      vertex 5.54328 2.2961 6
      vertex 5.74164 1.74171 0
      vertex 5.74164 1.74171 6
    endloop
  endfacet
  facet normal -0.427556 -0.903989 0
    outer loop
      vertex 2.2961 5.54328 0
      vertex 2.82838 5.29153 6
      vertex 2.2961 5.54328 6
    endloop
  endfacet
  facet normal -0.427556 -0.903989 -0
    outer loop
      vertex 2.82838 5.29153 6
      vertex 2.2961 5.54328 0
      vertex 2.82838 5.29153 0
    endloop
  endfacet
  facet normal -0.595703 -0.803204 0
    outer loop
      vertex 3.33342 4.98882 0
      vertex 3.80636 4.63806 6
      vertex 3.33342 4.98882 6
    endloop
  endfacet
  facet normal -0.595703 -0.803204 -0
    outer loop
      vertex 3.80636 4.63806 6
      vertex 3.33342 4.98882 0
      vertex 3.80636 4.63806 0
    endloop
  endfacet
  facet normal 0.903989 -0.427556 0
    outer loop
      vertex -5.54328 2.2961 6
      vertex -5.29153 2.82838 0
      vertex -5.29153 2.82838 6
    endloop
  endfacet
  facet normal 0.903989 -0.427556 0
    outer loop
      vertex -5.29153 2.82838 0
      vertex -5.54328 2.2961 6
      vertex -5.54328 2.2961 0
    endloop
  endfacet
  facet normal 0.146736 -0.989176 0
    outer loop
      vertex -1.17054 5.88471 0
      vertex -0.588102 5.97111 6
      vertex -1.17054 5.88471 6
    endloop
  endfacet
  facet normal 0.146736 -0.989176 0
    outer loop
      vertex -0.588102 5.97111 6
      vertex -1.17054 5.88471 0
      vertex -0.588102 5.97111 0
    endloop
  endfacet
  facet normal -0.941546 0.336884 0
    outer loop
      vertex 5.54328 -2.2961 0
      vertex 5.74164 -1.74171 6
      vertex 5.74164 -1.74171 0
    endloop
  endfacet
  facet normal -0.941546 0.336884 0
    outer loop
      vertex 5.74164 -1.74171 6
      vertex 5.54328 -2.2961 0
      vertex 5.54328 -2.2961 6
    endloop
  endfacet
  facet normal -0.970032 -0.242979 0
    outer loop
      vertex 5.88471 1.17054 0
      vertex 5.74164 1.74171 6
      vertex 5.74164 1.74171 0
    endloop
  endfacet
  facet normal -0.970032 -0.242979 0
    outer loop
      vertex 5.74164 1.74171 6
      vertex 5.88471 1.17054 0
      vertex 5.88471 1.17054 6
    endloop
  endfacet
  facet normal -0.989176 -0.146736 0
    outer loop
      vertex 5.97111 0.588102 0
      vertex 5.88471 1.17054 6
      vertex 5.88471 1.17054 0
    endloop
  endfacet
  facet normal -0.989176 -0.146736 0
    outer loop
      vertex 5.88471 1.17054 6
      vertex 5.97111 0.588102 0
      vertex 5.97111 0.588102 6
    endloop
  endfacet
  facet normal -0.857728 -0.514104 0
    outer loop
      vertex 5.29153 2.82838 0
      vertex 4.98882 3.33342 6
      vertex 4.98882 3.33342 0
    endloop
  endfacet
  facet normal -0.857728 -0.514104 0
    outer loop
      vertex 4.98882 3.33342 6
      vertex 5.29153 2.82838 0
      vertex 5.29153 2.82838 6
    endloop
  endfacet
  facet normal -0.803204 -0.595703 0
    outer loop
      vertex 4.98882 3.33342 0
      vertex 4.63806 3.80636 6
      vertex 4.63806 3.80636 0
    endloop
  endfacet
  facet normal -0.803204 -0.595703 0
    outer loop
      vertex 4.63806 3.80636 6
      vertex 4.98882 3.33342 0
      vertex 4.98882 3.33342 6
    endloop
  endfacet
  facet normal -0.903989 -0.427556 0
    outer loop
      vertex 5.54328 2.2961 0
      vertex 5.29153 2.82838 6
      vertex 5.29153 2.82838 0
    endloop
  endfacet
  facet normal -0.903989 -0.427556 0
    outer loop
      vertex 5.29153 2.82838 6
      vertex 5.54328 2.2961 0
      vertex 5.54328 2.2961 6
    endloop
  endfacet
  facet normal -0.242979 -0.970032 0
    outer loop
      vertex 1.17054 5.88471 0
      vertex 1.74171 5.74164 6
      vertex 1.17054 5.88471 6
    endloop
  endfacet
  facet normal -0.242979 -0.970032 -0
    outer loop
      vertex 1.74171 5.74164 6
      vertex 1.17054 5.88471 0
      vertex 1.74171 5.74164 0
    endloop
  endfacet
  facet normal -0.336884 -0.941546 0
    outer loop
      vertex 1.74171 5.74164 0
      vertex 2.2961 5.54328 6
      vertex 1.74171 5.74164 6
    endloop
  endfacet
  facet normal -0.336884 -0.941546 -0
    outer loop
      vertex 2.2961 5.54328 6
      vertex 1.74171 5.74164 0
      vertex 2.2961 5.54328 0
    endloop
  endfacet
  facet normal -0.146736 -0.989176 0
    outer loop
      vertex 0.588102 5.97111 0
      vertex 1.17054 5.88471 6
      vertex 0.588102 5.97111 6
    endloop
  endfacet
  facet normal -0.146736 -0.989176 -0
    outer loop
      vertex 1.17054 5.88471 6
      vertex 0.588102 5.97111 0
      vertex 1.17054 5.88471 0
    endloop
  endfacet
  facet normal -0.514104 -0.857728 0
    outer loop
      vertex 2.82838 5.29153 0
      vertex 3.33342 4.98882 6
      vertex 2.82838 5.29153 6
    endloop
  endfacet
  facet normal -0.514104 -0.857728 -0
    outer loop
      vertex 3.33342 4.98882 6
      vertex 2.82838 5.29153 0
      vertex 3.33342 4.98882 0
    endloop
  endfacet
  facet normal -0.671558 -0.740952 0
    outer loop
      vertex 3.80636 4.63806 0
      vertex 4.24264 4.24264 6
      vertex 3.80636 4.63806 6
    endloop
  endfacet
  facet normal -0.671558 -0.740952 -0
    outer loop
      vertex 4.24264 4.24264 6
      vertex 3.80636 4.63806 0
      vertex 4.24264 4.24264 0
    endloop
  endfacet
  facet normal 0.970032 -0.242979 0
    outer loop
      vertex -5.88471 1.17054 6
      vertex -5.74164 1.74171 0
      vertex -5.74164 1.74171 6
    endloop
  endfacet
  facet normal 0.970032 -0.242979 0
    outer loop
      vertex -5.74164 1.74171 0
      vertex -5.88471 1.17054 6
      vertex -5.88471 1.17054 0
    endloop
  endfacet
  facet normal 0.803204 -0.595703 0
    outer loop
      vertex -4.98882 3.33342 6
      vertex -4.63806 3.80636 0
      vertex -4.63806 3.80636 6
    endloop
  endfacet
  facet normal 0.803204 -0.595703 0
    outer loop
      vertex -4.63806 3.80636 0
      vertex -4.98882 3.33342 6
      vertex -4.98882 3.33342 0
    endloop
  endfacet
  facet normal 0.740952 -0.671558 0
    outer loop
      vertex -4.63806 3.80636 6
      vertex -4.24264 4.24264 0
      vertex -4.24264 4.24264 6
    endloop
  endfacet
  facet normal 0.740952 -0.671558 0
    outer loop
      vertex -4.24264 4.24264 0
      vertex -4.63806 3.80636 6
      vertex -4.63806 3.80636 0
    endloop
  endfacet
  facet normal 0.857728 -0.514104 0
    outer loop
      vertex -5.29153 2.82838 6
      vertex -4.98882 3.33342 0
      vertex -4.98882 3.33342 6
    endloop
  endfacet
  facet normal 0.857728 -0.514104 0
    outer loop
      vertex -4.98882 3.33342 0
      vertex -5.29153 2.82838 6
      vertex -5.29153 2.82838 0
    endloop
  endfacet
  facet normal 0.941546 -0.336884 0
    outer loop
      vertex -5.74164 1.74171 6
      vertex -5.54328 2.2961 0
      vertex -5.54328 2.2961 6
    endloop
  endfacet
  facet normal 0.941546 -0.336884 0
    outer loop
      vertex -5.54328 2.2961 0
      vertex -5.74164 1.74171 6
      vertex -5.74164 1.74171 0
    endloop
  endfacet
  facet normal 0.989176 -0.146736 0
    outer loop
      vertex -5.97111 0.588102 6
      vertex -5.88471 1.17054 0
      vertex -5.88471 1.17054 6
    endloop
  endfacet
  facet normal 0.989176 -0.146736 0
    outer loop
      vertex -5.88471 1.17054 0
      vertex -5.97111 0.588102 6
      vertex -5.97111 0.588102 0
    endloop
  endfacet
  facet normal 0.514104 -0.857728 0
    outer loop
      vertex -3.33342 4.98882 0
      vertex -2.82838 5.29153 6
      vertex -3.33342 4.98882 6
    endloop
  endfacet
  facet normal 0.514104 -0.857728 0
    outer loop
      vertex -2.82838 5.29153 6
      vertex -3.33342 4.98882 0
      vertex -2.82838 5.29153 0
    endloop
  endfacet
  facet normal 0.427556 -0.903989 0
    outer loop
      vertex -2.82838 5.29153 0
      vertex -2.2961 5.54328 6
      vertex -2.82838 5.29153 6
    endloop
  endfacet
  facet normal 0.427556 -0.903989 0
    outer loop
      vertex -2.2961 5.54328 6
      vertex -2.82838 5.29153 0
      vertex -2.2961 5.54328 0
    endloop
  endfacet
  facet normal 0.595703 -0.803204 0
    outer loop
      vertex -3.80636 4.63806 0
      vertex -3.33342 4.98882 6
      vertex -3.80636 4.63806 6
    endloop
  endfacet
  facet normal 0.595703 -0.803204 0
    outer loop
      vertex -3.33342 4.98882 6
      vertex -3.80636 4.63806 0
      vertex -3.33342 4.98882 0
    endloop
  endfacet
  facet normal 0.242979 -0.970032 0
    outer loop
      vertex -1.74171 5.74164 0
      vertex -1.17054 5.88471 6
      vertex -1.74171 5.74164 6
    endloop
  endfacet
  facet normal 0.242979 -0.970032 0
    outer loop
      vertex -1.17054 5.88471 6
      vertex -1.74171 5.74164 0
      vertex -1.17054 5.88471 0
    endloop
  endfacet
  facet normal 0.049065 -0.998796 0
    outer loop
      vertex -0.588102 5.97111 0
      vertex 0 6 6
      vertex -0.588102 5.97111 6
    endloop
  endfacet
  facet normal 0.049065 -0.998796 0
    outer loop
      vertex 0 6 6
      vertex -0.588102 5.97111 0
      vertex 0 6 0
    endloop
  endfacet
  facet normal -0.998796 0.049065 0
    outer loop
      vertex 5.97111 -0.588102 0
      vertex 6 0 6
      vertex 6 0 0
    endloop
  endfacet
  facet normal -0.998796 0.049065 0
    outer loop
      vertex 6 0 6
      vertex 5.97111 -0.588102 0
      vertex 5.97111 -0.588102 6
    endloop
  endfacet
  facet normal -0.049065 0.998796 0
    outer loop
      vertex 0.588102 -5.97111 0
      vertex 0 -6 6
      vertex 0.588102 -5.97111 6
    endloop
  endfacet
  facet normal -0.049065 0.998796 0
    outer loop
      vertex 0 -6 6
      vertex 0.588102 -5.97111 0
      vertex 0 -6 0
    endloop
  endfacet
  facet normal -0.242979 0.970032 0
    outer loop
      vertex 1.74171 -5.74164 0
      vertex 1.17054 -5.88471 6
      vertex 1.74171 -5.74164 6
    endloop
  endfacet
  facet normal -0.242979 0.970032 0
    outer loop
      vertex 1.17054 -5.88471 6
      vertex 1.74171 -5.74164 0
      vertex 1.17054 -5.88471 0
    endloop
  endfacet
  facet normal -0.595703 0.803204 0
    outer loop
      vertex 3.80636 -4.63806 0
      vertex 3.33342 -4.98882 6
      vertex 3.80636 -4.63806 6
    endloop
  endfacet
  facet normal -0.595703 0.803204 0
    outer loop
      vertex 3.33342 -4.98882 6
      vertex 3.80636 -4.63806 0
      vertex 3.33342 -4.98882 0
    endloop
  endfacet
  facet normal -0.427556 0.903989 0
    outer loop
      vertex 2.82838 -5.29153 0
      vertex 2.2961 -5.54328 6
      vertex 2.82838 -5.29153 6
    endloop
  endfacet
  facet normal -0.427556 0.903989 0
    outer loop
      vertex 2.2961 -5.54328 6
      vertex 2.82838 -5.29153 0
      vertex 2.2961 -5.54328 0
    endloop
  endfacet
  facet normal -0.740952 0.671558 0
    outer loop
      vertex 4.24264 -4.24264 0
      vertex 4.63806 -3.80636 6
      vertex 4.63806 -3.80636 0
    endloop
  endfacet
  facet normal -0.740952 0.671558 0
    outer loop
      vertex 4.63806 -3.80636 6
      vertex 4.24264 -4.24264 0
      vertex 4.24264 -4.24264 6
    endloop
  endfacet
  facet normal 0.671558 0.740952 -0
    outer loop
      vertex -3.80636 -4.63806 0
      vertex -4.24264 -4.24264 6
      vertex -3.80636 -4.63806 6
    endloop
  endfacet
  facet normal 0.671558 0.740952 0
    outer loop
      vertex -4.24264 -4.24264 6
      vertex -3.80636 -4.63806 0
      vertex -4.24264 -4.24264 0
    endloop
  endfacet
  facet normal 0.514104 0.857728 -0
    outer loop
      vertex -2.82838 -5.29153 0
      vertex -3.33342 -4.98882 6
      vertex -2.82838 -5.29153 6
    endloop
  endfacet
  facet normal 0.514104 0.857728 0
    outer loop
      vertex -3.33342 -4.98882 6
      vertex -2.82838 -5.29153 0
      vertex -3.33342 -4.98882 0
    endloop
  endfacet
  facet normal 0.336884 0.941546 -0
    outer loop
      vertex -1.74171 -5.74164 0
      vertex -2.2961 -5.54328 6
      vertex -1.74171 -5.74164 6
    endloop
  endfacet
  facet normal 0.336884 0.941546 0
    outer loop
      vertex -2.2961 -5.54328 6
      vertex -1.74171 -5.74164 0
      vertex -2.2961 -5.54328 0
    endloop
  endfacet
  facet normal 0.146736 0.989176 -0
    outer loop
      vertex -0.588102 -5.97111 0
      vertex -1.17054 -5.88471 6
      vertex -0.588102 -5.97111 6
    endloop
  endfacet
  facet normal 0.146736 0.989176 0
    outer loop
      vertex -1.17054 -5.88471 6
      vertex -0.588102 -5.97111 0
      vertex -1.17054 -5.88471 0
    endloop
  endfacet
  facet normal 0.857728 0.514104 0
    outer loop
      vertex -4.98882 -3.33342 6
      vertex -5.29153 -2.82838 0
      vertex -5.29153 -2.82838 6
    endloop
  endfacet
  facet normal 0.857728 0.514104 0
    outer loop
      vertex -5.29153 -2.82838 0
      vertex -4.98882 -3.33342 6
      vertex -4.98882 -3.33342 0
    endloop
  endfacet
  facet normal 0.903989 0.427556 0
    outer loop
      vertex -5.29153 -2.82838 6
      vertex -5.54328 -2.2961 0
      vertex -5.54328 -2.2961 6
    endloop
  endfacet
  facet normal 0.903989 0.427556 0
    outer loop
      vertex -5.54328 -2.2961 0
      vertex -5.29153 -2.82838 6
      vertex -5.29153 -2.82838 0
    endloop
  endfacet
  facet normal 0.803204 0.595703 0
    outer loop
      vertex -4.63806 -3.80636 6
      vertex -4.98882 -3.33342 0
      vertex -4.98882 -3.33342 6
    endloop
  endfacet
  facet normal 0.803204 0.595703 0
    outer loop
      vertex -4.98882 -3.33342 0
      vertex -4.63806 -3.80636 6
      vertex -4.63806 -3.80636 0
    endloop
  endfacet
  facet normal 0.970032 0.242979 0
    outer loop
      vertex -5.74164 -1.74171 6
      vertex -5.88471 -1.17054 0
      vertex -5.88471 -1.17054 6
    endloop
  endfacet
  facet normal 0.970032 0.242979 0
    outer loop
      vertex -5.88471 -1.17054 0
      vertex -5.74164 -1.74171 6
      vertex -5.74164 -1.74171 0
    endloop
  endfacet
  facet normal 0.941546 0.336884 0
    outer loop
      vertex -5.54328 -2.2961 6
      vertex -5.74164 -1.74171 0
      vertex -5.74164 -1.74171 6
    endloop
  endfacet
  facet normal 0.941546 0.336884 0
    outer loop
      vertex -5.74164 -1.74171 0
      vertex -5.54328 -2.2961 6
      vertex -5.54328 -2.2961 0
    endloop
  endfacet
  facet normal 0.998796 0.049065 0
    outer loop
      vertex -5.97111 -0.588102 6
      vertex -6 0 0
      vertex -6 0 6
    endloop
  endfacet
  facet normal 0.998796 0.049065 0
    outer loop
      vertex -6 0 0
      vertex -5.97111 -0.588102 6
      vertex -5.97111 -0.588102 0
    endloop
  endfacet
  facet normal -0.146736 0.989176 0
    outer loop
      vertex 1.17054 -5.88471 0
      vertex 0.588102 -5.97111 6
      vertex 1.17054 -5.88471 6
    endloop
  endfacet
  facet normal -0.146736 0.989176 0
    outer loop
      vertex 0.588102 -5.97111 6
      vertex 1.17054 -5.88471 0
      vertex 0.588102 -5.97111 0
    endloop
  endfacet
  facet normal -0.336884 0.941546 0
    outer loop
      vertex 2.2961 -5.54328 0
      vertex 1.74171 -5.74164 6
      vertex 2.2961 -5.54328 6
    endloop
  endfacet
  facet normal -0.336884 0.941546 0
    outer loop
      vertex 1.74171 -5.74164 6
      vertex 2.2961 -5.54328 0
      vertex 1.74171 -5.74164 0
    endloop
  endfacet
  facet normal -0.671558 0.740952 0
    outer loop
      vertex 4.24264 -4.24264 0
      vertex 3.80636 -4.63806 6
      vertex 4.24264 -4.24264 6
    endloop
  endfacet
  facet normal -0.671558 0.740952 0
    outer loop
      vertex 3.80636 -4.63806 6
      vertex 4.24264 -4.24264 0
      vertex 3.80636 -4.63806 0
    endloop
  endfacet
  facet normal -0.514104 0.857728 0
    outer loop
      vertex 3.33342 -4.98882 0
      vertex 2.82838 -5.29153 6
      vertex 3.33342 -4.98882 6
    endloop
  endfacet
  facet normal -0.514104 0.857728 0
    outer loop
      vertex 2.82838 -5.29153 6
      vertex 3.33342 -4.98882 0
      vertex 2.82838 -5.29153 0
    endloop
  endfacet
  facet normal -0.803204 0.595703 0
    outer loop
      vertex 4.63806 -3.80636 0
      vertex 4.98882 -3.33342 6
      vertex 4.98882 -3.33342 0
    endloop
  endfacet
  facet normal -0.803204 0.595703 0
    outer loop
      vertex 4.98882 -3.33342 6
      vertex 4.63806 -3.80636 0
      vertex 4.63806 -3.80636 6
    endloop
  endfacet
  facet normal -0.857728 0.514104 0
    outer loop
      vertex 4.98882 -3.33342 0
      vertex 5.29153 -2.82838 6
      vertex 5.29153 -2.82838 0
    endloop
  endfacet
  facet normal -0.857728 0.514104 0
    outer loop
      vertex 5.29153 -2.82838 6
      vertex 4.98882 -3.33342 0
      vertex 4.98882 -3.33342 6
    endloop
  endfacet
  facet normal -0.989176 0.146736 0
    outer loop
      vertex 5.88471 -1.17054 0
      vertex 5.97111 -0.588102 6
      vertex 5.97111 -0.588102 0
    endloop
  endfacet
  facet normal -0.989176 0.146736 0
    outer loop
      vertex 5.97111 -0.588102 6
      vertex 5.88471 -1.17054 0
      vertex 5.88471 -1.17054 6
    endloop
  endfacet
  facet normal -0.970032 0.242979 0
    outer loop
      vertex 5.74164 -1.74171 0
      vertex 5.88471 -1.17054 6
      vertex 5.88471 -1.17054 0
    endloop
  endfacet
  facet normal -0.970032 0.242979 0
    outer loop
      vertex 5.88471 -1.17054 6
      vertex 5.74164 -1.74171 0
      vertex 5.74164 -1.74171 6
    endloop
  endfacet
  facet normal 0.595703 0.803204 -0
    outer loop
      vertex -3.33342 -4.98882 0
      vertex -3.80636 -4.63806 6
      vertex -3.33342 -4.98882 6
    endloop
  endfacet
  facet normal 0.595703 0.803204 0
    outer loop
      vertex -3.80636 -4.63806 6
      vertex -3.33342 -4.98882 0
      vertex -3.80636 -4.63806 0
    endloop
  endfacet
  facet normal 0.427556 0.903989 -0
    outer loop
      vertex -2.2961 -5.54328 0
      vertex -2.82838 -5.29153 6
      vertex -2.2961 -5.54328 6
    endloop
  endfacet
  facet normal 0.427556 0.903989 0
    outer loop
      vertex -2.82838 -5.29153 6
      vertex -2.2961 -5.54328 0
      vertex -2.82838 -5.29153 0
    endloop
  endfacet
  facet normal 0.242979 0.970032 -0
    outer loop
      vertex -1.17054 -5.88471 0
      vertex -1.74171 -5.74164 6
      vertex -1.17054 -5.88471 6
    endloop
  endfacet
  facet normal 0.242979 0.970032 0
    outer loop
      vertex -1.74171 -5.74164 6
      vertex -1.17054 -5.88471 0
      vertex -1.74171 -5.74164 0
    endloop
  endfacet
  facet normal 0.989176 0.146736 0
    outer loop
      vertex -5.88471 -1.17054 6
      vertex -5.97111 -0.588102 0
      vertex -5.97111 -0.588102 6
    endloop
  endfacet
  facet normal 0.989176 0.146736 0
    outer loop
      vertex -5.97111 -0.588102 0
      vertex -5.88471 -1.17054 6
      vertex -5.88471 -1.17054 0
    endloop
  endfacet
  facet normal -0.903989 0.427556 0
    outer loop
      vertex 5.29153 -2.82838 0
      vertex 5.54328 -2.2961 6
      vertex 5.54328 -2.2961 0
    endloop
  endfacet
  facet normal -0.903989 0.427556 0
    outer loop
      vertex 5.54328 -2.2961 6
      vertex 5.29153 -2.82838 0
      vertex 5.29153 -2.82838 6
    endloop
  endfacet
endsolid OpenSCAD_Model
