solid OpenSCAD_Model
  facet normal -0.998795 0.0490671 0
    outer loop
      vertex -1 12 0
      vertex -0.947032 13.0782 10
      vertex -0.947032 13.0782 0
    endloop
  endfacet
  facet normal -0.998795 0.0490671 0
    outer loop
      vertex -0.947032 13.0782 10
      vertex -1 12 0
      vertex -1 12 10
    endloop
  endfacet
  facet normal -0.989176 0.146732 0
    outer loop
      vertex -0.947032 13.0782 0
      vertex -0.788637 14.146 10
      vertex -0.788637 14.146 0
    endloop
  endfacet
  facet normal -0.989176 0.146732 0
    outer loop
      vertex -0.788637 14.146 10
      vertex -0.947032 13.0782 0
      vertex -0.947032 13.0782 10
    endloop
  endfacet
  facet normal -0.998795 -0.0490671 0
    outer loop
      vertex -0.947032 10.9218 0
      vertex -1 12 10
      vertex -1 12 0
    endloop
  endfacet
  facet normal -0.998795 -0.0490671 0
    outer loop
      vertex -1 12 10
      vertex -0.947032 10.9218 0
      vertex -0.947032 10.9218 10
    endloop
  endfacet
  facet normal -0.803192 0.59572 0
    outer loop
      vertex 0.853834 18.1113 0
      vertex 1.49688 18.9783 10
      vertex 1.49688 18.9783 0
    endloop
  endfacet
  facet normal -0.803192 0.59572 0
    outer loop
      vertex 1.49688 18.9783 10
      vertex 0.853834 18.1113 0
      vertex 0.853834 18.1113 10
    endloop
  endfacet
  facet normal 0.998794 -0.0490967 0
    outer loop
      vertex 36.947 10.9218 10
      vertex 37 12 0
      vertex 37 12 10
    endloop
  endfacet
  facet normal 0.998794 -0.0490967 0
    outer loop
      vertex 37 12 0
      vertex 36.947 10.9218 10
      vertex 36.947 10.9218 0
    endloop
  endfacet
  facet normal 0 -1 0
    outer loop
      vertex 10 1 0
      vertex 26 1 10
      vertex 10 1 10
    endloop
  endfacet
  facet normal 0 -1 -0
    outer loop
      vertex 26 1 10
      vertex 10 1 0
      vertex 26 1 0
    endloop
  endfacet
  facet normal 0.427535 -0.903999 0
    outer loop
      vertex 30.2095 1.83733 0
      vertex 31.1854 2.29887 10
      vertex 30.2095 1.83733 10
    endloop
  endfacet
  facet normal 0.427535 -0.903999 0
    outer loop
      vertex 31.1854 2.29887 10
      vertex 30.2095 1.83733 0
      vertex 31.1854 2.29887 0
    endloop
  endfacet
  facet normal 0.0490967 0.998794 -0
    outer loop
      vertex 27.0782 22.947 0
      vertex 26 23 10
      vertex 27.0782 22.947 10
    endloop
  endfacet
  facet normal 0.0490967 0.998794 0
    outer loop
      vertex 26 23 10
      vertex 27.0782 22.947 0
      vertex 26 23 0
    endloop
  endfacet
  facet normal -0.671558 -0.740952 0
    outer loop
      vertex 2.22182 4.22182 0
      vertex 3.02167 3.49688 10
      vertex 2.22182 4.22182 10
    endloop
  endfacet
  facet normal -0.671558 -0.740952 -0
    outer loop
      vertex 3.02167 3.49688 10
      vertex 2.22182 4.22182 0
      vertex 3.02167 3.49688 0
    endloop
  endfacet
  facet normal -0.0490695 -0.998795 0
    outer loop
      vertex 8.92181 1.05297 0
      vertex 10 1 10
      vertex 8.92181 1.05297 10
    endloop
  endfacet
  facet normal -0.0490695 -0.998795 -0
    outer loop
      vertex 10 1 10
      vertex 8.92181 1.05297 0
      vertex 10 1 0
    endloop
  endfacet
  facet normal 0.803188 -0.595726 0
    outer loop
      vertex 34.5031 5.02167 10
      vertex 35.1462 5.88873 0
      vertex 35.1462 5.88873 10
    endloop
  endfacet
  facet normal 0.803188 -0.595726 0
    outer loop
      vertex 35.1462 5.88873 0
      vertex 34.5031 5.02167 10
      vertex 34.5031 5.02167 0
    endloop
  endfacet
  facet normal -0.336832 0.941565 0
    outer loop
      vertex 6.80687 22.5263 0
      vertex 5.79048 22.1627 10
      vertex 6.80687 22.5263 10
    endloop
  endfacet
  facet normal -0.336832 0.941565 0
    outer loop
      vertex 5.79048 22.1627 10
      vertex 6.80687 22.5263 0
      vertex 5.79048 22.1627 0
    endloop
  endfacet
  facet normal 0 0 1
    outer loop
      vertex 34 12 10
      vertex 37 12 10
      vertex 36.947 13.0782 10
    endloop
  endfacet
  facet normal 0 0 1
    outer loop
      vertex 33.9615 12.7841 10
      vertex 36.947 13.0782 10
      vertex 36.7886 14.146 10
    endloop
  endfacet
  facet normal 0 0 1
    outer loop
      vertex 37 12 10
      vertex 34 12 10
      vertex 36.947 10.9218 10
    endloop
  endfacet
  facet normal 0 0 1
    outer loop
      vertex 33.8463 13.5607 10
      vertex 36.7886 14.146 10
      vertex 36.5263 15.1931 10
    endloop
  endfacet
  facet normal -0 0 1
    outer loop
      vertex 33.9615 11.2159 10
      vertex 36.947 10.9218 10
      vertex 34 12 10
    endloop
  endfacet
  facet normal 0 0 1
    outer loop
      vertex 33.6555 14.3223 10
      vertex 36.5263 15.1931 10
      vertex 36.1627 16.2095 10
    endloop
  endfacet
  facet normal 0 0 1
    outer loop
      vertex 36.947 10.9218 10
      vertex 33.9615 11.2159 10
      vertex 36.7886 9.85401 10
    endloop
  endfacet
  facet normal 0 0 1
    outer loop
      vertex 33.391 15.0615 10
      vertex 36.1627 16.2095 10
      vertex 35.7011 17.1854 10
    endloop
  endfacet
  facet normal -0 0 1
    outer loop
      vertex 33.8463 10.4393 10
      vertex 36.7886 9.85401 10
      vertex 33.9615 11.2159 10
    endloop
  endfacet
  facet normal 0 0 1
    outer loop
      vertex 33.0554 15.7712 10
      vertex 35.7011 17.1854 10
      vertex 35.1462 18.1113 10
    endloop
  endfacet
  facet normal 0 0 1
    outer loop
      vertex 36.7886 9.85401 10
      vertex 33.8463 10.4393 10
      vertex 36.5263 8.80687 10
    endloop
  endfacet
  facet normal 0 0 1
    outer loop
      vertex 32.6518 16.4446 10
      vertex 35.1462 18.1113 10
      vertex 34.5031 18.9783 10
    endloop
  endfacet
  facet normal -0 0 1
    outer loop
      vertex 33.6555 9.67772 10
      vertex 36.5263 8.80687 10
      vertex 33.8463 10.4393 10
    endloop
  endfacet
  facet normal 0 0 1
    outer loop
      vertex 36.5263 8.80687 10
      vertex 33.6555 9.67772 10
      vertex 36.1627 7.79048 10
    endloop
  endfacet
  facet normal 0 0 1
    outer loop
      vertex 36.947 13.0782 10
      vertex 33.9615 12.7841 10
      vertex 34 12 10
    endloop
  endfacet
  facet normal 0 0 1
    outer loop
      vertex 36.7886 14.146 10
      vertex 33.8463 13.5607 10
      vertex 33.9615 12.7841 10
    endloop
  endfacet
  facet normal 0 0 1
    outer loop
      vertex 32.1841 17.0751 10
      vertex 34.5031 18.9783 10
      vertex 33.7782 19.7782 10
    endloop
  endfacet
  facet normal 0 0 1
    outer loop
      vertex 36.5263 15.1931 10
      vertex 33.6555 14.3223 10
      vertex 33.8463 13.5607 10
    endloop
  endfacet
  facet normal 0 0 1
    outer loop
      vertex 36.1627 16.2095 10
      vertex 33.391 15.0615 10
      vertex 33.6555 14.3223 10
    endloop
  endfacet
  facet normal 0 0 1
    outer loop
      vertex 35.7011 17.1854 10
      vertex 33.0554 15.7712 10
      vertex 33.391 15.0615 10
    endloop
  endfacet
  facet normal 0 0 1
    outer loop
      vertex 31.6569 17.6569 10
      vertex 33.7782 19.7782 10
      vertex 32.9783 20.5031 10
    endloop
  endfacet
  facet normal 0 0 1
    outer loop
      vertex 35.1462 18.1113 10
      vertex 32.6518 16.4446 10
      vertex 33.0554 15.7712 10
    endloop
  endfacet
  facet normal 0 0 1
    outer loop
      vertex 34.5031 18.9783 10
      vertex 32.1841 17.0751 10
      vertex 32.6518 16.4446 10
    endloop
  endfacet
  facet normal 0 0 1
    outer loop
      vertex 31.0751 18.1841 10
      vertex 32.9783 20.5031 10
      vertex 32.1113 21.1462 10
    endloop
  endfacet
  facet normal 0 0 1
    outer loop
      vertex 33.7782 19.7782 10
      vertex 31.6569 17.6569 10
      vertex 32.1841 17.0751 10
    endloop
  endfacet
  facet normal 0 0 1
    outer loop
      vertex 30.4446 18.6518 10
      vertex 32.1113 21.1462 10
      vertex 31.1854 21.7011 10
    endloop
  endfacet
  facet normal 0 0 1
    outer loop
      vertex 32.9783 20.5031 10
      vertex 31.0751 18.1841 10
      vertex 31.6569 17.6569 10
    endloop
  endfacet
  facet normal 0 0 1
    outer loop
      vertex 32.1113 21.1462 10
      vertex 30.4446 18.6518 10
      vertex 31.0751 18.1841 10
    endloop
  endfacet
  facet normal 0 0 1
    outer loop
      vertex 29.7712 19.0554 10
      vertex 31.1854 21.7011 10
      vertex 30.2095 22.1627 10
    endloop
  endfacet
  facet normal 0 0 1
    outer loop
      vertex 31.1854 21.7011 10
      vertex 29.7712 19.0554 10
      vertex 30.4446 18.6518 10
    endloop
  endfacet
  facet normal 0 0 1
    outer loop
      vertex 29.0615 19.391 10
      vertex 30.2095 22.1627 10
      vertex 29.1931 22.5263 10
    endloop
  endfacet
  facet normal 0 0 1
    outer loop
      vertex 30.2095 22.1627 10
      vertex 29.0615 19.391 10
      vertex 29.7712 19.0554 10
    endloop
  endfacet
  facet normal 0 0 1
    outer loop
      vertex 29.1931 22.5263 10
      vertex 28.3223 19.6555 10
      vertex 29.0615 19.391 10
    endloop
  endfacet
  facet normal 0 0 1
    outer loop
      vertex 28.146 22.7886 10
      vertex 28.3223 19.6555 10
      vertex 29.1931 22.5263 10
    endloop
  endfacet
  facet normal 0 0 1
    outer loop
      vertex 28.146 22.7886 10
      vertex 27.5607 19.8463 10
      vertex 28.3223 19.6555 10
    endloop
  endfacet
  facet normal 0 0 1
    outer loop
      vertex 27.0782 22.947 10
      vertex 27.5607 19.8463 10
      vertex 28.146 22.7886 10
    endloop
  endfacet
  facet normal 0 0 1
    outer loop
      vertex 27.0782 22.947 10
      vertex 26.7841 19.9615 10
      vertex 27.5607 19.8463 10
    endloop
  endfacet
  facet normal 0 0 1
    outer loop
      vertex 26 23 10
      vertex 26.7841 19.9615 10
      vertex 27.0782 22.947 10
    endloop
  endfacet
  facet normal 0 0 1
    outer loop
      vertex 26 23 10
      vertex 26 20 10
      vertex 26.7841 19.9615 10
    endloop
  endfacet
  facet normal -0 0 1
    outer loop
      vertex 10 23 10
      vertex 26 20 10
      vertex 26 23 10
    endloop
  endfacet
  facet normal 0 0 1
    outer loop
      vertex 10 23 10
      vertex 10 20 10
      vertex 26 20 10
    endloop
  endfacet
  facet normal 0 0 1
    outer loop
      vertex 10 23 10
      vertex 9.21586 19.9615 10
      vertex 10 20 10
    endloop
  endfacet
  facet normal -0 0 1
    outer loop
      vertex 8.92181 22.947 10
      vertex 9.21586 19.9615 10
      vertex 10 23 10
    endloop
  endfacet
  facet normal 0 0 1
    outer loop
      vertex 8.92181 22.947 10
      vertex 8.43928 19.8463 10
      vertex 9.21586 19.9615 10
    endloop
  endfacet
  facet normal -0 0 1
    outer loop
      vertex 7.85401 22.7886 10
      vertex 8.43928 19.8463 10
      vertex 8.92181 22.947 10
    endloop
  endfacet
  facet normal 0 0 1
    outer loop
      vertex 7.85401 22.7886 10
      vertex 7.67772 19.6555 10
      vertex 8.43928 19.8463 10
    endloop
  endfacet
  facet normal -0 0 1
    outer loop
      vertex 6.80687 22.5263 10
      vertex 7.67772 19.6555 10
      vertex 7.85401 22.7886 10
    endloop
  endfacet
  facet normal 0 0 1
    outer loop
      vertex 7.67772 19.6555 10
      vertex 6.80687 22.5263 10
      vertex 6.93853 19.391 10
    endloop
  endfacet
  facet normal -0 0 1
    outer loop
      vertex 5.79048 22.1627 10
      vertex 6.93853 19.391 10
      vertex 6.80687 22.5263 10
    endloop
  endfacet
  facet normal 0 0 1
    outer loop
      vertex 6.93853 19.391 10
      vertex 5.79048 22.1627 10
      vertex 6.22883 19.0554 10
    endloop
  endfacet
  facet normal -0 0 1
    outer loop
      vertex 4.81464 21.7011 10
      vertex 6.22883 19.0554 10
      vertex 5.79048 22.1627 10
    endloop
  endfacet
  facet normal 0 0 1
    outer loop
      vertex 6.22883 19.0554 10
      vertex 4.81464 21.7011 10
      vertex 5.55544 18.6518 10
    endloop
  endfacet
  facet normal -0 0 1
    outer loop
      vertex 3.88873 21.1462 10
      vertex 5.55544 18.6518 10
      vertex 4.81464 21.7011 10
    endloop
  endfacet
  facet normal 0 0 1
    outer loop
      vertex 5.55544 18.6518 10
      vertex 3.88873 21.1462 10
      vertex 4.92485 18.1841 10
    endloop
  endfacet
  facet normal -0 0 1
    outer loop
      vertex 3.02167 20.5031 10
      vertex 4.92485 18.1841 10
      vertex 3.88873 21.1462 10
    endloop
  endfacet
  facet normal 0 0 1
    outer loop
      vertex 4.92485 18.1841 10
      vertex 3.02167 20.5031 10
      vertex 4.34315 17.6569 10
    endloop
  endfacet
  facet normal -0 0 1
    outer loop
      vertex 2.22182 19.7782 10
      vertex 4.34315 17.6569 10
      vertex 3.02167 20.5031 10
    endloop
  endfacet
  facet normal 0 0 1
    outer loop
      vertex 4.34315 17.6569 10
      vertex 2.22182 19.7782 10
      vertex 3.81592 17.0751 10
    endloop
  endfacet
  facet normal -0 0 1
    outer loop
      vertex 1.49688 18.9783 10
      vertex 3.81592 17.0751 10
      vertex 2.22182 19.7782 10
    endloop
  endfacet
  facet normal 0 0 1
    outer loop
      vertex 3.81592 17.0751 10
      vertex 1.49688 18.9783 10
      vertex 3.34824 16.4446 10
    endloop
  endfacet
  facet normal -0 0 1
    outer loop
      vertex 0.853834 18.1113 10
      vertex 3.34824 16.4446 10
      vertex 1.49688 18.9783 10
    endloop
  endfacet
  facet normal 0 0 1
    outer loop
      vertex 3.34824 16.4446 10
      vertex 0.853834 18.1113 10
      vertex 2.94463 15.7712 10
    endloop
  endfacet
  facet normal -0 0 1
    outer loop
      vertex 0.298865 17.1854 10
      vertex 2.94463 15.7712 10
      vertex 0.853834 18.1113 10
    endloop
  endfacet
  facet normal 0 0 1
    outer loop
      vertex 2.94463 15.7712 10
      vertex 0.298865 17.1854 10
      vertex 2.60896 15.0615 10
    endloop
  endfacet
  facet normal -0 0 1
    outer loop
      vertex -0.162674 16.2095 10
      vertex 2.60896 15.0615 10
      vertex 0.298865 17.1854 10
    endloop
  endfacet
  facet normal 0 0 1
    outer loop
      vertex 2.60896 15.0615 10
      vertex -0.162674 16.2095 10
      vertex 2.34448 14.3223 10
    endloop
  endfacet
  facet normal -0 0 1
    outer loop
      vertex 33.391 8.93853 10
      vertex 36.1627 7.79048 10
      vertex 33.6555 9.67772 10
    endloop
  endfacet
  facet normal 0 0 1
    outer loop
      vertex 36.1627 7.79048 10
      vertex 33.391 8.93853 10
      vertex 35.7011 6.81464 10
    endloop
  endfacet
  facet normal -0 0 1
    outer loop
      vertex 33.0554 8.22883 10
      vertex 35.7011 6.81464 10
      vertex 33.391 8.93853 10
    endloop
  endfacet
  facet normal 0 0 1
    outer loop
      vertex 35.7011 6.81464 10
      vertex 33.0554 8.22883 10
      vertex 35.1462 5.88873 10
    endloop
  endfacet
  facet normal -0 0 1
    outer loop
      vertex 32.6518 7.55544 10
      vertex 35.1462 5.88873 10
      vertex 33.0554 8.22883 10
    endloop
  endfacet
  facet normal 0 0 1
    outer loop
      vertex 35.1462 5.88873 10
      vertex 32.6518 7.55544 10
      vertex 34.5031 5.02167 10
    endloop
  endfacet
  facet normal -0 0 1
    outer loop
      vertex 32.1841 6.92485 10
      vertex 34.5031 5.02167 10
      vertex 32.6518 7.55544 10
    endloop
  endfacet
  facet normal 0 0 1
    outer loop
      vertex 34.5031 5.02167 10
      vertex 32.1841 6.92485 10
      vertex 33.7782 4.22182 10
    endloop
  endfacet
  facet normal -0 0 1
    outer loop
      vertex 31.6569 6.34315 10
      vertex 33.7782 4.22182 10
      vertex 32.1841 6.92485 10
    endloop
  endfacet
  facet normal 0 0 1
    outer loop
      vertex 33.7782 4.22182 10
      vertex 31.6569 6.34315 10
      vertex 32.9783 3.49688 10
    endloop
  endfacet
  facet normal -0 0 1
    outer loop
      vertex 31.0751 5.81592 10
      vertex 32.9783 3.49688 10
      vertex 31.6569 6.34315 10
    endloop
  endfacet
  facet normal 0 0 1
    outer loop
      vertex 32.9783 3.49688 10
      vertex 31.0751 5.81592 10
      vertex 32.1113 2.85383 10
    endloop
  endfacet
  facet normal -0 0 1
    outer loop
      vertex 30.4446 5.34824 10
      vertex 32.1113 2.85383 10
      vertex 31.0751 5.81592 10
    endloop
  endfacet
  facet normal 0 0 1
    outer loop
      vertex 32.1113 2.85383 10
      vertex 30.4446 5.34824 10
      vertex 31.1854 2.29887 10
    endloop
  endfacet
  facet normal -0 0 1
    outer loop
      vertex 29.7712 4.94463 10
      vertex 31.1854 2.29887 10
      vertex 30.4446 5.34824 10
    endloop
  endfacet
  facet normal 0 0 1
    outer loop
      vertex 31.1854 2.29887 10
      vertex 29.7712 4.94463 10
      vertex 30.2095 1.83733 10
    endloop
  endfacet
  facet normal -0 0 1
    outer loop
      vertex 29.0615 4.60896 10
      vertex 30.2095 1.83733 10
      vertex 29.7712 4.94463 10
    endloop
  endfacet
  facet normal 0 0 1
    outer loop
      vertex 30.2095 1.83733 10
      vertex 29.0615 4.60896 10
      vertex 29.1931 1.47366 10
    endloop
  endfacet
  facet normal -0 0 1
    outer loop
      vertex 28.3223 4.34448 10
      vertex 29.1931 1.47366 10
      vertex 29.0615 4.60896 10
    endloop
  endfacet
  facet normal 0 0 1
    outer loop
      vertex 28.3223 4.34448 10
      vertex 28.146 1.21136 10
      vertex 29.1931 1.47366 10
    endloop
  endfacet
  facet normal -0 0 1
    outer loop
      vertex 27.5607 4.15372 10
      vertex 28.146 1.21136 10
      vertex 28.3223 4.34448 10
    endloop
  endfacet
  facet normal 0 0 1
    outer loop
      vertex 27.5607 4.15372 10
      vertex 27.0782 1.05297 10
      vertex 28.146 1.21136 10
    endloop
  endfacet
  facet normal -0 0 1
    outer loop
      vertex 26.7841 4.03852 10
      vertex 27.0782 1.05297 10
      vertex 27.5607 4.15372 10
    endloop
  endfacet
  facet normal -0 0 1
    outer loop
      vertex 26 4 10
      vertex 27.0782 1.05297 10
      vertex 26.7841 4.03852 10
    endloop
  endfacet
  facet normal 0 0 1
    outer loop
      vertex 26 4 10
      vertex 26 1 10
      vertex 27.0782 1.05297 10
    endloop
  endfacet
  facet normal -0 0 1
    outer loop
      vertex 10 4 10
      vertex 26 1 10
      vertex 26 4 10
    endloop
  endfacet
  facet normal 0 0 1
    outer loop
      vertex 10 4 10
      vertex 10 1 10
      vertex 26 1 10
    endloop
  endfacet
  facet normal 0 0 1
    outer loop
      vertex 9.21586 4.03852 10
      vertex 10 1 10
      vertex 10 4 10
    endloop
  endfacet
  facet normal 0 0 1
    outer loop
      vertex 9.21586 4.03852 10
      vertex 8.92181 1.05297 10
      vertex 10 1 10
    endloop
  endfacet
  facet normal 0 0 1
    outer loop
      vertex 8.43928 4.15372 10
      vertex 8.92181 1.05297 10
      vertex 9.21586 4.03852 10
    endloop
  endfacet
  facet normal 0 0 1
    outer loop
      vertex 8.43928 4.15372 10
      vertex 7.85401 1.21136 10
      vertex 8.92181 1.05297 10
    endloop
  endfacet
  facet normal 0 0 1
    outer loop
      vertex 7.67772 4.34448 10
      vertex 7.85401 1.21136 10
      vertex 8.43928 4.15372 10
    endloop
  endfacet
  facet normal 0 0 1
    outer loop
      vertex 6.80687 1.47366 10
      vertex 7.67772 4.34448 10
      vertex 6.93853 4.60896 10
    endloop
  endfacet
  facet normal 0 0 1
    outer loop
      vertex 7.67772 4.34448 10
      vertex 6.80687 1.47366 10
      vertex 7.85401 1.21136 10
    endloop
  endfacet
  facet normal 0 0 1
    outer loop
      vertex 5.79048 1.83733 10
      vertex 6.93853 4.60896 10
      vertex 6.22883 4.94463 10
    endloop
  endfacet
  facet normal 0 0 1
    outer loop
      vertex 6.93853 4.60896 10
      vertex 5.79048 1.83733 10
      vertex 6.80687 1.47366 10
    endloop
  endfacet
  facet normal 0 0 1
    outer loop
      vertex 4.81464 2.29887 10
      vertex 6.22883 4.94463 10
      vertex 5.55544 5.34824 10
    endloop
  endfacet
  facet normal 0 0 1
    outer loop
      vertex 3.88873 2.85383 10
      vertex 5.55544 5.34824 10
      vertex 4.92485 5.81592 10
    endloop
  endfacet
  facet normal 0 0 1
    outer loop
      vertex 6.22883 4.94463 10
      vertex 4.81464 2.29887 10
      vertex 5.79048 1.83733 10
    endloop
  endfacet
  facet normal 0 0 1
    outer loop
      vertex 3.02167 3.49688 10
      vertex 4.92485 5.81592 10
      vertex 4.34315 6.34315 10
    endloop
  endfacet
  facet normal 0 0 1
    outer loop
      vertex 5.55544 5.34824 10
      vertex 3.88873 2.85383 10
      vertex 4.81464 2.29887 10
    endloop
  endfacet
  facet normal 0 0 1
    outer loop
      vertex 2.22182 4.22182 10
      vertex 4.34315 6.34315 10
      vertex 3.81592 6.92485 10
    endloop
  endfacet
  facet normal 0 0 1
    outer loop
      vertex 1.49688 5.02167 10
      vertex 3.81592 6.92485 10
      vertex 3.34824 7.55544 10
    endloop
  endfacet
  facet normal 0 0 1
    outer loop
      vertex 4.92485 5.81592 10
      vertex 3.02167 3.49688 10
      vertex 3.88873 2.85383 10
    endloop
  endfacet
  facet normal 0 0 1
    outer loop
      vertex 0.853834 5.88873 10
      vertex 3.34824 7.55544 10
      vertex 2.94463 8.22883 10
    endloop
  endfacet
  facet normal 0 0 1
    outer loop
      vertex 0.298865 6.81464 10
      vertex 2.94463 8.22883 10
      vertex 2.60896 8.93853 10
    endloop
  endfacet
  facet normal 0 0 1
    outer loop
      vertex -0.162674 7.79048 10
      vertex 2.60896 8.93853 10
      vertex 2.34448 9.67772 10
    endloop
  endfacet
  facet normal 0 0 1
    outer loop
      vertex 4.34315 6.34315 10
      vertex 2.22182 4.22182 10
      vertex 3.02167 3.49688 10
    endloop
  endfacet
  facet normal 0 0 1
    outer loop
      vertex -0.526343 8.80687 10
      vertex 2.34448 9.67772 10
      vertex 2.15372 10.4393 10
    endloop
  endfacet
  facet normal 0 0 1
    outer loop
      vertex -0.788637 9.85401 10
      vertex 2.15372 10.4393 10
      vertex 2.03852 11.2159 10
    endloop
  endfacet
  facet normal 0 0 1
    outer loop
      vertex -0.947032 10.9218 10
      vertex 2.03852 11.2159 10
      vertex 2 12 10
    endloop
  endfacet
  facet normal -0 0 1
    outer loop
      vertex -0.526343 15.1931 10
      vertex 2.34448 14.3223 10
      vertex -0.162674 16.2095 10
    endloop
  endfacet
  facet normal 0 0 1
    outer loop
      vertex 3.81592 6.92485 10
      vertex 1.49688 5.02167 10
      vertex 2.22182 4.22182 10
    endloop
  endfacet
  facet normal 0 0 1
    outer loop
      vertex 2.34448 14.3223 10
      vertex -0.526343 15.1931 10
      vertex 2.15372 13.5607 10
    endloop
  endfacet
  facet normal 0 0 1
    outer loop
      vertex 3.34824 7.55544 10
      vertex 0.853834 5.88873 10
      vertex 1.49688 5.02167 10
    endloop
  endfacet
  facet normal -0 0 1
    outer loop
      vertex -0.788637 14.146 10
      vertex 2.15372 13.5607 10
      vertex -0.526343 15.1931 10
    endloop
  endfacet
  facet normal 0 0 1
    outer loop
      vertex 2.94463 8.22883 10
      vertex 0.298865 6.81464 10
      vertex 0.853834 5.88873 10
    endloop
  endfacet
  facet normal 0 0 1
    outer loop
      vertex 2.15372 13.5607 10
      vertex -0.788637 14.146 10
      vertex 2.03852 12.7841 10
    endloop
  endfacet
  facet normal 0 0 1
    outer loop
      vertex 2.60896 8.93853 10
      vertex -0.162674 7.79048 10
      vertex 0.298865 6.81464 10
    endloop
  endfacet
  facet normal -0 0 1
    outer loop
      vertex -0.947032 13.0782 10
      vertex 2.03852 12.7841 10
      vertex -0.788637 14.146 10
    endloop
  endfacet
  facet normal 0 0 1
    outer loop
      vertex 2.34448 9.67772 10
      vertex -0.526343 8.80687 10
      vertex -0.162674 7.79048 10
    endloop
  endfacet
  facet normal 0 0 1
    outer loop
      vertex 2.03852 12.7841 10
      vertex -0.947032 13.0782 10
      vertex 2 12 10
    endloop
  endfacet
  facet normal 0 0 1
    outer loop
      vertex 2.15372 10.4393 10
      vertex -0.788637 9.85401 10
      vertex -0.526343 8.80687 10
    endloop
  endfacet
  facet normal 0 0 1
    outer loop
      vertex -1 12 10
      vertex 2 12 10
      vertex -0.947032 13.0782 10
    endloop
  endfacet
  facet normal 0 0 1
    outer loop
      vertex 2.03852 11.2159 10
      vertex -0.947032 10.9218 10
      vertex -0.788637 9.85401 10
    endloop
  endfacet
  facet normal 0 0 1
    outer loop
      vertex 2 12 10
      vertex -1 12 10
      vertex -0.947032 10.9218 10
    endloop
  endfacet
  facet normal 0.146737 0.989176 -0
    outer loop
      vertex 28.146 22.7886 0
      vertex 27.0782 22.947 10
      vertex 28.146 22.7886 10
    endloop
  endfacet
  facet normal 0.146737 0.989176 0
    outer loop
      vertex 27.0782 22.947 10
      vertex 28.146 22.7886 0
      vertex 27.0782 22.947 0
    endloop
  endfacet
  facet normal -0.903989 -0.427556 0
    outer loop
      vertex 0.298865 6.81464 0
      vertex -0.162674 7.79048 10
      vertex -0.162674 7.79048 0
    endloop
  endfacet
  facet normal -0.903989 -0.427556 0
    outer loop
      vertex -0.162674 7.79048 10
      vertex 0.298865 6.81464 0
      vertex 0.298865 6.81464 10
    endloop
  endfacet
  facet normal -0.33689 -0.941544 0
    outer loop
      vertex 5.79048 1.83733 0
      vertex 6.80687 1.47366 10
      vertex 5.79048 1.83733 10
    endloop
  endfacet
  facet normal -0.33689 -0.941544 -0
    outer loop
      vertex 6.80687 1.47366 10
      vertex 5.79048 1.83733 0
      vertex 6.80687 1.47366 0
    endloop
  endfacet
  facet normal -0.740952 -0.671558 0
    outer loop
      vertex 2.22182 4.22182 0
      vertex 1.49688 5.02167 10
      vertex 1.49688 5.02167 0
    endloop
  endfacet
  facet normal -0.740952 -0.671558 0
    outer loop
      vertex 1.49688 5.02167 10
      vertex 2.22182 4.22182 0
      vertex 2.22182 4.22182 10
    endloop
  endfacet
  facet normal 0.336887 -0.941545 0
    outer loop
      vertex 29.1931 1.47366 0
      vertex 30.2095 1.83733 10
      vertex 29.1931 1.47366 10
    endloop
  endfacet
  facet normal 0.336887 -0.941545 0
    outer loop
      vertex 30.2095 1.83733 10
      vertex 29.1931 1.47366 0
      vertex 30.2095 1.83733 0
    endloop
  endfacet
  facet normal 0.049069 -0.998795 0
    outer loop
      vertex 26 1 0
      vertex 27.0782 1.05297 10
      vertex 26 1 10
    endloop
  endfacet
  facet normal 0.049069 -0.998795 0
    outer loop
      vertex 27.0782 1.05297 10
      vertex 26 1 0
      vertex 27.0782 1.05297 0
    endloop
  endfacet
  facet normal 0.941565 -0.336832 0
    outer loop
      vertex 36.1627 7.79048 10
      vertex 36.5263 8.80687 0
      vertex 36.5263 8.80687 10
    endloop
  endfacet
  facet normal 0.941565 -0.336832 0
    outer loop
      vertex 36.5263 8.80687 0
      vertex 36.1627 7.79048 10
      vertex 36.1627 7.79048 0
    endloop
  endfacet
  facet normal -0.242985 0.97003 0
    outer loop
      vertex 7.85401 22.7886 0
      vertex 6.80687 22.5263 10
      vertex 7.85401 22.7886 10
    endloop
  endfacet
  facet normal -0.242985 0.97003 0
    outer loop
      vertex 6.80687 22.5263 10
      vertex 7.85401 22.7886 0
      vertex 6.80687 22.5263 0
    endloop
  endfacet
  facet normal 0.970028 0.242993 0
    outer loop
      vertex 36.7886 14.146 10
      vertex 36.5263 15.1931 0
      vertex 36.5263 15.1931 10
    endloop
  endfacet
  facet normal 0.970028 0.242993 0
    outer loop
      vertex 36.5263 15.1931 0
      vertex 36.7886 14.146 10
      vertex 36.7886 14.146 0
    endloop
  endfacet
  facet normal 0.857754 0.51406 0
    outer loop
      vertex 35.7011 17.1854 10
      vertex 35.1462 18.1113 0
      vertex 35.1462 18.1113 10
    endloop
  endfacet
  facet normal 0.857754 0.51406 0
    outer loop
      vertex 35.1462 18.1113 0
      vertex 35.7011 17.1854 10
      vertex 35.7011 17.1854 0
    endloop
  endfacet
  facet normal -0.970031 -0.242979 0
    outer loop
      vertex -0.526343 8.80687 0
      vertex -0.788637 9.85401 10
      vertex -0.788637 9.85401 0
    endloop
  endfacet
  facet normal -0.970031 -0.242979 0
    outer loop
      vertex -0.788637 9.85401 10
      vertex -0.526343 8.80687 0
      vertex -0.526343 8.80687 10
    endloop
  endfacet
  facet normal -0.146728 -0.989177 0
    outer loop
      vertex 7.85401 1.21136 0
      vertex 8.92181 1.05297 10
      vertex 7.85401 1.21136 10
    endloop
  endfacet
  facet normal -0.146728 -0.989177 -0
    outer loop
      vertex 8.92181 1.05297 10
      vertex 7.85401 1.21136 0
      vertex 8.92181 1.05297 0
    endloop
  endfacet
  facet normal -0.514097 -0.857732 0
    outer loop
      vertex 3.88873 2.85383 0
      vertex 4.81464 2.29887 10
      vertex 3.88873 2.85383 10
    endloop
  endfacet
  facet normal -0.514097 -0.857732 -0
    outer loop
      vertex 4.81464 2.29887 10
      vertex 3.88873 2.85383 0
      vertex 4.81464 2.29887 0
    endloop
  endfacet
  facet normal -0.427557 -0.903989 0
    outer loop
      vertex 4.81464 2.29887 0
      vertex 5.79048 1.83733 10
      vertex 4.81464 2.29887 10
    endloop
  endfacet
  facet normal -0.427557 -0.903989 -0
    outer loop
      vertex 5.79048 1.83733 10
      vertex 4.81464 2.29887 0
      vertex 5.79048 1.83733 0
    endloop
  endfacet
  facet normal -0.803212 -0.595694 0
    outer loop
      vertex 1.49688 5.02167 0
      vertex 0.853834 5.88873 10
      vertex 0.853834 5.88873 0
    endloop
  endfacet
  facet normal -0.803212 -0.595694 0
    outer loop
      vertex 0.853834 5.88873 10
      vertex 1.49688 5.02167 0
      vertex 1.49688 5.02167 10
    endloop
  endfacet
  facet normal -0.941544 -0.336889 0
    outer loop
      vertex -0.162674 7.79048 0
      vertex -0.526343 8.80687 10
      vertex -0.526343 8.80687 0
    endloop
  endfacet
  facet normal -0.941544 -0.336889 0
    outer loop
      vertex -0.526343 8.80687 10
      vertex -0.162674 7.79048 0
      vertex -0.162674 7.79048 10
    endloop
  endfacet
  facet normal 0 0 -1
    outer loop
      vertex 36.947 10.9218 0
      vertex 36.947 13.0782 0
      vertex 37 12 0
    endloop
  endfacet
  facet normal 0 0 -1
    outer loop
      vertex 36.7886 9.85401 0
      vertex 36.947 13.0782 0
      vertex 36.947 10.9218 0
    endloop
  endfacet
  facet normal 0 0 -1
    outer loop
      vertex 36.7886 9.85401 0
      vertex 36.7886 14.146 0
      vertex 36.947 13.0782 0
    endloop
  endfacet
  facet normal 0 0 -1
    outer loop
      vertex 36.5263 8.80687 0
      vertex 36.7886 14.146 0
      vertex 36.7886 9.85401 0
    endloop
  endfacet
  facet normal 0 0 -1
    outer loop
      vertex 36.5263 8.80687 0
      vertex 36.5263 15.1931 0
      vertex 36.7886 14.146 0
    endloop
  endfacet
  facet normal 0 0 -1
    outer loop
      vertex 36.1627 7.79048 0
      vertex 36.5263 15.1931 0
      vertex 36.5263 8.80687 0
    endloop
  endfacet
  facet normal 0 0 -1
    outer loop
      vertex 36.1627 7.79048 0
      vertex 36.1627 16.2095 0
      vertex 36.5263 15.1931 0
    endloop
  endfacet
  facet normal 0 0 -1
    outer loop
      vertex 35.7011 6.81464 0
      vertex 36.1627 16.2095 0
      vertex 36.1627 7.79048 0
    endloop
  endfacet
  facet normal 0 0 -1
    outer loop
      vertex 35.7011 6.81464 0
      vertex 35.7011 17.1854 0
      vertex 36.1627 16.2095 0
    endloop
  endfacet
  facet normal 0 0 -1
    outer loop
      vertex 35.1462 5.88873 0
      vertex 35.7011 17.1854 0
      vertex 35.7011 6.81464 0
    endloop
  endfacet
  facet normal 0 0 -1
    outer loop
      vertex 35.1462 5.88873 0
      vertex 35.1462 18.1113 0
      vertex 35.7011 17.1854 0
    endloop
  endfacet
  facet normal 0 0 -1
    outer loop
      vertex 34.5031 5.02167 0
      vertex 35.1462 18.1113 0
      vertex 35.1462 5.88873 0
    endloop
  endfacet
  facet normal 0 0 -1
    outer loop
      vertex 34.5031 5.02167 0
      vertex 34.5031 18.9783 0
      vertex 35.1462 18.1113 0
    endloop
  endfacet
  facet normal 0 0 -1
    outer loop
      vertex 33.7782 4.22182 0
      vertex 34.5031 18.9783 0
      vertex 34.5031 5.02167 0
    endloop
  endfacet
  facet normal 0 0 -1
    outer loop
      vertex 33.7782 4.22182 0
      vertex 33.7782 19.7782 0
      vertex 34.5031 18.9783 0
    endloop
  endfacet
  facet normal 0 0 -1
    outer loop
      vertex 32.9783 3.49688 0
      vertex 33.7782 19.7782 0
      vertex 33.7782 4.22182 0
    endloop
  endfacet
  facet normal 0 0 -1
    outer loop
      vertex 32.9783 3.49688 0
      vertex 32.9783 20.5031 0
      vertex 33.7782 19.7782 0
    endloop
  endfacet
  facet normal 0 0 -1
    outer loop
      vertex 32.1113 2.85383 0
      vertex 32.9783 20.5031 0
      vertex 32.9783 3.49688 0
    endloop
  endfacet
  facet normal 0 0 -1
    outer loop
      vertex 32.1113 2.85383 0
      vertex 32.1113 21.1462 0
      vertex 32.9783 20.5031 0
    endloop
  endfacet
  facet normal 0 0 -1
    outer loop
      vertex 31.1854 2.29887 0
      vertex 32.1113 21.1462 0
      vertex 32.1113 2.85383 0
    endloop
  endfacet
  facet normal 0 0 -1
    outer loop
      vertex 31.1854 2.29887 0
      vertex 31.1854 21.7011 0
      vertex 32.1113 21.1462 0
    endloop
  endfacet
  facet normal 0 0 -1
    outer loop
      vertex 30.2095 1.83733 0
      vertex 31.1854 21.7011 0
      vertex 31.1854 2.29887 0
    endloop
  endfacet
  facet normal 0 0 -1
    outer loop
      vertex 30.2095 1.83733 0
      vertex 30.2095 22.1627 0
      vertex 31.1854 21.7011 0
    endloop
  endfacet
  facet normal 0 0 -1
    outer loop
      vertex 29.1931 1.47366 0
      vertex 30.2095 22.1627 0
      vertex 30.2095 1.83733 0
    endloop
  endfacet
  facet normal 0 0 -1
    outer loop
      vertex 29.1931 1.47366 0
      vertex 29.1931 22.5263 0
      vertex 30.2095 22.1627 0
    endloop
  endfacet
  facet normal 0 0 -1
    outer loop
      vertex 28.146 1.21136 0
      vertex 29.1931 22.5263 0
      vertex 29.1931 1.47366 0
    endloop
  endfacet
  facet normal 0 0 -1
    outer loop
      vertex 28.146 1.21136 0
      vertex 28.146 22.7886 0
      vertex 29.1931 22.5263 0
    endloop
  endfacet
  facet normal 0 0 -1
    outer loop
      vertex 27.0782 1.05297 0
      vertex 28.146 22.7886 0
      vertex 28.146 1.21136 0
    endloop
  endfacet
  facet normal 0 0 -1
    outer loop
      vertex 27.0782 1.05297 0
      vertex 27.0782 22.947 0
      vertex 28.146 22.7886 0
    endloop
  endfacet
  facet normal 0 0 -1
    outer loop
      vertex 26 1 0
      vertex 27.0782 22.947 0
      vertex 27.0782 1.05297 0
    endloop
  endfacet
  facet normal 0 0 -1
    outer loop
      vertex 26 1 0
      vertex 26 23 0
      vertex 27.0782 22.947 0
    endloop
  endfacet
  facet normal 0 0 -1
    outer loop
      vertex 10 1 0
      vertex 26 23 0
      vertex 26 1 0
    endloop
  endfacet
  facet normal 0 0 -1
    outer loop
      vertex 10 1 0
      vertex 10 23 0
      vertex 26 23 0
    endloop
  endfacet
  facet normal 0 0 -1
    outer loop
      vertex 8.92181 1.05297 0
      vertex 10 23 0
      vertex 10 1 0
    endloop
  endfacet
  facet normal 0 0 -1
    outer loop
      vertex 8.92181 1.05297 0
      vertex 8.92181 22.947 0
      vertex 10 23 0
    endloop
  endfacet
  facet normal 0 0 -1
    outer loop
      vertex 7.85401 1.21136 0
      vertex 8.92181 22.947 0
      vertex 8.92181 1.05297 0
    endloop
  endfacet
  facet normal 0 0 -1
    outer loop
      vertex 7.85401 1.21136 0
      vertex 7.85401 22.7886 0
      vertex 8.92181 22.947 0
    endloop
  endfacet
  facet normal 0 0 -1
    outer loop
      vertex 6.80687 1.47366 0
      vertex 7.85401 22.7886 0
      vertex 7.85401 1.21136 0
    endloop
  endfacet
  facet normal 0 0 -1
    outer loop
      vertex 6.80687 1.47366 0
      vertex 6.80687 22.5263 0
      vertex 7.85401 22.7886 0
    endloop
  endfacet
  facet normal 0 0 -1
    outer loop
      vertex 5.79048 1.83733 0
      vertex 6.80687 22.5263 0
      vertex 6.80687 1.47366 0
    endloop
  endfacet
  facet normal 0 0 -1
    outer loop
      vertex 5.79048 1.83733 0
      vertex 5.79048 22.1627 0
      vertex 6.80687 22.5263 0
    endloop
  endfacet
  facet normal 0 0 -1
    outer loop
      vertex 4.81464 2.29887 0
      vertex 5.79048 22.1627 0
      vertex 5.79048 1.83733 0
    endloop
  endfacet
  facet normal 0 0 -1
    outer loop
      vertex 4.81464 2.29887 0
      vertex 4.81464 21.7011 0
      vertex 5.79048 22.1627 0
    endloop
  endfacet
  facet normal 0 0 -1
    outer loop
      vertex 3.88873 2.85383 0
      vertex 4.81464 21.7011 0
      vertex 4.81464 2.29887 0
    endloop
  endfacet
  facet normal 0 0 -1
    outer loop
      vertex 3.88873 2.85383 0
      vertex 3.88873 21.1462 0
      vertex 4.81464 21.7011 0
    endloop
  endfacet
  facet normal 0 0 -1
    outer loop
      vertex 3.02167 3.49688 0
      vertex 3.88873 21.1462 0
      vertex 3.88873 2.85383 0
    endloop
  endfacet
  facet normal 0 0 -1
    outer loop
      vertex 3.02167 3.49688 0
      vertex 3.02167 20.5031 0
      vertex 3.88873 21.1462 0
    endloop
  endfacet
  facet normal 0 0 -1
    outer loop
      vertex 2.22182 4.22182 0
      vertex 3.02167 20.5031 0
      vertex 3.02167 3.49688 0
    endloop
  endfacet
  facet normal 0 0 -1
    outer loop
      vertex 2.22182 4.22182 0
      vertex 2.22182 19.7782 0
      vertex 3.02167 20.5031 0
    endloop
  endfacet
  facet normal 0 0 -1
    outer loop
      vertex 1.49688 5.02167 0
      vertex 2.22182 19.7782 0
      vertex 2.22182 4.22182 0
    endloop
  endfacet
  facet normal 0 0 -1
    outer loop
      vertex 1.49688 5.02167 0
      vertex 1.49688 18.9783 0
      vertex 2.22182 19.7782 0
    endloop
  endfacet
  facet normal 0 0 -1
    outer loop
      vertex 0.853834 5.88873 0
      vertex 1.49688 18.9783 0
      vertex 1.49688 5.02167 0
    endloop
  endfacet
  facet normal 0 0 -1
    outer loop
      vertex 0.853834 5.88873 0
      vertex 0.853834 18.1113 0
      vertex 1.49688 18.9783 0
    endloop
  endfacet
  facet normal 0 0 -1
    outer loop
      vertex 0.298865 6.81464 0
      vertex 0.853834 18.1113 0
      vertex 0.853834 5.88873 0
    endloop
  endfacet
  facet normal 0 0 -1
    outer loop
      vertex 0.298865 6.81464 0
      vertex 0.298865 17.1854 0
      vertex 0.853834 18.1113 0
    endloop
  endfacet
  facet normal 0 0 -1
    outer loop
      vertex -0.162674 7.79048 0
      vertex 0.298865 17.1854 0
      vertex 0.298865 6.81464 0
    endloop
  endfacet
  facet normal 0 0 -1
    outer loop
      vertex -0.162674 7.79048 0
      vertex -0.162674 16.2095 0
      vertex 0.298865 17.1854 0
    endloop
  endfacet
  facet normal 0 0 -1
    outer loop
      vertex -0.526343 8.80687 0
      vertex -0.162674 16.2095 0
      vertex -0.162674 7.79048 0
    endloop
  endfacet
  facet normal 0 0 -1
    outer loop
      vertex -0.526343 8.80687 0
      vertex -0.526343 15.1931 0
      vertex -0.162674 16.2095 0
    endloop
  endfacet
  facet normal 0 0 -1
    outer loop
      vertex -0.788637 9.85401 0
      vertex -0.526343 15.1931 0
      vertex -0.526343 8.80687 0
    endloop
  endfacet
  facet normal 0 0 -1
    outer loop
      vertex -0.788637 9.85401 0
      vertex -0.788637 14.146 0
      vertex -0.526343 15.1931 0
    endloop
  endfacet
  facet normal 0 0 -1
    outer loop
      vertex -0.947032 10.9218 0
      vertex -0.788637 14.146 0
      vertex -0.788637 9.85401 0
    endloop
  endfacet
  facet normal 0 0 -1
    outer loop
      vertex -0.947032 10.9218 0
      vertex -0.947032 13.0782 0
      vertex -0.788637 14.146 0
    endloop
  endfacet
  facet normal 0 -0 -1
    outer loop
      vertex -0.947032 13.0782 0
      vertex -0.947032 10.9218 0
      vertex -1 12 0
    endloop
  endfacet
  facet normal 0.242993 -0.970028 0
    outer loop
      vertex 28.146 1.21136 0
      vertex 29.1931 1.47366 10
      vertex 28.146 1.21136 10
    endloop
  endfacet
  facet normal 0.242993 -0.970028 0
    outer loop
      vertex 29.1931 1.47366 10
      vertex 28.146 1.21136 0
      vertex 29.1931 1.47366 0
    endloop
  endfacet
  facet normal 0.671535 -0.740973 0
    outer loop
      vertex 32.9783 3.49688 0
      vertex 33.7782 4.22182 10
      vertex 32.9783 3.49688 10
    endloop
  endfacet
  facet normal 0.671535 -0.740973 0
    outer loop
      vertex 33.7782 4.22182 10
      vertex 32.9783 3.49688 0
      vertex 33.7782 4.22182 0
    endloop
  endfacet
  facet normal 0.74097 -0.671538 0
    outer loop
      vertex 33.7782 4.22182 10
      vertex 34.5031 5.02167 0
      vertex 34.5031 5.02167 10
    endloop
  endfacet
  facet normal 0.74097 -0.671538 0
    outer loop
      vertex 34.5031 5.02167 0
      vertex 33.7782 4.22182 10
      vertex 33.7782 4.22182 0
    endloop
  endfacet
  facet normal 0.97003 -0.242985 0
    outer loop
      vertex 36.5263 8.80687 10
      vertex 36.7886 9.85401 0
      vertex 36.7886 9.85401 10
    endloop
  endfacet
  facet normal 0.97003 -0.242985 0
    outer loop
      vertex 36.7886 9.85401 0
      vertex 36.5263 8.80687 10
      vertex 36.5263 8.80687 0
    endloop
  endfacet
  facet normal -0.941545 0.336886 0
    outer loop
      vertex -0.526343 15.1931 0
      vertex -0.162674 16.2095 10
      vertex -0.162674 16.2095 0
    endloop
  endfacet
  facet normal -0.941545 0.336886 0
    outer loop
      vertex -0.162674 16.2095 10
      vertex -0.526343 15.1931 0
      vertex -0.526343 15.1931 10
    endloop
  endfacet
  facet normal 0 1 -0
    outer loop
      vertex 26 23 0
      vertex 10 23 10
      vertex 26 23 10
    endloop
  endfacet
  facet normal 0 1 0
    outer loop
      vertex 10 23 10
      vertex 26 23 0
      vertex 10 23 0
    endloop
  endfacet
  facet normal 0.998794 0.0490967 0
    outer loop
      vertex 37 12 10
      vertex 36.947 13.0782 0
      vertex 36.947 13.0782 10
    endloop
  endfacet
  facet normal 0.998794 0.0490967 0
    outer loop
      vertex 36.947 13.0782 0
      vertex 37 12 10
      vertex 37 12 0
    endloop
  endfacet
  facet normal 0.989176 0.146737 0
    outer loop
      vertex 36.947 13.0782 10
      vertex 36.7886 14.146 0
      vertex 36.7886 14.146 10
    endloop
  endfacet
  facet normal 0.989176 0.146737 0
    outer loop
      vertex 36.7886 14.146 0
      vertex 36.947 13.0782 10
      vertex 36.947 13.0782 0
    endloop
  endfacet
  facet normal -0.242985 -0.97003 0
    outer loop
      vertex 6.80687 1.47366 0
      vertex 7.85401 1.21136 10
      vertex 6.80687 1.47366 10
    endloop
  endfacet
  facet normal -0.242985 -0.97003 -0
    outer loop
      vertex 7.85401 1.21136 10
      vertex 6.80687 1.47366 0
      vertex 7.85401 1.21136 0
    endloop
  endfacet
  facet normal -0.595696 -0.80321 0
    outer loop
      vertex 3.02167 3.49688 0
      vertex 3.88873 2.85383 10
      vertex 3.02167 3.49688 10
    endloop
  endfacet
  facet normal -0.595696 -0.80321 -0
    outer loop
      vertex 3.88873 2.85383 10
      vertex 3.02167 3.49688 0
      vertex 3.88873 2.85383 0
    endloop
  endfacet
  facet normal -0.857729 -0.514103 0
    outer loop
      vertex 0.853834 5.88873 0
      vertex 0.298865 6.81464 10
      vertex 0.298865 6.81464 0
    endloop
  endfacet
  facet normal -0.857729 -0.514103 0
    outer loop
      vertex 0.298865 6.81464 10
      vertex 0.853834 5.88873 0
      vertex 0.853834 5.88873 10
    endloop
  endfacet
  facet normal -0.989176 -0.146733 0
    outer loop
      vertex -0.788637 9.85401 0
      vertex -0.947032 10.9218 10
      vertex -0.947032 10.9218 0
    endloop
  endfacet
  facet normal -0.989176 -0.146733 0
    outer loop
      vertex -0.947032 10.9218 10
      vertex -0.788637 9.85401 0
      vertex -0.788637 9.85401 10
    endloop
  endfacet
  facet normal 0.146728 -0.989177 0
    outer loop
      vertex 27.0782 1.05297 0
      vertex 28.146 1.21136 10
      vertex 27.0782 1.05297 10
    endloop
  endfacet
  facet normal 0.146728 -0.989177 0
    outer loop
      vertex 28.146 1.21136 10
      vertex 27.0782 1.05297 0
      vertex 28.146 1.21136 0
    endloop
  endfacet
  facet normal 0.595723 -0.80319 0
    outer loop
      vertex 32.1113 2.85383 0
      vertex 32.9783 3.49688 10
      vertex 32.1113 2.85383 10
    endloop
  endfacet
  facet normal 0.595723 -0.80319 0
    outer loop
      vertex 32.9783 3.49688 10
      vertex 32.1113 2.85383 0
      vertex 32.9783 3.49688 0
    endloop
  endfacet
  facet normal 0.514101 -0.85773 0
    outer loop
      vertex 31.1854 2.29887 0
      vertex 32.1113 2.85383 10
      vertex 31.1854 2.29887 10
    endloop
  endfacet
  facet normal 0.514101 -0.85773 0
    outer loop
      vertex 32.1113 2.85383 10
      vertex 31.1854 2.29887 0
      vertex 32.1113 2.85383 0
    endloop
  endfacet
  facet normal 0.903967 -0.427602 0
    outer loop
      vertex 35.7011 6.81464 10
      vertex 36.1627 7.79048 0
      vertex 36.1627 7.79048 10
    endloop
  endfacet
  facet normal 0.903967 -0.427602 0
    outer loop
      vertex 36.1627 7.79048 0
      vertex 35.7011 6.81464 10
      vertex 35.7011 6.81464 0
    endloop
  endfacet
  facet normal 0.989175 -0.146738 0
    outer loop
      vertex 36.7886 9.85401 10
      vertex 36.947 10.9218 0
      vertex 36.947 10.9218 10
    endloop
  endfacet
  facet normal 0.989175 -0.146738 0
    outer loop
      vertex 36.947 10.9218 0
      vertex 36.7886 9.85401 10
      vertex 36.7886 9.85401 0
    endloop
  endfacet
  facet normal -0.970029 0.242988 0
    outer loop
      vertex -0.788637 14.146 0
      vertex -0.526343 15.1931 10
      vertex -0.526343 15.1931 0
    endloop
  endfacet
  facet normal -0.970029 0.242988 0
    outer loop
      vertex -0.526343 15.1931 10
      vertex -0.788637 14.146 0
      vertex -0.788637 14.146 10
    endloop
  endfacet
  facet normal -0.903999 0.427534 0
    outer loop
      vertex -0.162674 16.2095 0
      vertex 0.298865 17.1854 10
      vertex 0.298865 17.1854 0
    endloop
  endfacet
  facet normal -0.903999 0.427534 0
    outer loop
      vertex 0.298865 17.1854 10
      vertex -0.162674 16.2095 0
      vertex -0.162674 16.2095 10
    endloop
  endfacet
  facet normal -0.857726 0.514107 0
    outer loop
      vertex 0.298865 17.1854 0
      vertex 0.853834 18.1113 10
      vertex 0.853834 18.1113 0
    endloop
  endfacet
  facet normal -0.857726 0.514107 0
    outer loop
      vertex 0.853834 18.1113 10
      vertex 0.298865 17.1854 0
      vertex 0.298865 17.1854 10
    endloop
  endfacet
  facet normal -0.427602 0.903967 0
    outer loop
      vertex 5.79048 22.1627 0
      vertex 4.81464 21.7011 10
      vertex 5.79048 22.1627 10
    endloop
  endfacet
  facet normal -0.427602 0.903967 0
    outer loop
      vertex 4.81464 21.7011 10
      vertex 5.79048 22.1627 0
      vertex 4.81464 21.7011 0
    endloop
  endfacet
  facet normal -0.514056 0.857757 0
    outer loop
      vertex 4.81464 21.7011 0
      vertex 3.88873 21.1462 10
      vertex 4.81464 21.7011 10
    endloop
  endfacet
  facet normal -0.514056 0.857757 0
    outer loop
      vertex 3.88873 21.1462 10
      vertex 4.81464 21.7011 0
      vertex 3.88873 21.1462 0
    endloop
  endfacet
  facet normal -0.740973 0.671535 0
    outer loop
      vertex 1.49688 18.9783 0
      vertex 2.22182 19.7782 10
      vertex 2.22182 19.7782 0
    endloop
  endfacet
  facet normal -0.740973 0.671535 0
    outer loop
      vertex 2.22182 19.7782 10
      vertex 1.49688 18.9783 0
      vertex 1.49688 18.9783 10
    endloop
  endfacet
  facet normal -0.0490972 0.998794 0
    outer loop
      vertex 10 23 0
      vertex 8.92181 22.947 10
      vertex 10 23 10
    endloop
  endfacet
  facet normal -0.0490972 0.998794 0
    outer loop
      vertex 8.92181 22.947 10
      vertex 10 23 0
      vertex 8.92181 22.947 0
    endloop
  endfacet
  facet normal 0.336829 0.941566 -0
    outer loop
      vertex 30.2095 22.1627 0
      vertex 29.1931 22.5263 10
      vertex 30.2095 22.1627 10
    endloop
  endfacet
  facet normal 0.336829 0.941566 0
    outer loop
      vertex 29.1931 22.5263 10
      vertex 30.2095 22.1627 0
      vertex 29.1931 22.5263 0
    endloop
  endfacet
  facet normal 0.427581 0.903977 -0
    outer loop
      vertex 31.1854 21.7011 0
      vertex 30.2095 22.1627 10
      vertex 31.1854 21.7011 10
    endloop
  endfacet
  facet normal 0.427581 0.903977 0
    outer loop
      vertex 30.2095 22.1627 10
      vertex 31.1854 21.7011 0
      vertex 30.2095 22.1627 0
    endloop
  endfacet
  facet normal 0.740991 0.671515 0
    outer loop
      vertex 34.5031 18.9783 10
      vertex 33.7782 19.7782 0
      vertex 33.7782 19.7782 10
    endloop
  endfacet
  facet normal 0.740991 0.671515 0
    outer loop
      vertex 33.7782 19.7782 0
      vertex 34.5031 18.9783 10
      vertex 34.5031 18.9783 0
    endloop
  endfacet
  facet normal 0.857757 -0.514056 0
    outer loop
      vertex 35.1462 5.88873 10
      vertex 35.7011 6.81464 0
      vertex 35.7011 6.81464 10
    endloop
  endfacet
  facet normal 0.857757 -0.514056 0
    outer loop
      vertex 35.7011 6.81464 0
      vertex 35.1462 5.88873 10
      vertex 35.1462 5.88873 0
    endloop
  endfacet
  facet normal -0.595726 0.803188 0
    outer loop
      vertex 3.88873 21.1462 0
      vertex 3.02167 20.5031 10
      vertex 3.88873 21.1462 10
    endloop
  endfacet
  facet normal -0.595726 0.803188 0
    outer loop
      vertex 3.02167 20.5031 10
      vertex 3.88873 21.1462 0
      vertex 3.02167 20.5031 0
    endloop
  endfacet
  facet normal -0.671538 0.74097 0
    outer loop
      vertex 3.02167 20.5031 0
      vertex 2.22182 19.7782 10
      vertex 3.02167 20.5031 10
    endloop
  endfacet
  facet normal -0.671538 0.74097 0
    outer loop
      vertex 2.22182 19.7782 10
      vertex 3.02167 20.5031 0
      vertex 2.22182 19.7782 0
    endloop
  endfacet
  facet normal -0.146737 0.989176 0
    outer loop
      vertex 8.92181 22.947 0
      vertex 7.85401 22.7886 10
      vertex 8.92181 22.947 10
    endloop
  endfacet
  facet normal -0.146737 0.989176 0
    outer loop
      vertex 7.85401 22.7886 10
      vertex 8.92181 22.947 0
      vertex 7.85401 22.7886 0
    endloop
  endfacet
  facet normal 0.242993 0.970028 -0
    outer loop
      vertex 29.1931 22.5263 0
      vertex 28.146 22.7886 10
      vertex 29.1931 22.5263 10
    endloop
  endfacet
  facet normal 0.242993 0.970028 0
    outer loop
      vertex 28.146 22.7886 10
      vertex 29.1931 22.5263 0
      vertex 28.146 22.7886 0
    endloop
  endfacet
  facet normal 0.51406 0.857754 -0
    outer loop
      vertex 32.1113 21.1462 0
      vertex 31.1854 21.7011 10
      vertex 32.1113 21.1462 10
    endloop
  endfacet
  facet normal 0.51406 0.857754 0
    outer loop
      vertex 31.1854 21.7011 10
      vertex 32.1113 21.1462 0
      vertex 31.1854 21.7011 0
    endloop
  endfacet
  facet normal 0.595752 0.803168 -0
    outer loop
      vertex 32.9783 20.5031 0
      vertex 32.1113 21.1462 10
      vertex 32.9783 20.5031 10
    endloop
  endfacet
  facet normal 0.595752 0.803168 0
    outer loop
      vertex 32.1113 21.1462 10
      vertex 32.9783 20.5031 0
      vertex 32.1113 21.1462 0
    endloop
  endfacet
  facet normal 0.803168 0.595752 0
    outer loop
      vertex 35.1462 18.1113 10
      vertex 34.5031 18.9783 0
      vertex 34.5031 18.9783 10
    endloop
  endfacet
  facet normal 0.803168 0.595752 0
    outer loop
      vertex 34.5031 18.9783 0
      vertex 35.1462 18.1113 10
      vertex 35.1462 18.1113 0
    endloop
  endfacet
  facet normal 0.671515 0.740991 -0
    outer loop
      vertex 33.7782 19.7782 0
      vertex 32.9783 20.5031 10
      vertex 33.7782 19.7782 10
    endloop
  endfacet
  facet normal 0.671515 0.740991 0
    outer loop
      vertex 32.9783 20.5031 10
      vertex 33.7782 19.7782 0
      vertex 32.9783 20.5031 0
    endloop
  endfacet
  facet normal 0.903977 0.427581 0
    outer loop
      vertex 36.1627 16.2095 10
      vertex 35.7011 17.1854 0
      vertex 35.7011 17.1854 10
    endloop
  endfacet
  facet normal 0.903977 0.427581 0
    outer loop
      vertex 35.7011 17.1854 0
      vertex 36.1627 16.2095 10
      vertex 36.1627 16.2095 0
    endloop
  endfacet
  facet normal 0.941566 0.336829 0
    outer loop
      vertex 36.5263 15.1931 10
      vertex 36.1627 16.2095 0
      vertex 36.1627 16.2095 10
    endloop
  endfacet
  facet normal 0.941566 0.336829 0
    outer loop
      vertex 36.1627 16.2095 0
      vertex 36.5263 15.1931 10
      vertex 36.5263 15.1931 0
    endloop
  endfacet
  facet normal 0.998795 -0.0490672 0
    outer loop
      vertex 2 12 10
      vertex 2.03852 12.7841 3
      vertex 2.03852 12.7841 10
    endloop
  endfacet
  facet normal 0.998795 -0.0490672 0
    outer loop
      vertex 2.03852 12.7841 3
      vertex 2 12 10
      vertex 2 12 3
    endloop
  endfacet
  facet normal 0.998795 0.0490672 0
    outer loop
      vertex 2.03852 11.2159 10
      vertex 2 12 3
      vertex 2 12 10
    endloop
  endfacet
  facet normal 0.998795 0.0490672 0
    outer loop
      vertex 2 12 3
      vertex 2.03852 11.2159 10
      vertex 2.03852 11.2159 3
    endloop
  endfacet
  facet normal -0.741023 -0.67148 0
    outer loop
      vertex 32.1841 17.0751 3
      vertex 31.6569 17.6569 10
      vertex 31.6569 17.6569 3
    endloop
  endfacet
  facet normal -0.741023 -0.67148 0
    outer loop
      vertex 31.6569 17.6569 10
      vertex 32.1841 17.0751 3
      vertex 32.1841 17.0751 10
    endloop
  endfacet
  facet normal -0.514084 -0.85774 0
    outer loop
      vertex 29.7712 19.0554 3
      vertex 30.4446 18.6518 10
      vertex 29.7712 19.0554 10
    endloop
  endfacet
  facet normal -0.514084 -0.85774 -0
    outer loop
      vertex 30.4446 18.6518 10
      vertex 29.7712 19.0554 3
      vertex 30.4446 18.6518 3
    endloop
  endfacet
  facet normal -0.94154 -0.336901 0
    outer loop
      vertex 33.6555 14.3223 3
      vertex 33.391 15.0615 10
      vertex 33.391 15.0615 3
    endloop
  endfacet
  facet normal -0.94154 -0.336901 0
    outer loop
      vertex 33.391 15.0615 10
      vertex 33.6555 14.3223 3
      vertex 33.6555 14.3223 10
    endloop
  endfacet
  facet normal 0.243027 -0.970019 0
    outer loop
      vertex 7.67772 19.6555 3
      vertex 8.43928 19.8463 10
      vertex 7.67772 19.6555 10
    endloop
  endfacet
  facet normal 0.243027 -0.970019 0
    outer loop
      vertex 8.43928 19.8463 10
      vertex 7.67772 19.6555 3
      vertex 8.43928 19.8463 3
    endloop
  endfacet
  facet normal 0 -1 0
    outer loop
      vertex 10 20 3
      vertex 26 20 10
      vertex 10 20 10
    endloop
  endfacet
  facet normal 0 -1 -0
    outer loop
      vertex 26 20 10
      vertex 10 20 3
      vertex 26 20 3
    endloop
  endfacet
  facet normal 0.903986 0.427562 0
    outer loop
      vertex 2.94463 8.22883 10
      vertex 2.60896 8.93853 3
      vertex 2.60896 8.93853 10
    endloop
  endfacet
  facet normal 0.903986 0.427562 0
    outer loop
      vertex 2.60896 8.93853 3
      vertex 2.94463 8.22883 10
      vertex 2.94463 8.22883 3
    endloop
  endfacet
  facet normal 0.336883 0.941547 -0
    outer loop
      vertex 7.67772 4.34448 3
      vertex 6.93853 4.60896 10
      vertex 7.67772 4.34448 10
    endloop
  endfacet
  facet normal 0.336883 0.941547 0
    outer loop
      vertex 6.93853 4.60896 10
      vertex 7.67772 4.34448 3
      vertex 6.93853 4.60896 3
    endloop
  endfacet
  facet normal -0.595773 -0.803153 0
    outer loop
      vertex 30.4446 18.6518 3
      vertex 31.0751 18.1841 10
      vertex 30.4446 18.6518 10
    endloop
  endfacet
  facet normal -0.595773 -0.803153 -0
    outer loop
      vertex 31.0751 18.1841 10
      vertex 30.4446 18.6518 3
      vertex 31.0751 18.1841 3
    endloop
  endfacet
  facet normal -0.989176 -0.146733 0
    outer loop
      vertex 33.9615 12.7841 3
      vertex 33.8463 13.5607 10
      vertex 33.8463 13.5607 3
    endloop
  endfacet
  facet normal -0.989176 -0.146733 0
    outer loop
      vertex 33.8463 13.5607 10
      vertex 33.9615 12.7841 3
      vertex 33.9615 12.7841 10
    endloop
  endfacet
  facet normal 0.989176 -0.146733 0
    outer loop
      vertex 2.03852 12.7841 10
      vertex 2.15372 13.5607 3
      vertex 2.15372 13.5607 10
    endloop
  endfacet
  facet normal 0.989176 -0.146733 0
    outer loop
      vertex 2.15372 13.5607 3
      vertex 2.03852 12.7841 10
      vertex 2.03852 12.7841 3
    endloop
  endfacet
  facet normal 0 1 -0
    outer loop
      vertex 26 4 3
      vertex 10 4 10
      vertex 26 4 10
    endloop
  endfacet
  facet normal 0 1 0
    outer loop
      vertex 10 4 10
      vertex 26 4 3
      vertex 10 4 3
    endloop
  endfacet
  facet normal 0.242979 0.970032 -0
    outer loop
      vertex 8.43928 4.15372 3
      vertex 7.67772 4.34448 10
      vertex 8.43928 4.15372 10
    endloop
  endfacet
  facet normal 0.242979 0.970032 0
    outer loop
      vertex 7.67772 4.34448 10
      vertex 8.43928 4.15372 3
      vertex 7.67772 4.34448 3
    endloop
  endfacet
  facet normal -0.0490672 0.998795 0
    outer loop
      vertex 26.7841 4.03852 3
      vertex 26 4 10
      vertex 26.7841 4.03852 10
    endloop
  endfacet
  facet normal -0.0490672 0.998795 0
    outer loop
      vertex 26 4 10
      vertex 26.7841 4.03852 3
      vertex 26 4 3
    endloop
  endfacet
  facet normal -0.0490418 -0.998797 0
    outer loop
      vertex 26 20 3
      vertex 26.7841 19.9615 10
      vertex 26 20 10
    endloop
  endfacet
  facet normal -0.0490418 -0.998797 -0
    outer loop
      vertex 26.7841 19.9615 10
      vertex 26 20 3
      vertex 26.7841 19.9615 3
    endloop
  endfacet
  facet normal -0.427489 -0.90402 0
    outer loop
      vertex 29.0615 19.391 3
      vertex 29.7712 19.0554 10
      vertex 29.0615 19.391 10
    endloop
  endfacet
  facet normal -0.427489 -0.90402 -0
    outer loop
      vertex 29.7712 19.0554 10
      vertex 29.0615 19.391 3
      vertex 29.7712 19.0554 3
    endloop
  endfacet
  facet normal -0.336901 -0.94154 0
    outer loop
      vertex 28.3223 19.6555 3
      vertex 29.0615 19.391 10
      vertex 28.3223 19.6555 10
    endloop
  endfacet
  facet normal -0.336901 -0.94154 -0
    outer loop
      vertex 29.0615 19.391 10
      vertex 28.3223 19.6555 3
      vertex 29.0615 19.391 3
    endloop
  endfacet
  facet normal -0.90402 -0.427489 0
    outer loop
      vertex 33.391 15.0615 3
      vertex 33.0554 15.7712 10
      vertex 33.0554 15.7712 3
    endloop
  endfacet
  facet normal -0.90402 -0.427489 0
    outer loop
      vertex 33.0554 15.7712 10
      vertex 33.391 15.0615 3
      vertex 33.391 15.0615 10
    endloop
  endfacet
  facet normal -0.85774 -0.514084 0
    outer loop
      vertex 33.0554 15.7712 3
      vertex 32.6518 16.4446 10
      vertex 32.6518 16.4446 3
    endloop
  endfacet
  facet normal -0.85774 -0.514084 0
    outer loop
      vertex 32.6518 16.4446 10
      vertex 33.0554 15.7712 3
      vertex 33.0554 15.7712 10
    endloop
  endfacet
  facet normal -0.803153 -0.595773 0
    outer loop
      vertex 32.6518 16.4446 3
      vertex 32.1841 17.0751 10
      vertex 32.1841 17.0751 3
    endloop
  endfacet
  facet normal -0.803153 -0.595773 0
    outer loop
      vertex 32.1841 17.0751 10
      vertex 32.6518 16.4446 3
      vertex 32.6518 16.4446 10
    endloop
  endfacet
  facet normal -0.998797 -0.0490418 0
    outer loop
      vertex 34 12 3
      vertex 33.9615 12.7841 10
      vertex 33.9615 12.7841 3
    endloop
  endfacet
  facet normal -0.998797 -0.0490418 0
    outer loop
      vertex 33.9615 12.7841 10
      vertex 34 12 3
      vertex 34 12 10
    endloop
  endfacet
  facet normal 0.146737 -0.989176 0
    outer loop
      vertex 8.43928 19.8463 3
      vertex 9.21586 19.9615 10
      vertex 8.43928 19.8463 10
    endloop
  endfacet
  facet normal 0.146737 -0.989176 0
    outer loop
      vertex 9.21586 19.9615 10
      vertex 8.43928 19.8463 3
      vertex 9.21586 19.9615 3
    endloop
  endfacet
  facet normal 0.0490393 -0.998797 0
    outer loop
      vertex 9.21586 19.9615 3
      vertex 10 20 10
      vertex 9.21586 19.9615 10
    endloop
  endfacet
  facet normal 0.0490393 -0.998797 0
    outer loop
      vertex 10 20 10
      vertex 9.21586 19.9615 3
      vertex 10 20 3
    endloop
  endfacet
  facet normal 0.595718 -0.803194 0
    outer loop
      vertex 4.92485 18.1841 3
      vertex 5.55544 18.6518 10
      vertex 4.92485 18.1841 10
    endloop
  endfacet
  facet normal 0.595718 -0.803194 0
    outer loop
      vertex 5.55544 18.6518 10
      vertex 4.92485 18.1841 3
      vertex 5.55544 18.6518 3
    endloop
  endfacet
  facet normal 0.671543 -0.740965 0
    outer loop
      vertex 4.34315 17.6569 3
      vertex 4.92485 18.1841 10
      vertex 4.34315 17.6569 10
    endloop
  endfacet
  facet normal 0.671543 -0.740965 0
    outer loop
      vertex 4.92485 18.1841 10
      vertex 4.34315 17.6569 3
      vertex 4.92485 18.1841 3
    endloop
  endfacet
  facet normal 0.427489 -0.90402 0
    outer loop
      vertex 6.22883 19.0554 3
      vertex 6.93853 19.391 10
      vertex 6.22883 19.0554 10
    endloop
  endfacet
  facet normal 0.427489 -0.90402 0
    outer loop
      vertex 6.93853 19.391 10
      vertex 6.22883 19.0554 3
      vertex 6.93853 19.391 3
    endloop
  endfacet
  facet normal 0.514089 -0.857737 0
    outer loop
      vertex 5.55544 18.6518 3
      vertex 6.22883 19.0554 10
      vertex 5.55544 18.6518 10
    endloop
  endfacet
  facet normal 0.514089 -0.857737 0
    outer loop
      vertex 6.22883 19.0554 10
      vertex 5.55544 18.6518 3
      vertex 6.22883 19.0554 3
    endloop
  endfacet
  facet normal 0.336905 -0.941539 0
    outer loop
      vertex 6.93853 19.391 3
      vertex 7.67772 19.6555 10
      vertex 6.93853 19.391 10
    endloop
  endfacet
  facet normal 0.336905 -0.941539 0
    outer loop
      vertex 7.67772 19.6555 10
      vertex 6.93853 19.391 3
      vertex 7.67772 19.6555 3
    endloop
  endfacet
  facet normal 0.803165 -0.595756 0
    outer loop
      vertex 3.34824 16.4446 10
      vertex 3.81592 17.0751 3
      vertex 3.81592 17.0751 10
    endloop
  endfacet
  facet normal 0.803165 -0.595756 0
    outer loop
      vertex 3.81592 17.0751 3
      vertex 3.34824 16.4446 10
      vertex 3.34824 16.4446 3
    endloop
  endfacet
  facet normal 0.903986 -0.427562 0
    outer loop
      vertex 2.60896 15.0615 10
      vertex 2.94463 15.7712 3
      vertex 2.94463 15.7712 10
    endloop
  endfacet
  facet normal 0.903986 -0.427562 0
    outer loop
      vertex 2.94463 15.7712 3
      vertex 2.60896 15.0615 10
      vertex 2.60896 15.0615 3
    endloop
  endfacet
  facet normal 0.857734 -0.514093 0
    outer loop
      vertex 2.94463 15.7712 10
      vertex 3.34824 16.4446 3
      vertex 3.34824 16.4446 10
    endloop
  endfacet
  facet normal 0.857734 -0.514093 0
    outer loop
      vertex 3.34824 16.4446 3
      vertex 2.94463 15.7712 10
      vertex 2.94463 15.7712 3
    endloop
  endfacet
  facet normal 0.941548 -0.336879 0
    outer loop
      vertex 2.34448 14.3223 10
      vertex 2.60896 15.0615 3
      vertex 2.60896 15.0615 10
    endloop
  endfacet
  facet normal 0.941548 -0.336879 0
    outer loop
      vertex 2.60896 15.0615 3
      vertex 2.34448 14.3223 10
      vertex 2.34448 14.3223 3
    endloop
  endfacet
  facet normal 0 0 1
    outer loop
      vertex 33.9615 12.7841 3
      vertex 33.9615 11.2159 3
      vertex 34 12 3
    endloop
  endfacet
  facet normal 0 0 1
    outer loop
      vertex 33.8463 13.5607 3
      vertex 33.9615 11.2159 3
      vertex 33.9615 12.7841 3
    endloop
  endfacet
  facet normal 0 0 1
    outer loop
      vertex 33.8463 13.5607 3
      vertex 33.8463 10.4393 3
      vertex 33.9615 11.2159 3
    endloop
  endfacet
  facet normal 0 0 1
    outer loop
      vertex 33.6555 14.3223 3
      vertex 33.8463 10.4393 3
      vertex 33.8463 13.5607 3
    endloop
  endfacet
  facet normal 0 0 1
    outer loop
      vertex 33.6555 14.3223 3
      vertex 33.6555 9.67772 3
      vertex 33.8463 10.4393 3
    endloop
  endfacet
  facet normal 0 0 1
    outer loop
      vertex 33.391 15.0615 3
      vertex 33.6555 9.67772 3
      vertex 33.6555 14.3223 3
    endloop
  endfacet
  facet normal 0 0 1
    outer loop
      vertex 33.391 15.0615 3
      vertex 33.391 8.93853 3
      vertex 33.6555 9.67772 3
    endloop
  endfacet
  facet normal 0 0 1
    outer loop
      vertex 33.0554 15.7712 3
      vertex 33.391 8.93853 3
      vertex 33.391 15.0615 3
    endloop
  endfacet
  facet normal 0 0 1
    outer loop
      vertex 33.0554 15.7712 3
      vertex 33.0554 8.22883 3
      vertex 33.391 8.93853 3
    endloop
  endfacet
  facet normal 0 0 1
    outer loop
      vertex 32.6518 16.4446 3
      vertex 33.0554 8.22883 3
      vertex 33.0554 15.7712 3
    endloop
  endfacet
  facet normal 0 0 1
    outer loop
      vertex 32.6518 16.4446 3
      vertex 32.6518 7.55544 3
      vertex 33.0554 8.22883 3
    endloop
  endfacet
  facet normal 0 0 1
    outer loop
      vertex 32.1841 17.0751 3
      vertex 32.6518 7.55544 3
      vertex 32.6518 16.4446 3
    endloop
  endfacet
  facet normal 0 0 1
    outer loop
      vertex 32.1841 17.0751 3
      vertex 32.1841 6.92485 3
      vertex 32.6518 7.55544 3
    endloop
  endfacet
  facet normal 0 0 1
    outer loop
      vertex 31.6569 17.6569 3
      vertex 32.1841 6.92485 3
      vertex 32.1841 17.0751 3
    endloop
  endfacet
  facet normal 0 0 1
    outer loop
      vertex 31.6569 17.6569 3
      vertex 31.6569 6.34315 3
      vertex 32.1841 6.92485 3
    endloop
  endfacet
  facet normal 0 0 1
    outer loop
      vertex 31.0751 18.1841 3
      vertex 31.6569 6.34315 3
      vertex 31.6569 17.6569 3
    endloop
  endfacet
  facet normal 0 0 1
    outer loop
      vertex 31.0751 18.1841 3
      vertex 31.0751 5.81592 3
      vertex 31.6569 6.34315 3
    endloop
  endfacet
  facet normal 0 0 1
    outer loop
      vertex 30.4446 18.6518 3
      vertex 31.0751 5.81592 3
      vertex 31.0751 18.1841 3
    endloop
  endfacet
  facet normal 0 0 1
    outer loop
      vertex 30.4446 18.6518 3
      vertex 30.4446 5.34824 3
      vertex 31.0751 5.81592 3
    endloop
  endfacet
  facet normal 0 0 1
    outer loop
      vertex 29.7712 19.0554 3
      vertex 30.4446 5.34824 3
      vertex 30.4446 18.6518 3
    endloop
  endfacet
  facet normal 0 0 1
    outer loop
      vertex 29.7712 19.0554 3
      vertex 29.7712 4.94463 3
      vertex 30.4446 5.34824 3
    endloop
  endfacet
  facet normal 0 0 1
    outer loop
      vertex 29.0615 19.391 3
      vertex 29.7712 4.94463 3
      vertex 29.7712 19.0554 3
    endloop
  endfacet
  facet normal 0 0 1
    outer loop
      vertex 29.0615 19.391 3
      vertex 29.0615 4.60896 3
      vertex 29.7712 4.94463 3
    endloop
  endfacet
  facet normal 0 0 1
    outer loop
      vertex 28.3223 19.6555 3
      vertex 29.0615 4.60896 3
      vertex 29.0615 19.391 3
    endloop
  endfacet
  facet normal 0 0 1
    outer loop
      vertex 28.3223 19.6555 3
      vertex 28.3223 4.34448 3
      vertex 29.0615 4.60896 3
    endloop
  endfacet
  facet normal 0 0 1
    outer loop
      vertex 27.5607 19.8463 3
      vertex 28.3223 4.34448 3
      vertex 28.3223 19.6555 3
    endloop
  endfacet
  facet normal 0 0 1
    outer loop
      vertex 27.5607 19.8463 3
      vertex 27.5607 4.15372 3
      vertex 28.3223 4.34448 3
    endloop
  endfacet
  facet normal 0 0 1
    outer loop
      vertex 26.7841 19.9615 3
      vertex 27.5607 4.15372 3
      vertex 27.5607 19.8463 3
    endloop
  endfacet
  facet normal 0 0 1
    outer loop
      vertex 26.7841 19.9615 3
      vertex 26.7841 4.03852 3
      vertex 27.5607 4.15372 3
    endloop
  endfacet
  facet normal 0 0 1
    outer loop
      vertex 26 20 3
      vertex 26.7841 4.03852 3
      vertex 26.7841 19.9615 3
    endloop
  endfacet
  facet normal 0 0 1
    outer loop
      vertex 26 20 3
      vertex 26 4 3
      vertex 26.7841 4.03852 3
    endloop
  endfacet
  facet normal -0 0 1
    outer loop
      vertex 10 20 3
      vertex 26 4 3
      vertex 26 20 3
    endloop
  endfacet
  facet normal 0 0 1
    outer loop
      vertex 10 20 3
      vertex 10 4 3
      vertex 26 4 3
    endloop
  endfacet
  facet normal -0 0 1
    outer loop
      vertex 9.21586 19.9615 3
      vertex 10 4 3
      vertex 10 20 3
    endloop
  endfacet
  facet normal 0 0 1
    outer loop
      vertex 9.21586 19.9615 3
      vertex 9.21586 4.03852 3
      vertex 10 4 3
    endloop
  endfacet
  facet normal -0 0 1
    outer loop
      vertex 8.43928 19.8463 3
      vertex 9.21586 4.03852 3
      vertex 9.21586 19.9615 3
    endloop
  endfacet
  facet normal 0 0 1
    outer loop
      vertex 8.43928 19.8463 3
      vertex 8.43928 4.15372 3
      vertex 9.21586 4.03852 3
    endloop
  endfacet
  facet normal -0 0 1
    outer loop
      vertex 7.67772 19.6555 3
      vertex 8.43928 4.15372 3
      vertex 8.43928 19.8463 3
    endloop
  endfacet
  facet normal 0 0 1
    outer loop
      vertex 7.67772 19.6555 3
      vertex 7.67772 4.34448 3
      vertex 8.43928 4.15372 3
    endloop
  endfacet
  facet normal -0 0 1
    outer loop
      vertex 6.93853 19.391 3
      vertex 7.67772 4.34448 3
      vertex 7.67772 19.6555 3
    endloop
  endfacet
  facet normal 0 0 1
    outer loop
      vertex 6.93853 19.391 3
      vertex 6.93853 4.60896 3
      vertex 7.67772 4.34448 3
    endloop
  endfacet
  facet normal -0 0 1
    outer loop
      vertex 6.22883 19.0554 3
      vertex 6.93853 4.60896 3
      vertex 6.93853 19.391 3
    endloop
  endfacet
  facet normal 0 0 1
    outer loop
      vertex 6.22883 19.0554 3
      vertex 6.22883 4.94463 3
      vertex 6.93853 4.60896 3
    endloop
  endfacet
  facet normal -0 0 1
    outer loop
      vertex 5.55544 18.6518 3
      vertex 6.22883 4.94463 3
      vertex 6.22883 19.0554 3
    endloop
  endfacet
  facet normal 0 0 1
    outer loop
      vertex 5.55544 18.6518 3
      vertex 5.55544 5.34824 3
      vertex 6.22883 4.94463 3
    endloop
  endfacet
  facet normal -0 0 1
    outer loop
      vertex 4.92485 18.1841 3
      vertex 5.55544 5.34824 3
      vertex 5.55544 18.6518 3
    endloop
  endfacet
  facet normal 0 0 1
    outer loop
      vertex 4.92485 18.1841 3
      vertex 4.92485 5.81592 3
      vertex 5.55544 5.34824 3
    endloop
  endfacet
  facet normal -0 0 1
    outer loop
      vertex 4.34315 17.6569 3
      vertex 4.92485 5.81592 3
      vertex 4.92485 18.1841 3
    endloop
  endfacet
  facet normal 0 0 1
    outer loop
      vertex 4.34315 17.6569 3
      vertex 4.34315 6.34315 3
      vertex 4.92485 5.81592 3
    endloop
  endfacet
  facet normal -0 0 1
    outer loop
      vertex 3.81592 17.0751 3
      vertex 4.34315 6.34315 3
      vertex 4.34315 17.6569 3
    endloop
  endfacet
  facet normal 0 0 1
    outer loop
      vertex 3.81592 17.0751 3
      vertex 3.81592 6.92485 3
      vertex 4.34315 6.34315 3
    endloop
  endfacet
  facet normal -0 0 1
    outer loop
      vertex 3.34824 16.4446 3
      vertex 3.81592 6.92485 3
      vertex 3.81592 17.0751 3
    endloop
  endfacet
  facet normal 0 0 1
    outer loop
      vertex 3.34824 16.4446 3
      vertex 3.34824 7.55544 3
      vertex 3.81592 6.92485 3
    endloop
  endfacet
  facet normal -0 0 1
    outer loop
      vertex 2.94463 15.7712 3
      vertex 3.34824 7.55544 3
      vertex 3.34824 16.4446 3
    endloop
  endfacet
  facet normal 0 0 1
    outer loop
      vertex 2.94463 15.7712 3
      vertex 2.94463 8.22883 3
      vertex 3.34824 7.55544 3
    endloop
  endfacet
  facet normal -0 0 1
    outer loop
      vertex 2.60896 15.0615 3
      vertex 2.94463 8.22883 3
      vertex 2.94463 15.7712 3
    endloop
  endfacet
  facet normal 0 0 1
    outer loop
      vertex 2.60896 15.0615 3
      vertex 2.60896 8.93853 3
      vertex 2.94463 8.22883 3
    endloop
  endfacet
  facet normal -0 0 1
    outer loop
      vertex 2.34448 14.3223 3
      vertex 2.60896 8.93853 3
      vertex 2.60896 15.0615 3
    endloop
  endfacet
  facet normal 0 0 1
    outer loop
      vertex 2.34448 14.3223 3
      vertex 2.34448 9.67772 3
      vertex 2.60896 8.93853 3
    endloop
  endfacet
  facet normal -0 0 1
    outer loop
      vertex 2.15372 13.5607 3
      vertex 2.34448 9.67772 3
      vertex 2.34448 14.3223 3
    endloop
  endfacet
  facet normal 0 0 1
    outer loop
      vertex 2.15372 13.5607 3
      vertex 2.15372 10.4393 3
      vertex 2.34448 9.67772 3
    endloop
  endfacet
  facet normal -0 0 1
    outer loop
      vertex 2.03852 12.7841 3
      vertex 2.15372 10.4393 3
      vertex 2.15372 13.5607 3
    endloop
  endfacet
  facet normal 0 0 1
    outer loop
      vertex 2.03852 12.7841 3
      vertex 2.03852 11.2159 3
      vertex 2.15372 10.4393 3
    endloop
  endfacet
  facet normal 0 -0 1
    outer loop
      vertex 2.03852 11.2159 3
      vertex 2.03852 12.7841 3
      vertex 2 12 3
    endloop
  endfacet
  facet normal -0.941539 0.336905 0
    outer loop
      vertex 33.391 8.93853 3
      vertex 33.6555 9.67772 10
      vertex 33.6555 9.67772 3
    endloop
  endfacet
  facet normal -0.941539 0.336905 0
    outer loop
      vertex 33.6555 9.67772 10
      vertex 33.391 8.93853 3
      vertex 33.391 8.93853 10
    endloop
  endfacet
  facet normal 0.0490647 0.998796 -0
    outer loop
      vertex 10 4 3
      vertex 9.21586 4.03852 10
      vertex 10 4 10
    endloop
  endfacet
  facet normal 0.0490647 0.998796 0
    outer loop
      vertex 9.21586 4.03852 10
      vertex 10 4 3
      vertex 9.21586 4.03852 3
    endloop
  endfacet
  facet normal 0.146737 0.989176 -0
    outer loop
      vertex 9.21586 4.03852 3
      vertex 8.43928 4.15372 10
      vertex 9.21586 4.03852 10
    endloop
  endfacet
  facet normal 0.146737 0.989176 0
    outer loop
      vertex 8.43928 4.15372 10
      vertex 9.21586 4.03852 3
      vertex 8.43928 4.15372 3
    endloop
  endfacet
  facet normal 0.970033 0.242973 0
    outer loop
      vertex 2.34448 9.67772 10
      vertex 2.15372 10.4393 3
      vertex 2.15372 10.4393 10
    endloop
  endfacet
  facet normal 0.970033 0.242973 0
    outer loop
      vertex 2.15372 10.4393 3
      vertex 2.34448 9.67772 10
      vertex 2.34448 9.67772 3
    endloop
  endfacet
  facet normal 0.803206 0.595701 0
    outer loop
      vertex 3.81592 6.92485 10
      vertex 3.34824 7.55544 3
      vertex 3.34824 7.55544 10
    endloop
  endfacet
  facet normal 0.803206 0.595701 0
    outer loop
      vertex 3.34824 7.55544 3
      vertex 3.81592 6.92485 10
      vertex 3.81592 6.92485 3
    endloop
  endfacet
  facet normal 0.514099 0.857731 -0
    outer loop
      vertex 6.22883 4.94463 3
      vertex 5.55544 5.34824 10
      vertex 6.22883 4.94463 10
    endloop
  endfacet
  facet normal 0.514099 0.857731 0
    outer loop
      vertex 5.55544 5.34824 10
      vertex 6.22883 4.94463 3
      vertex 5.55544 5.34824 3
    endloop
  endfacet
  facet normal 0.595701 0.803206 -0
    outer loop
      vertex 5.55544 5.34824 3
      vertex 4.92485 5.81592 10
      vertex 5.55544 5.34824 10
    endloop
  endfacet
  facet normal 0.595701 0.803206 0
    outer loop
      vertex 4.92485 5.81592 10
      vertex 5.55544 5.34824 3
      vertex 4.92485 5.81592 3
    endloop
  endfacet
  facet normal 0.740946 0.671564 0
    outer loop
      vertex 4.34315 6.34315 10
      vertex 3.81592 6.92485 3
      vertex 3.81592 6.92485 10
    endloop
  endfacet
  facet normal 0.740946 0.671564 0
    outer loop
      vertex 3.81592 6.92485 3
      vertex 4.34315 6.34315 10
      vertex 4.34315 6.34315 3
    endloop
  endfacet
  facet normal -0.67148 -0.741023 0
    outer loop
      vertex 31.0751 18.1841 3
      vertex 31.6569 17.6569 10
      vertex 31.0751 18.1841 10
    endloop
  endfacet
  facet normal -0.67148 -0.741023 -0
    outer loop
      vertex 31.6569 17.6569 10
      vertex 31.0751 18.1841 3
      vertex 31.6569 17.6569 3
    endloop
  endfacet
  facet normal -0.243015 -0.970023 0
    outer loop
      vertex 27.5607 19.8463 3
      vertex 28.3223 19.6555 10
      vertex 27.5607 19.8463 10
    endloop
  endfacet
  facet normal -0.243015 -0.970023 -0
    outer loop
      vertex 28.3223 19.6555 10
      vertex 27.5607 19.8463 3
      vertex 28.3223 19.6555 3
    endloop
  endfacet
  facet normal -0.146733 -0.989176 0
    outer loop
      vertex 26.7841 19.9615 3
      vertex 27.5607 19.8463 10
      vertex 26.7841 19.9615 10
    endloop
  endfacet
  facet normal -0.146733 -0.989176 -0
    outer loop
      vertex 27.5607 19.8463 10
      vertex 26.7841 19.9615 3
      vertex 27.5607 19.8463 3
    endloop
  endfacet
  facet normal -0.970023 -0.243015 0
    outer loop
      vertex 33.8463 13.5607 3
      vertex 33.6555 14.3223 10
      vertex 33.6555 14.3223 3
    endloop
  endfacet
  facet normal -0.970023 -0.243015 0
    outer loop
      vertex 33.6555 14.3223 10
      vertex 33.8463 13.5607 3
      vertex 33.8463 13.5607 10
    endloop
  endfacet
  facet normal 0.741004 -0.671501 0
    outer loop
      vertex 3.81592 17.0751 10
      vertex 4.34315 17.6569 3
      vertex 4.34315 17.6569 10
    endloop
  endfacet
  facet normal 0.741004 -0.671501 0
    outer loop
      vertex 4.34315 17.6569 3
      vertex 3.81592 17.0751 10
      vertex 3.81592 17.0751 3
    endloop
  endfacet
  facet normal 0.970035 -0.242967 0
    outer loop
      vertex 2.15372 13.5607 10
      vertex 2.34448 14.3223 3
      vertex 2.34448 14.3223 10
    endloop
  endfacet
  facet normal 0.970035 -0.242967 0
    outer loop
      vertex 2.34448 14.3223 3
      vertex 2.15372 13.5607 10
      vertex 2.15372 13.5607 3
    endloop
  endfacet
  facet normal -0.989176 0.146733 0
    outer loop
      vertex 33.8463 10.4393 3
      vertex 33.9615 11.2159 10
      vertex 33.9615 11.2159 3
    endloop
  endfacet
  facet normal -0.989176 0.146733 0
    outer loop
      vertex 33.9615 11.2159 10
      vertex 33.8463 10.4393 3
      vertex 33.8463 10.4393 10
    endloop
  endfacet
  facet normal -0.803194 0.595718 0
    outer loop
      vertex 32.1841 6.92485 3
      vertex 32.6518 7.55544 10
      vertex 32.6518 7.55544 3
    endloop
  endfacet
  facet normal -0.803194 0.595718 0
    outer loop
      vertex 32.6518 7.55544 10
      vertex 32.1841 6.92485 3
      vertex 32.1841 6.92485 10
    endloop
  endfacet
  facet normal -0.242967 0.970035 0
    outer loop
      vertex 28.3223 4.34448 3
      vertex 27.5607 4.15372 10
      vertex 28.3223 4.34448 10
    endloop
  endfacet
  facet normal -0.242967 0.970035 0
    outer loop
      vertex 27.5607 4.15372 10
      vertex 28.3223 4.34448 3
      vertex 27.5607 4.15372 3
    endloop
  endfacet
  facet normal 0.989176 0.146733 0
    outer loop
      vertex 2.15372 10.4393 10
      vertex 2.03852 11.2159 3
      vertex 2.03852 11.2159 10
    endloop
  endfacet
  facet normal 0.989176 0.146733 0
    outer loop
      vertex 2.03852 11.2159 3
      vertex 2.15372 10.4393 10
      vertex 2.15372 10.4393 3
    endloop
  endfacet
  facet normal 0.941547 0.336883 0
    outer loop
      vertex 2.60896 8.93853 10
      vertex 2.34448 9.67772 3
      vertex 2.34448 9.67772 10
    endloop
  endfacet
  facet normal 0.941547 0.336883 0
    outer loop
      vertex 2.34448 9.67772 3
      vertex 2.60896 8.93853 10
      vertex 2.60896 8.93853 3
    endloop
  endfacet
  facet normal 0.857731 0.514099 0
    outer loop
      vertex 3.34824 7.55544 10
      vertex 2.94463 8.22883 3
      vertex 2.94463 8.22883 10
    endloop
  endfacet
  facet normal 0.857731 0.514099 0
    outer loop
      vertex 2.94463 8.22883 3
      vertex 3.34824 7.55544 10
      vertex 3.34824 7.55544 3
    endloop
  endfacet
  facet normal 0.427562 0.903986 -0
    outer loop
      vertex 6.93853 4.60896 3
      vertex 6.22883 4.94463 10
      vertex 6.93853 4.60896 10
    endloop
  endfacet
  facet normal 0.427562 0.903986 0
    outer loop
      vertex 6.22883 4.94463 10
      vertex 6.93853 4.60896 3
      vertex 6.22883 4.94463 3
    endloop
  endfacet
  facet normal 0.671564 0.740946 -0
    outer loop
      vertex 4.92485 5.81592 3
      vertex 4.34315 6.34315 10
      vertex 4.92485 5.81592 10
    endloop
  endfacet
  facet normal 0.671564 0.740946 0
    outer loop
      vertex 4.34315 6.34315 10
      vertex 4.92485 5.81592 3
      vertex 4.34315 6.34315 3
    endloop
  endfacet
  facet normal -0.998797 0.0490418 0
    outer loop
      vertex 33.9615 11.2159 3
      vertex 34 12 10
      vertex 34 12 3
    endloop
  endfacet
  facet normal -0.998797 0.0490418 0
    outer loop
      vertex 34 12 10
      vertex 33.9615 11.2159 3
      vertex 33.9615 11.2159 10
    endloop
  endfacet
  facet normal -0.970021 0.243021 0
    outer loop
      vertex 33.6555 9.67772 3
      vertex 33.8463 10.4393 10
      vertex 33.8463 10.4393 3
    endloop
  endfacet
  facet normal -0.970021 0.243021 0
    outer loop
      vertex 33.8463 10.4393 10
      vertex 33.6555 9.67772 3
      vertex 33.6555 9.67772 10
    endloop
  endfacet
  facet normal -0.427562 0.903986 0
    outer loop
      vertex 29.7712 4.94463 3
      vertex 29.0615 4.60896 10
      vertex 29.7712 4.94463 10
    endloop
  endfacet
  facet normal -0.427562 0.903986 0
    outer loop
      vertex 29.0615 4.60896 10
      vertex 29.7712 4.94463 3
      vertex 29.0615 4.60896 3
    endloop
  endfacet
  facet normal -0.595756 0.803165 0
    outer loop
      vertex 31.0751 5.81592 3
      vertex 30.4446 5.34824 10
      vertex 31.0751 5.81592 10
    endloop
  endfacet
  facet normal -0.595756 0.803165 0
    outer loop
      vertex 30.4446 5.34824 10
      vertex 31.0751 5.81592 3
      vertex 30.4446 5.34824 3
    endloop
  endfacet
  facet normal -0.514093 0.857734 0
    outer loop
      vertex 30.4446 5.34824 3
      vertex 29.7712 4.94463 10
      vertex 30.4446 5.34824 10
    endloop
  endfacet
  facet normal -0.514093 0.857734 0
    outer loop
      vertex 29.7712 4.94463 10
      vertex 30.4446 5.34824 3
      vertex 29.7712 4.94463 3
    endloop
  endfacet
  facet normal -0.857737 0.514089 0
    outer loop
      vertex 32.6518 7.55544 3
      vertex 33.0554 8.22883 10
      vertex 33.0554 8.22883 3
    endloop
  endfacet
  facet normal -0.857737 0.514089 0
    outer loop
      vertex 33.0554 8.22883 10
      vertex 32.6518 7.55544 3
      vertex 32.6518 7.55544 10
    endloop
  endfacet
  facet normal -0.146733 0.989176 0
    outer loop
      vertex 27.5607 4.15372 3
      vertex 26.7841 4.03852 10
      vertex 27.5607 4.15372 10
    endloop
  endfacet
  facet normal -0.146733 0.989176 0
    outer loop
      vertex 26.7841 4.03852 10
      vertex 27.5607 4.15372 3
      vertex 26.7841 4.03852 3
    endloop
  endfacet
  facet normal -0.336879 0.941548 0
    outer loop
      vertex 29.0615 4.60896 3
      vertex 28.3223 4.34448 10
      vertex 29.0615 4.60896 10
    endloop
  endfacet
  facet normal -0.336879 0.941548 0
    outer loop
      vertex 28.3223 4.34448 10
      vertex 29.0615 4.60896 3
      vertex 28.3223 4.34448 3
    endloop
  endfacet
  facet normal -0.671501 0.741004 0
    outer loop
      vertex 31.6569 6.34315 3
      vertex 31.0751 5.81592 10
      vertex 31.6569 6.34315 10
    endloop
  endfacet
  facet normal -0.671501 0.741004 0
    outer loop
      vertex 31.0751 5.81592 10
      vertex 31.6569 6.34315 3
      vertex 31.0751 5.81592 3
    endloop
  endfacet
  facet normal -0.740965 0.671543 0
    outer loop
      vertex 31.6569 6.34315 3
      vertex 32.1841 6.92485 10
      vertex 32.1841 6.92485 3
    endloop
  endfacet
  facet normal -0.740965 0.671543 0
    outer loop
      vertex 32.1841 6.92485 10
      vertex 31.6569 6.34315 3
      vertex 31.6569 6.34315 10
    endloop
  endfacet
  facet normal -0.90402 0.427489 0
    outer loop
      vertex 33.0554 8.22883 3
      vertex 33.391 8.93853 10
      vertex 33.391 8.93853 3
    endloop
  endfacet
  facet normal -0.90402 0.427489 0
    outer loop
      vertex 33.391 8.93853 10
      vertex 33.0554 8.22883 3
      vertex 33.0554 8.22883 10
    endloop
  endfacet
endsolid OpenSCAD_Model
